<svg width="33" height="33" viewBox="0 0 33 33" fill="none" xmlns="http://www.w3.org/2000/svg">
<path fill-rule="evenodd" clip-rule="evenodd" d="M9.9484 9.28504L7.58303 9.87638C6.35882 10.1824 5.5 11.2824 5.5 12.5443V24.75C5.5 26.2688 6.73122 27.5 8.25 27.5H24.75C26.2688 27.5 27.5 26.2688 27.5 24.75V12.5443C27.5 11.2824 26.6412 10.1824 25.417 9.87638L23.0516 9.28504L20.9364 6.11229C20.6814 5.72976 20.2521 5.5 19.7924 5.5H13.2076C12.7479 5.5 12.3186 5.72976 12.0636 6.11229L9.9484 9.28504ZM8.25 6.875L6.91605 7.20849C4.46764 7.82059 2.75 10.0205 2.75 12.5443V24.75C2.75 27.7876 5.21243 30.25 8.25 30.25H24.75C27.7876 30.25 30.25 27.7876 30.25 24.75V12.5443C30.25 10.0205 28.5324 7.82059 26.0839 7.20849L24.75 6.875L23.2246 4.58686C22.4595 3.43929 21.1716 2.75 19.7924 2.75H13.2076C11.8284 2.75 10.5405 3.43929 9.77543 4.58686L8.25 6.875Z" fill="#CCD2E3"/>
<path fill-rule="evenodd" clip-rule="evenodd" d="M22 17.875C22 20.9126 19.5376 23.375 16.5 23.375C13.4624 23.375 11 20.9126 11 17.875C11 14.8374 13.4624 12.375 16.5 12.375C19.5376 12.375 22 14.8374 22 17.875ZM19.25 17.875C19.25 19.3938 18.0188 20.625 16.5 20.625C14.9812 20.625 13.75 19.3938 13.75 17.875C13.75 16.3562 14.9812 15.125 16.5 15.125C18.0188 15.125 19.25 16.3562 19.25 17.875Z" fill="#CCD2E3"/>
<path d="M23.375 15.125C24.1344 15.125 24.75 14.5094 24.75 13.75C24.75 12.9906 24.1344 12.375 23.375 12.375C22.6156 12.375 22 12.9906 22 13.75C22 14.5094 22.6156 15.125 23.375 15.125Z" fill="#CCD2E3"/>
</svg>
