<svg width="21" height="22" viewBox="0 0 21 22" fill="none" xmlns="http://www.w3.org/2000/svg">
<g clip-path="url(#clip0_0_529)">
<path d="M5.29375 3.79498L4.9525 3.43748C4.61125 3.07998 4.06 3.08915 3.7275 3.43748L3.71875 3.44665C3.3775 3.80415 3.3775 4.38165 3.71875 4.72998L4.06 5.08748C4.40125 5.44498 4.94375 5.44498 5.285 5.08748L5.29375 5.07832C5.635 4.72998 5.635 4.14332 5.29375 3.79498ZM2.63375 9.62498H1.74125C1.26 9.62498 0.875 10.0283 0.875 10.5325V10.5417C0.875 11.0458 1.26 11.4492 1.74125 11.4492H2.625C3.115 11.4583 3.5 11.055 3.5 10.5508V10.5417C3.5 10.0283 3.115 9.62498 2.63375 9.62498ZM10.5088 0.50415H10.5C10.01 0.50415 9.625 0.907484 9.625 1.41165V2.29165C9.625 2.79582 10.01 3.19915 10.4913 3.19915H10.5C10.99 3.20832 11.375 2.80498 11.375 2.30082V1.41165C11.375 0.907484 10.99 0.50415 10.5088 0.50415ZM17.2813 3.44665C16.94 3.08915 16.3888 3.08915 16.0475 3.43748L15.7063 3.79498C15.365 4.15248 15.365 4.72998 15.7063 5.07832L15.715 5.08748C16.0563 5.44498 16.6075 5.44498 16.94 5.08748L17.2813 4.72998C17.6225 4.37248 17.6225 3.80415 17.2813 3.44665ZM15.6975 17.2883L16.0388 17.6458C16.38 18.0033 16.9313 18.0033 17.2725 17.6458C17.6138 17.2883 17.6138 16.7108 17.2725 16.3533L16.9313 15.9958C16.59 15.6383 16.0388 15.6475 15.7063 15.9958C15.3563 16.3625 15.3563 16.9308 15.6975 17.2883ZM17.5 10.5325V10.5417C17.5 11.0458 17.885 11.4492 18.3663 11.4492H19.25C19.7313 11.4492 20.1163 11.0458 20.1163 10.5417V10.5325C20.1163 10.0283 19.7313 9.62498 19.25 9.62498H18.3663C17.885 9.62498 17.5 10.0283 17.5 10.5325ZM10.5 5.04165C7.60375 5.04165 5.25 7.50748 5.25 10.5417C5.25 13.5758 7.60375 16.0417 10.5 16.0417C13.3963 16.0417 15.75 13.5758 15.75 10.5417C15.75 7.50748 13.3963 5.04165 10.5 5.04165ZM10.4913 20.5792H10.5C10.9813 20.5792 11.3663 20.1758 11.3663 19.6717V18.7917C11.3663 18.2875 10.9813 17.8842 10.5 17.8842H10.4913C10.01 17.8842 9.625 18.2875 9.625 18.7917V19.6717C9.625 20.1758 10.01 20.5792 10.4913 20.5792ZM3.71875 17.6367C4.06 17.9942 4.61125 17.9942 4.9525 17.6367L5.29375 17.2792C5.635 16.9217 5.62625 16.3442 5.29375 15.9958L5.285 15.9867C4.94375 15.6292 4.3925 15.6292 4.05125 15.9867L3.71 16.3442C3.3775 16.7108 3.3775 17.2792 3.71875 17.6367Z" fill="#E6E8EC"/>
</g>
<defs>
<clipPath id="clip0_0_529">
<rect width="21" height="22" fill="white"/>
</clipPath>
</defs>
</svg>
