<svg width="16" height="18" viewBox="0 0 16 18" fill="none" xmlns="http://www.w3.org/2000/svg">
<path d="M4.40001 4.09091V3.68182C4.40001 1.65082 6.0128 0 8.00002 0C9.98798 0 11.6 1.6495 11.6 3.68182V4.09091H12.8908C13.9657 4.09091 14.901 4.95256 15.0101 6.04776L15.9896 15.8772C16.1047 17.033 15.2523 18 14.1181 18H1.88196C0.745389 18 -0.104997 17.0364 0.0105099 15.8772L0.989977 6.04776C1.0988 4.95569 2.03626 4.09091 3.10927 4.09091H4.40001ZM4.40001 5.72727H3.10927C2.85661 5.72727 2.60729 5.95727 2.58174 6.21367L1.60227 16.0431C1.58283 16.2383 1.69348 16.3636 1.88196 16.3636H14.1181C14.3038 16.3636 14.417 16.2353 14.3978 16.0431L13.4183 6.21367C13.3925 5.95458 13.1458 5.72727 12.8908 5.72727H11.6V7.36364C11.6 7.81551 11.2418 8.18182 10.8 8.18182C10.3582 8.18182 10 7.81551 10 7.36364V5.72727H6.00001V7.36364C6.00001 7.81551 5.64184 8.18182 5.20001 8.18182C4.75818 8.18182 4.40001 7.81551 4.40001 7.36364V5.72727ZM10 4.09091V3.33566C10 2.39767 9.10444 1.63636 8.00002 1.63636C6.89601 1.63636 6.00001 2.39828 6.00001 3.33566V4.09091H10Z" fill="#777E91"/>
</svg>
