<svg width="22" height="22" viewBox="0 0 22 22" fill="none" xmlns="http://www.w3.org/2000/svg">
<mask id="mask0_0_410" style="mask-type:luminance" maskUnits="userSpaceOnUse" x="2" y="0" width="18" height="22">
<path fill-rule="evenodd" clip-rule="evenodd" d="M12.7171 20.0834C13.6386 19.3495 14.5599 18.5204 15.4221 17.6103C17.9365 14.9562 19.4617 12.1601 19.4617 9.30724C19.4617 4.63406 15.6733 0.845703 11.0001 0.845703C6.32693 0.845703 2.53857 4.63406 2.53857 9.30724C2.53857 12.1601 4.06368 14.9562 6.57815 17.6103C7.44034 18.5204 8.36159 19.3495 9.28312 20.0834C9.60616 20.3406 9.90674 20.568 10.1775 20.7635C10.3425 20.8826 10.4627 20.9659 10.5308 21.0113C10.815 21.2008 11.1853 21.2008 11.4695 21.0113C11.5375 20.9659 11.6578 20.8826 11.8228 20.7635C12.0935 20.568 12.3941 20.3406 12.7171 20.0834ZM7.6155 9.30724C7.6155 11.1765 9.13084 12.6919 11.0001 12.6919C12.8694 12.6919 14.3847 11.1765 14.3847 9.30724C14.3847 7.43797 12.8694 5.92263 11.0001 5.92263C9.13084 5.92263 7.6155 7.43797 7.6155 9.30724Z" fill="white"/>
</mask>
<g mask="url(#mask0_0_410)">
<rect width="22" height="22" fill="#22242A"/>
</g>
</svg>
