<svg width="50" height="34" viewBox="0 0 50 34" fill="none" xmlns="http://www.w3.org/2000/svg">
<rect width="49.5833" height="34" rx="4.25" fill="#23262F"/>
<rect x="0.5" y="0.5" width="48.5833" height="33" rx="3.75" stroke="#CCD2E3" stroke-opacity="0.31"/>
<path d="M13.2874 12.2202H6.54689C5.66907 12.2202 4.95801 12.9378 4.95801 13.8222V20.6199C4.95801 21.5043 5.66907 22.2219 6.54689 22.2219H13.2874C14.1653 22.2219 14.8754 21.5043 14.8754 20.6199V13.8222C14.8763 12.9369 14.1653 12.2202 13.2874 12.2202Z" fill="#1677FF"/>
<path d="M13.1235 18.5008C12.7272 18.3669 12.1941 18.1617 11.6011 17.9453C11.9571 17.3204 12.2419 16.6094 12.4293 15.8365H10.4741V15.1263H12.8687V14.7301H10.4741V13.5459H9.49698C9.32554 13.5459 9.32554 13.7164 9.32554 13.7164V14.7291H6.90381V15.1254H9.32554V15.8355H7.32539V16.2318H11.2039C11.0624 16.7246 10.8713 17.1883 10.6455 17.609C9.38737 17.1902 8.04394 16.8511 7.20079 17.06C6.66117 17.1939 6.3136 17.4328 6.10937 17.6839C5.17254 18.8334 5.84425 20.5797 7.82285 20.5797C8.99296 20.5797 10.12 19.922 10.9931 18.8381C12.2963 19.4695 14.8754 20.5544 14.8754 20.5544V19.0086C14.8763 19.0086 14.5522 18.9824 13.1235 18.5008ZM7.63829 19.9117C6.09532 19.9117 5.63908 18.6863 6.40167 18.0156C6.65649 17.7888 7.12116 17.6783 7.36848 17.6539C8.28471 17.5631 9.13349 17.9153 10.135 18.4081C9.4314 19.3337 8.53485 19.9117 7.63829 19.9117Z" fill="white"/>
<path d="M26.4932 13.6845C26.4932 14.2016 26.8716 14.5501 27.3991 14.5501C27.9265 14.5501 28.305 14.2016 28.305 13.6845C28.305 13.1767 27.9265 12.8188 27.3991 12.8188C26.8716 12.8188 26.4932 13.1767 26.4932 13.6845Z" fill="#1677FF"/>
<path d="M25.5378 13.0371H23.9658V20.3014H25.5378V13.0371Z" fill="white"/>
<path d="M21.209 13.2864H19.0992L16.7412 20.3024H18.1942L18.5924 18.929H21.09L21.4685 20.3024H23.3291L21.209 13.2864ZM18.9203 17.7841L19.8553 14.5502H19.8946L20.7799 17.7841H18.9203Z" fill="white"/>
<path d="M28.1843 14.968H26.6123V20.3024H28.1843V14.968Z" fill="white"/>
<path d="M44.6154 14.9783L44.6247 14.968H43.1426L42.2067 18.2123H42.1571L41.0825 14.968H39.3213L41.4404 20.322L40.5551 21.954V21.9934H41.9379L44.6154 14.9783Z" fill="white"/>
<path d="M32.0959 14.8584C31.5188 14.8584 31.071 15.0776 30.5632 15.4954V14.968H28.9912V21.9934H30.5632V20.2518C30.8621 20.3314 31.1403 20.3717 31.4785 20.3717C32.8819 20.3717 34.1457 19.3365 34.1457 17.4956C34.1457 15.844 33.2304 14.8584 32.0959 14.8584ZM31.1 19.3861C30.9211 19.3861 30.7515 19.3665 30.5623 19.3065V16.421C30.8911 16.1925 31.1591 16.0828 31.4973 16.0828C32.0847 16.0828 32.5521 16.5503 32.5521 17.5462C32.5531 18.8194 31.8664 19.3861 31.1 19.3861Z" fill="white"/>
<path d="M39.0119 18.9683V16.7396C39.0119 15.5254 38.2952 14.8584 37.0314 14.8584C36.2248 14.8584 35.6683 14.998 34.6528 15.3062L34.931 16.5307C35.8566 16.1128 36.2642 15.9339 36.6923 15.9339C37.2094 15.9339 37.439 16.3021 37.439 16.8698V16.9091C35.6374 17.2473 35.08 17.4366 34.7324 17.7851C34.4739 18.0436 34.3643 18.4118 34.3643 18.84C34.3643 19.8649 35.1606 20.412 35.9063 20.412C36.4637 20.412 36.9115 20.2031 37.5186 19.7449L37.6282 20.3024H39.2002L39.0119 18.9683ZM37.4399 19.0086C37.0221 19.2372 36.7832 19.3271 36.5049 19.3271C36.1265 19.3271 35.8876 19.0779 35.8876 18.6807C35.8876 18.5317 35.9175 18.3818 36.0365 18.2629C36.2258 18.0736 36.5939 17.934 37.4399 17.7354V19.0086Z" fill="white"/>
</svg>
