<svg width="17" height="17" viewBox="0 0 17 17" fill="none" xmlns="http://www.w3.org/2000/svg">
<path fill-rule="evenodd" clip-rule="evenodd" d="M10.3216 1.15035C10.1606 1.15035 10.0062 1.08976 9.89232 0.981889C9.77846 0.874023 9.71449 0.727724 9.71449 0.575177C9.71449 0.422631 9.77846 0.276332 9.89232 0.168466C10.0062 0.0605988 10.1606 0 10.3216 0H16.3929C16.554 0 16.7084 0.0605988 16.8223 0.168466C16.9361 0.276332 17.0001 0.422631 17.0001 0.575177V6.32695C17.0001 6.4795 16.9361 6.6258 16.8223 6.73366C16.7084 6.84153 16.554 6.90213 16.3929 6.90213C16.2319 6.90213 16.0775 6.84153 15.9636 6.73366C15.8498 6.6258 15.7858 6.4795 15.7858 6.32695V1.96366L10.7721 6.71347C11.7579 7.85599 12.2424 9.31373 12.1255 10.7852C12.0086 12.2567 11.2993 13.6293 10.1441 14.6192C8.98898 15.609 7.47643 16.1405 5.91932 16.1035C4.36221 16.0666 2.87964 15.4641 1.77825 14.4207C0.676859 13.3773 0.0409002 11.9727 0.00190496 10.4976C-0.0370903 9.0224 0.523861 7.58946 1.56874 6.49512C2.61362 5.40078 4.0625 4.72874 5.61571 4.618C7.16892 4.50727 8.70764 4.9663 9.91363 5.90017L14.9273 1.15035H10.3216ZM6.0717 5.75177C4.78353 5.75177 3.54812 6.23656 2.63725 7.0995C1.72637 7.96243 1.21465 9.13282 1.21465 10.3532C1.21465 11.5736 1.72637 12.744 2.63725 13.6069C3.54812 14.4698 4.78353 14.9546 6.0717 14.9546C7.35988 14.9546 8.59529 14.4698 9.50616 13.6069C10.417 12.744 10.9288 11.5736 10.9288 10.3532C10.9288 9.13282 10.417 7.96243 9.50616 7.0995C8.59529 6.23656 7.35988 5.75177 6.0717 5.75177Z" fill="#9D9D9D"/>
</svg>
