<svg width="49" height="15" viewBox="0 0 49 15" fill="none" xmlns="http://www.w3.org/2000/svg">
<path d="M17.9669 14.4667L20.4558 0.466653H24.3447L21.9335 14.4667H17.9669Z" fill="white"/>
<path d="M17.9669 14.4667L21.1558 0.466653H24.3447L21.9335 14.4667H17.9669Z" fill="white"/>
<path d="M36.0116 0.622223C35.2338 0.311111 33.9893 0 32.4338 0C28.5449 0 25.7449 1.94445 25.7449 4.74445C25.7449 6.84445 27.6893 7.93335 29.2449 8.63335C30.8004 9.33335 31.2671 9.80001 31.2671 10.4222C31.2671 11.3556 30.0227 11.8222 28.9338 11.8222C27.3782 11.8222 26.5227 11.5889 25.2004 11.0445L24.656 10.8111L24.1115 14C25.0449 14.3889 26.756 14.7778 28.5449 14.7778C32.6671 14.7778 35.3893 12.8334 35.3893 9.8778C35.3893 8.24446 34.3782 7.00001 32.0449 5.9889C30.6449 5.2889 29.7893 4.90001 29.7893 4.20001C29.7893 3.57778 30.4893 2.95556 32.0449 2.95556C33.3671 2.95556 34.3004 3.18889 35.0004 3.50001L35.3893 3.65556L36.0116 0.622223Z" fill="white"/>
<path d="M36.0116 0.622223C35.2338 0.311111 33.9893 0 32.4338 0C28.5449 0 26.4449 1.94445 26.4449 4.74445C26.4449 6.84445 27.6893 7.93335 29.2449 8.63335C30.8004 9.33335 31.2671 9.80001 31.2671 10.4222C31.2671 11.3556 30.0227 11.8222 28.9338 11.8222C27.3782 11.8222 26.5227 11.5889 25.2004 11.0445L24.656 10.8111L24.1115 14C25.0449 14.3889 26.756 14.7778 28.5449 14.7778C32.6671 14.7778 35.3893 12.8334 35.3893 9.8778C35.3893 8.24446 34.3782 7.00001 32.0449 5.9889C30.6449 5.2889 29.7893 4.90001 29.7893 4.20001C29.7893 3.57778 30.4893 2.95556 32.0449 2.95556C33.3671 2.95556 34.3004 3.18889 35.0004 3.50001L35.3893 3.65556L36.0116 0.622223Z" fill="white"/>
<path d="M42.6996 0.466653C41.7663 0.466653 41.0663 0.544431 40.6774 1.47777L34.8441 14.4667H39.044L39.8218 12.1333H44.7996L45.2663 14.4667H48.9996L45.7329 0.466653H42.6996ZM40.9107 9.8C41.144 9.1 42.4663 5.67777 42.4663 5.67777C42.4663 5.67777 42.7774 4.82222 43.0107 4.27777L43.244 5.6C43.244 5.6 44.0218 9.1 44.1774 9.87778H40.9107V9.8Z" fill="white"/>
<path d="M43.6329 0.466653C42.6996 0.466653 41.9996 0.544431 41.6107 1.47777L34.8441 14.4667H39.044L39.8218 12.1333H44.7996L45.2663 14.4667H48.9996L45.7329 0.466653H43.6329ZM40.9107 9.8C41.2218 9.02222 42.4663 5.67777 42.4663 5.67777C42.4663 5.67777 42.7774 4.82222 43.0107 4.27777L43.244 5.6C43.244 5.6 44.0218 9.1 44.1774 9.87778H40.9107V9.8Z" fill="white"/>
<path d="M10.8116 10.2666L10.4227 8.24434C9.72274 5.91101 7.46718 3.34435 4.97828 2.0999L8.47829 14.5443H12.6783L18.9783 0.544346H14.7783L10.8116 10.2666Z" fill="white"/>
<path d="M10.8116 10.2666L10.4227 8.24434C9.72274 5.91101 7.46718 3.34435 4.97828 2.0999L8.47829 14.5443H12.6783L18.9783 0.544346H15.5561L10.8116 10.2666Z" fill="white"/>
<path d="M0 0.466653L0.700001 0.622209C5.67779 1.78888 9.10002 4.74444 10.4222 8.24445L9.02224 1.63332C8.78891 0.699986 8.08891 0.466653 7.23335 0.466653H0Z" fill="white"/>
<path d="M0 0.466653C4.97779 1.63332 9.10002 4.66666 10.4222 8.16666L9.10002 2.64443C8.86668 1.7111 8.08891 1.16665 7.23335 1.16665L0 0.466653Z" fill="white"/>
<path d="M0 0.466653C4.97779 1.63332 9.10002 4.66666 10.4222 8.16666L9.48891 5.13333C9.25557 4.19999 8.94446 3.26666 7.85557 2.87777L0 0.466653Z" fill="white"/>
<path d="M14.7004 9.80028L12.056 7.15583L10.8115 10.1114L10.5004 8.16695C9.80043 5.83361 7.54487 3.26694 5.05598 2.02249L8.55598 14.467H12.756L14.7004 9.80028Z" fill="white"/>
<path d="M21.9335 14.4675L18.5891 11.0453L17.9669 14.4675H21.9335Z" fill="white"/>
<path d="M30.8782 9.64481C31.1893 9.95592 31.3449 10.1893 31.2671 10.5004C31.2671 11.4337 30.0227 11.9004 28.9338 11.9004C27.3782 11.9004 26.5226 11.667 25.2004 11.1226L24.656 10.8893L24.1115 14.0782C25.0449 14.467 26.756 14.8559 28.5449 14.8559C31.0338 14.8559 33.056 14.1559 34.2227 12.9115L30.8782 9.64481Z" fill="white"/>
<path d="M35.3889 14.4665H39.0445L39.8222 12.1331H44.8L45.2667 14.4665H49L47.6778 8.78869L43.0111 4.27757L43.2445 5.52201C43.2445 5.52201 44.0222 9.02202 44.1778 9.7998H40.9111C41.2222 9.02202 42.4667 5.67757 42.4667 5.67757C42.4667 5.67757 42.7778 4.82201 43.0111 4.27757" fill="white"/>
</svg>
