<svg width="59" height="39" viewBox="0 0 59 39" fill="none" xmlns="http://www.w3.org/2000/svg">
<path d="M38.2527 9.56831H48.0502C48.8646 9.56831 49.6296 9.97206 50.0862 10.6327L54.294 18.1327H55.5279C56.9099 18.1327 57.9958 19.0381 57.9958 20.8366V29.1441C57.9958 30.49 56.8852 31.5911 55.5279 31.5911H53.06" stroke="white" stroke-width="2" stroke-miterlimit="10"/>
<path d="M17.2749 1.00389H38.252V31.5911H19.7428" stroke="white" stroke-width="2" stroke-miterlimit="10"/>
<path d="M9.87157 31.5911H3.70184" stroke="white" stroke-width="2" stroke-miterlimit="10"/>
<path d="M53.0595 32.8269C53.0595 35.5185 50.8508 37.7086 48.1114 37.7086C45.3844 37.7086 43.1633 35.5185 43.1633 32.8269C43.1633 30.1352 45.372 27.9451 48.1114 27.9451C50.8508 27.9451 53.0595 30.123 53.0595 32.8269Z" stroke="white" stroke-width="2" stroke-miterlimit="10"/>
<path d="M19.7675 32.8269C19.7675 35.5185 17.5587 37.7086 14.8194 37.7086C12.08 37.7086 9.87124 35.5185 9.87124 32.8269C9.87124 30.1352 12.08 27.9451 14.8194 27.9451C17.5587 27.9451 19.7675 30.123 19.7675 32.8269Z" stroke="white" stroke-width="2" stroke-miterlimit="10"/>
<path d="M38.2527 31.5911H43.1884" stroke="white" stroke-width="2" stroke-miterlimit="10"/>
<path d="M40.7202 19.3562H49.3578V18.1327L46.8899 14.4623" stroke="white" stroke-width="2" stroke-miterlimit="10"/>
<path d="M0 15.6858H20.9771" stroke="white" stroke-width="2" stroke-miterlimit="10"/>
<path d="M9.87124 8.34482H28.3804" stroke="white" stroke-width="2" stroke-miterlimit="10"/>
<path d="M7.404 8.34482H4.93611" stroke="white" stroke-width="2" stroke-miterlimit="10"/>
<path d="M14.8077 1.00389H12.3398" stroke="white" stroke-width="2" stroke-miterlimit="10"/>
</svg>
