<svg width="270" height="24" viewBox="0 0 270 24" fill="none" xmlns="http://www.w3.org/2000/svg">
<path d="M21.017 8.25666L13.5755 0.86265C12.4324 -0.28755 8.57906 -0.28755 7.43574 0.86265L0 8.25666V10.8518V19.9545C0 21.0932 0.916763 22.0178 2.04844 22.0178H6.57841C7.06307 22.0178 7.45631 21.6217 7.45631 21.1335V14.649C7.45631 14.1597 7.84955 13.7648 8.33421 13.7648H12.6769C13.1616 13.7648 13.5548 14.1597 13.5548 14.649V21.1335C13.5548 21.6217 13.948 22.0178 14.4327 22.0178H18.9685C20.1002 22.0178 21.017 21.0932 21.017 19.9545V10.8577V8.25666ZM19.2611 19.9544C19.2611 20.0316 19.2302 20.1076 19.1753 20.1628C19.1205 20.2181 19.0462 20.2492 18.9684 20.2492H15.3105V14.6489C15.3105 13.1833 14.1308 11.9962 12.6768 11.9962H8.33413C6.88009 11.9962 5.70042 13.1833 5.70042 14.6489V20.2492H2.0425C1.88132 20.2492 1.74987 20.1168 1.74987 19.9544V9.0891L8.67709 2.11298C9.14004 1.66625 11.871 1.66625 12.3339 2.11298L19.2611 9.0891L19.2611 19.9544Z" fill="#E6E8EC"/>
<path d="M105.516 20.8416L101.419 16.7411C104.618 12.6118 104.281 6.73078 100.605 3.02561C98.6687 1.07479 96.086 0 93.337 0C90.5866 0 88.0051 1.07484 86.0694 3.02561C84.1335 4.97644 83.067 7.57916 83.067 10.3494C83.067 13.121 84.1336 15.7225 86.0694 17.6732C88.0052 19.624 90.588 20.6988 93.337 20.6988C95.6105 20.6988 97.8556 19.9355 99.651 18.4928L103.72 22.6507C103.972 22.9048 104.281 23.0186 104.618 23.0186C104.954 23.0186 105.263 22.8772 105.516 22.6507C106.021 22.1702 106.021 21.3505 105.516 20.8413L105.516 20.8416ZM101.083 10.3494C101.083 12.4416 100.269 14.3936 98.8091 15.8639C97.35 17.3342 95.3857 18.155 93.3369 18.155C91.2881 18.155 89.3237 17.3353 87.8647 15.8639C86.4057 14.3936 85.5912 12.4141 85.5912 10.3494C85.5912 8.25718 86.4046 6.30517 87.8647 4.83493C89.3238 3.36462 91.2881 2.54384 93.3369 2.54384C95.4131 2.54384 97.3501 3.36349 98.8091 4.83493C100.268 6.30633 101.083 8.2573 101.083 10.3494Z" fill="#E6E8EC"/>
<path d="M173.679 5.21254V4.69128C173.679 2.10344 175.78 0 178.37 0C180.961 0 183.061 2.10175 183.061 4.69128V5.21254H184.743C186.144 5.21254 187.363 6.31043 187.505 7.70591L188.782 20.2304C188.932 21.7031 187.821 22.9352 186.343 22.9352H170.397C168.916 22.9352 167.808 21.7074 167.959 20.2304L169.235 7.70591C169.377 6.31442 170.599 5.21254 171.997 5.21254H173.679ZM173.679 7.29755H171.997C171.668 7.29755 171.343 7.59061 171.309 7.9173L170.033 20.4418C170.008 20.6904 170.152 20.8501 170.397 20.8501H186.343C186.585 20.8501 186.732 20.6866 186.707 20.4418L185.431 7.9173C185.397 7.58718 185.076 7.29755 184.743 7.29755H183.061V9.38257C183.061 9.95833 182.595 10.4251 182.019 10.4251C181.443 10.4251 180.976 9.95833 180.976 9.38257V7.29755H175.764V9.38257C175.764 9.95833 175.297 10.4251 174.721 10.4251C174.146 10.4251 173.679 9.95833 173.679 9.38257V7.29755ZM180.976 5.21254V4.25022C180.976 3.05505 179.809 2.08501 178.37 2.08501C176.931 2.08501 175.764 3.05583 175.764 4.25022V5.21254H180.976Z" fill="black"/>
<path fill-rule="evenodd" clip-rule="evenodd" d="M270 18.9075C270 22.756 264.534 23.2008 260.424 23.2008L260.13 23.2006C257.511 23.1945 250.845 23.0348 250.845 18.8842C250.845 15.1143 256.091 14.6105 260.17 14.5915L260.718 14.5911C263.337 14.5973 270 14.7569 270 18.9075ZM260.424 16.3423C255.271 16.3423 252.659 17.197 252.659 18.8842C252.659 20.5866 255.271 21.4494 260.424 21.4494C265.575 21.4494 268.186 20.5947 268.186 18.9075C268.186 17.2052 265.575 16.3423 260.424 16.3423ZM260.424 0C263.965 0 266.844 2.78124 266.844 6.2C266.844 9.61876 263.965 12.3988 260.424 12.3988H260.385C256.852 12.3883 253.989 9.60591 254.001 6.1965C254.001 2.78124 256.882 0 260.424 0ZM260.424 1.66734C257.835 1.66734 255.728 3.70015 255.728 6.2C255.72 8.69168 257.811 10.7233 260.389 10.7327L260.424 11.5663V10.7327C263.012 10.7327 265.117 8.69868 265.117 6.2C265.117 3.70015 263.012 1.66734 260.424 1.66734Z" fill="#E6E8EC"/>
</svg>
