<svg width="50" height="34" viewBox="0 0 50 34" fill="none" xmlns="http://www.w3.org/2000/svg">
<rect width="49.5833" height="34" rx="4.25" fill="white"/>
<rect x="0.5" y="0.5" width="48.5833" height="33" rx="3.75" stroke="#CCD2E3" stroke-opacity="0.31"/>
<path fill-rule="evenodd" clip-rule="evenodd" d="M25.0713 24.6227C23.3832 26.0794 21.1935 26.9588 18.8008 26.9588C13.4619 26.9588 9.13379 22.5805 9.13379 17.1796C9.13379 11.7787 13.4619 7.40039 18.8008 7.40039C21.1935 7.40039 23.3832 8.27979 25.0713 9.73653C26.7594 8.27979 28.9491 7.40039 31.3418 7.40039C36.6807 7.40039 41.0088 11.7787 41.0088 17.1796C41.0088 22.5805 36.6807 26.9589 31.3418 26.9589C28.9491 26.9589 26.7594 26.0794 25.0713 24.6227Z" fill="#ED0006"/>
<path fill-rule="evenodd" clip-rule="evenodd" d="M25.0713 24.6227C27.1498 22.829 28.4677 20.16 28.4677 17.1796C28.4677 14.1992 27.1498 11.5303 25.0713 9.73657C26.7594 8.27981 28.9491 7.40039 31.3418 7.40039C36.6808 7.40039 41.0088 11.7787 41.0088 17.1796C41.0088 22.5805 36.6808 26.9589 31.3418 26.9589C28.9491 26.9589 26.7594 26.0794 25.0713 24.6227Z" fill="#F9A000"/>
<path fill-rule="evenodd" clip-rule="evenodd" d="M25.0713 24.6224C27.1498 22.8287 28.4677 20.1598 28.4677 17.1794C28.4677 14.199 27.1498 11.53 25.0713 9.73633C22.9928 11.53 21.6748 14.199 21.6748 17.1794C21.6748 20.1598 22.9928 22.8287 25.0713 24.6224Z" fill="#FF5E00"/>
</svg>
