<svg width="4" height="19" viewBox="0 0 4 19" fill="none" xmlns="http://www.w3.org/2000/svg">
<path d="M1.9 3.8C2.94934 3.8 3.8 2.94934 3.8 1.9C3.8 0.850658 2.94934 0 1.9 0C0.850658 0 0 0.850658 0 1.9C0 2.94934 0.850658 3.8 1.9 3.8Z" fill="white"/>
<path d="M1.9 11.4C2.94934 11.4 3.8 10.5493 3.8 9.49997C3.8 8.45063 2.94934 7.59997 1.9 7.59997C0.850658 7.59997 0 8.45063 0 9.49997C0 10.5493 0.850658 11.4 1.9 11.4Z" fill="white"/>
<path d="M1.9 19C2.94934 19 3.8 18.1494 3.8 17.1C3.8 16.0507 2.94934 15.2 1.9 15.2C0.850658 15.2 0 16.0507 0 17.1C0 18.1494 0.850658 19 1.9 19Z" fill="white"/>
</svg>
