<svg width="266" height="22" viewBox="0 0 266 22" fill="none" xmlns="http://www.w3.org/2000/svg">
<mask id="mask0_0_334" style="mask-type:luminance" maskUnits="userSpaceOnUse" x="120" y="3" width="22" height="16">
<path fill-rule="evenodd" clip-rule="evenodd" d="M138.615 3.38477H123.385C121.983 3.38477 120.846 4.52127 120.846 5.92323V7.61553H141.154V5.92323C141.154 4.52127 140.017 3.38477 138.615 3.38477ZM141.154 11.0002H120.846V16.0771C120.846 17.479 121.983 18.6155 123.385 18.6155H138.615C140.017 18.6155 141.154 17.479 141.154 16.0771V11.0002Z" fill="white"/>
</mask>
<g mask="url(#mask0_0_334)">
<rect x="120" width="22" height="22" fill="#22242A"/>
</g>
<mask id="mask1_0_334" style="mask-type:luminance" maskUnits="userSpaceOnUse" x="2" y="0" width="18" height="22">
<path fill-rule="evenodd" clip-rule="evenodd" d="M12.7171 20.0834C13.6386 19.3495 14.5599 18.5204 15.4221 17.6103C17.9365 14.9562 19.4617 12.1601 19.4617 9.30724C19.4617 4.63406 15.6733 0.845703 11.0001 0.845703C6.32693 0.845703 2.53857 4.63406 2.53857 9.30724C2.53857 12.1601 4.06368 14.9562 6.57815 17.6103C7.44034 18.5204 8.36159 19.3495 9.28312 20.0834C9.60616 20.3406 9.90674 20.568 10.1775 20.7635C10.3425 20.8826 10.4627 20.9659 10.5308 21.0113C10.815 21.2008 11.1853 21.2008 11.4695 21.0113C11.5375 20.9659 11.6578 20.8826 11.8228 20.7635C12.0935 20.568 12.3941 20.3406 12.7171 20.0834ZM7.6155 9.30724C7.6155 11.1765 9.13084 12.6919 11.0001 12.6919C12.8694 12.6919 14.3847 11.1765 14.3847 9.30724C14.3847 7.43797 12.8694 5.92263 11.0001 5.92263C9.13084 5.92263 7.6155 7.43797 7.6155 9.30724Z" fill="white"/>
</mask>
<g mask="url(#mask1_0_334)">
<rect width="22" height="22" fill="#22242A"/>
</g>
<mask id="mask2_0_334" style="mask-type:luminance" maskUnits="userSpaceOnUse" x="245" y="1" width="20" height="20">
<path fill-rule="evenodd" clip-rule="evenodd" d="M245.692 11.0001C245.692 16.1406 249.86 20.3078 255 20.3078C260.141 20.3078 264.308 16.1406 264.308 11.0001C264.308 5.85958 260.141 1.69238 255 1.69238C249.86 1.69238 245.692 5.85958 245.692 11.0001ZM259.346 7.54126C258.918 7.07609 258.208 7.07609 257.779 7.54126L253.664 12.0092L252.221 10.4424C251.792 9.97719 251.082 9.97719 250.654 10.4424C250.244 10.8876 250.244 11.5961 250.654 12.0413L252.88 14.4589C253.309 14.9241 254.019 14.9241 254.448 14.4589L259.346 9.14021C259.756 8.695 259.756 7.98647 259.346 7.54126Z" fill="white"/>
</mask>
<g mask="url(#mask2_0_334)">
<rect x="244" width="22" height="22" fill="#C8C7CC"/>
</g>
<path d="M42 11H103" stroke="#C8C7CC" stroke-width="2" stroke-linecap="round" stroke-linejoin="round" stroke-dasharray="1 15"/>
<path d="M169 11.1667H233" stroke="#C8C7CC" stroke-width="2" stroke-linecap="round" stroke-linejoin="round" stroke-dasharray="1 15"/>
</svg>
