<svg width="37" height="22" viewBox="0 0 37 22" fill="none" xmlns="http://www.w3.org/2000/svg">
<rect x="1" y="1" width="34.4893" height="20" rx="1" fill="#23262F" stroke="#E6E8EC" stroke-width="2"/>
<path d="M6.72143 2.5C6.72143 3.88071 5.43168 5 3.84069 5V17C5.43168 17 6.72143 18.1193 6.72143 19.5C6.72143 20.8807 5.43168 22 3.84069 22C2.89822 22 2.06146 21.6072 1.5359 21H0.959961V1H1.5359C2.06146 0.392777 2.89822 0 3.84069 0C5.43168 0 6.72143 1.11929 6.72143 2.5Z" fill="#E6E8EC"/>
<path d="M32.6483 5C31.0573 5 29.7676 3.88071 29.7676 2.5C29.7676 1.11929 31.0573 0 32.6483 0C33.5908 0 34.4275 0.392777 34.9531 1H35.529V21H34.9531C34.4275 21.6072 33.5908 22 32.6483 22C31.0573 22 29.7676 20.8807 29.7676 19.5C29.7676 18.1193 31.0573 17 32.6483 17V5Z" fill="#E6E8EC"/>
<ellipse cx="18.2449" cy="11" rx="5.76147" ry="6" fill="#E6E8EC"/>
<g clip-path="url(#clip0_8782_21348)">
<path d="M18.3967 10.5417C17.4884 10.2958 17.1964 10.0417 17.1964 9.64583C17.1964 9.19167 17.6005 8.875 18.2766 8.875C18.9888 8.875 19.2529 9.22917 19.2769 9.75H20.1611C20.1331 9.03333 19.713 8.375 18.8768 8.1625V7.25H17.6765V8.15C16.9003 8.325 16.2761 8.85 16.2761 9.65417C16.2761 10.6167 17.0403 11.0958 18.1566 11.375C19.1569 11.625 19.3569 11.9917 19.3569 12.3792C19.3569 12.6667 19.1609 13.125 18.2766 13.125C17.4524 13.125 17.1283 12.7417 17.0843 12.25H16.2041C16.2521 13.1625 16.9083 13.675 17.6765 13.8458V14.75H18.8768V13.8542C19.657 13.7 20.2771 13.2292 20.2771 12.375C20.2771 11.1917 19.3049 10.7875 18.3967 10.5417Z" fill="#23262F"/>
</g>
<defs>
<clipPath id="clip0_8782_21348">
<rect width="9.60245" height="10" fill="white" transform="translate(13.4434 6)"/>
</clipPath>
</defs>
</svg>
