<svg width="19" height="19" viewBox="0 0 19 19" fill="none" xmlns="http://www.w3.org/2000/svg">
<path d="M11.1908 2.66118L10.4445 2.7358V2.73581L11.1908 2.66118ZM11.1483 2.3413L11.876 2.15975L11.876 2.15975L11.1483 2.3413ZM11.2706 3.23386L10.5568 3.46409V3.46409L11.2706 3.23386ZM12.6783 3.81692L13.0202 4.48444L13.0202 4.48444L12.6783 3.81692ZM13.1397 3.46844L13.6146 4.0489V4.0489L13.1397 3.46844ZM13.3959 3.27232L13.7821 3.91525L13.7821 3.91525L13.3959 3.27232ZM14.5085 3.32781L14.0602 3.92912L14.5085 3.32781ZM14.7439 3.54845L14.2136 4.07878L14.2136 4.07878L14.7439 3.54845ZM15.4512 4.25578L14.9209 4.78611L14.9209 4.78611L15.4512 4.25578ZM15.6719 4.49124L16.2732 4.043L16.2732 4.043L15.6719 4.49124ZM15.7274 5.60379L15.0844 5.21761L15.0844 5.21761L15.7274 5.60379ZM15.5312 5.86004L14.9507 5.38508L14.9456 5.39152L15.5312 5.86004ZM15.5312 5.86004L16.1117 6.335L16.1169 6.32857L15.5312 5.86004ZM15.1827 6.32146L14.5152 5.97953L14.5152 5.97953L15.1827 6.32146ZM15.7658 7.72908L15.996 7.01529H15.996L15.7658 7.72908ZM16.3385 7.80892L16.4618 7.06913L16.4376 7.06509L16.4131 7.06265L16.3385 7.80892ZM16.3385 7.80893L16.2152 8.54872L16.2395 8.55276L16.2639 8.5552L16.3385 7.80893ZM16.6584 7.85144L16.84 7.12375L16.84 7.12375L16.6584 7.85144ZM17.4059 8.67736L18.148 8.56911V8.5691L17.4059 8.67736ZM17.4059 10.3226L18.148 10.4308V10.4308L17.4059 10.3226ZM16.6583 11.1487L16.4768 10.421L16.4768 10.421L16.6583 11.1487ZM16.3386 11.1911L16.264 10.4448L16.2558 10.4457L16.3386 11.1911ZM16.3386 11.1911L16.4132 11.9375L16.4214 11.9366L16.3386 11.1911ZM15.7662 11.2709L15.9964 11.9847H15.9964L15.7662 11.2709ZM15.1831 12.6787L14.5156 13.0208V13.0208L15.1831 12.6787ZM15.5314 13.1398L16.1118 12.6649L15.5314 13.1398ZM15.7274 13.3958L16.3702 13.0096L16.3702 13.0096L15.7274 13.3958ZM15.6719 14.5086L16.2731 14.9569L16.2731 14.9569L15.6719 14.5086ZM14.5085 15.6719L14.0603 15.0706L14.0602 15.0706L14.5085 15.6719ZM13.3959 15.7274L13.7821 15.0845V15.0845L13.3959 15.7274ZM13.1397 15.5313L13.6147 14.9508L13.6082 14.9456L13.1397 15.5313ZM13.1397 15.5313L12.6647 16.1118L12.6712 16.1169L13.1397 15.5313ZM12.6783 15.1828L12.3364 15.8503L12.3364 15.8503L12.6783 15.1828ZM11.2707 15.7659L11.9845 15.9961L11.9845 15.9961L11.2707 15.7659ZM11.1908 16.3387L11.935 16.4317L11.9362 16.4225L11.9371 16.4133L11.1908 16.3387ZM11.1908 16.3387L10.4466 16.2457L10.4455 16.2549L10.4445 16.2641L11.1908 16.3387ZM11.1483 16.6589L10.4206 16.4772V16.4772L11.1483 16.6589ZM10.3224 17.4062L10.4307 18.1484H10.4308L10.3224 17.4062ZM8.67699 17.4062L8.78525 16.6641H8.78524L8.67699 17.4062ZM7.85107 16.6588L8.57876 16.4772L7.85107 16.6588ZM7.80856 16.3389L8.55484 16.2643V16.2643L7.80856 16.3389ZM7.72871 15.7662L8.4425 15.5359L8.4425 15.5359L7.72871 15.7662ZM6.32111 15.1831L6.66302 15.8506L6.66302 15.8506L6.32111 15.1831ZM5.85965 15.5316L6.3282 16.1173L6.33458 16.1121L5.85965 15.5316ZM5.85964 15.5316L5.39109 14.946L5.38471 14.9512L5.85964 15.5316ZM5.60338 15.7278L5.98955 16.3707L5.98955 16.3707L5.60338 15.7278ZM4.49085 15.6723L4.93908 15.071L4.93907 15.071L4.49085 15.6723ZM4.25539 15.4516L3.72506 15.982L3.72506 15.982L4.25539 15.4516ZM4.25537 15.4516L3.72504 15.982L4.25537 15.4516ZM3.54806 14.7443L4.07839 14.214L4.06925 14.2048L4.0598 14.196L3.54806 14.7443ZM3.54804 14.7443L3.0177 15.2746L3.02684 15.2838L3.0363 15.2926L3.54804 14.7443ZM3.3274 14.5088L2.72608 14.9571L2.72608 14.9571L3.3274 14.5088ZM3.27191 13.3963L2.62897 13.0101L2.62897 13.0101L3.27191 13.3963ZM3.46805 13.14L4.04852 13.615L4.04852 13.615L3.46805 13.14ZM3.81656 12.6786L4.48408 13.0206H4.48408L3.81656 12.6786ZM3.2335 11.271L3.00327 11.9848L3.00327 11.9848L3.2335 11.271ZM2.66081 11.1912L2.56633 11.9352L2.57624 11.9364L2.58618 11.9374L2.66081 11.1912ZM2.66079 11.1912L2.75526 10.4471L2.74535 10.4459L2.73541 10.4449L2.66079 11.1912ZM2.34094 11.1486L2.15939 11.8763H2.15939L2.34094 11.1486ZM1.59348 10.3227L0.851329 10.431V10.431L1.59348 10.3227ZM1.59349 8.67729L2.33563 8.78559L2.33563 8.78559L1.59349 8.67729ZM2.34086 7.85145L2.15925 7.12377H2.15925L2.34086 7.85145ZM2.66091 7.80892L2.73553 8.55519H2.73553L2.66091 7.80892ZM3.23391 7.72902L3.0036 7.01526H3.0036L3.23391 7.72902ZM3.81691 6.32153L4.48447 5.97968L3.81691 6.32153ZM3.4682 5.85983L2.88611 6.33277L2.88773 6.33475L3.4682 5.85983ZM3.46819 5.85981L4.05027 5.38687L4.02587 5.35684L3.99852 5.32948L3.46819 5.85981ZM3.46818 5.85981L2.88771 6.33474L2.9114 6.36369L2.93785 6.39014L3.46818 5.85981ZM3.27189 5.60333L3.91487 5.21723L3.91487 5.21723L3.27189 5.60333ZM3.32737 4.49097L2.726 4.0428L2.726 4.0428L3.32737 4.49097ZM3.54819 4.25532L3.01786 3.72499L3.01786 3.72499L3.54819 4.25532ZM4.2554 3.54811L3.72507 3.01778L3.72507 3.01778L4.2554 3.54811ZM4.49088 3.32744L4.04265 2.72611L4.04265 2.72611L4.49088 3.32744ZM5.60341 3.27195L5.98958 2.62901L5.98958 2.62901L5.60341 3.27195ZM5.85975 3.46814L5.38482 4.04861L5.38482 4.04861L5.85975 3.46814ZM6.32102 3.81656L5.97901 4.48404L5.97901 4.48404L6.32102 3.81656ZM7.72879 3.23344L7.01497 3.0033V3.0033L7.72879 3.23344ZM7.80857 2.66107L7.06436 2.56805L7.06321 2.57723L7.06229 2.58645L7.80857 2.66107ZM7.80857 2.66106L8.55278 2.75409L8.55393 2.7449L8.55485 2.73569L7.80857 2.66106ZM7.85105 2.34138L8.57876 2.52288L8.57876 2.52288L7.85105 2.34138ZM8.67709 1.59383L8.78527 2.33599L8.78527 2.33599L8.67709 1.59383ZM10.3223 1.59384L10.4306 0.851696V0.851696L10.3223 1.59384ZM11.9371 2.58656C11.923 2.44565 11.91 2.29606 11.876 2.15975L10.4206 2.52285C10.4192 2.51734 10.4212 2.52301 10.4258 2.5591C10.4306 2.59767 10.4358 2.64887 10.4445 2.7358L11.9371 2.58656ZM11.9844 3.00364C11.9897 3.02006 11.9844 3.01062 11.9739 2.92994C11.9638 2.85277 11.9533 2.74843 11.9371 2.58655L10.4445 2.73581C10.471 3.00037 10.4928 3.26545 10.5568 3.46409L11.9844 3.00364ZM12.3363 3.14941C12.1992 3.21966 12.0317 3.15031 11.9844 3.00364L10.5568 3.46409C10.888 4.49074 12.0601 4.97625 13.0202 4.48444L12.3363 3.14941ZM12.6647 2.88797C12.5388 2.99098 12.4576 3.05732 12.3959 3.10475C12.3314 3.15432 12.321 3.15727 12.3363 3.14941L13.0202 4.48444C13.206 4.38929 13.4088 4.21727 13.6146 4.0489L12.6647 2.88797ZM13.0097 2.62938C12.8893 2.70172 12.7743 2.7983 12.6647 2.88797L13.6146 4.0489C13.6822 3.99358 13.7221 3.96104 13.7528 3.93721C13.7815 3.91491 13.7869 3.91232 13.7821 3.91525L13.0097 2.62938ZM14.9567 2.72649C14.3875 2.30218 13.6183 2.26382 13.0097 2.62938L13.7821 3.91525C13.869 3.86303 13.9789 3.86851 14.0602 3.92912L14.9567 2.72649ZM15.2742 3.01812C15.1741 2.91799 15.0693 2.81045 14.9567 2.72649L14.0602 3.92912C14.0557 3.92572 14.0608 3.92884 14.0872 3.95389C14.1154 3.98065 14.1518 4.017 14.2136 4.07878L15.2742 3.01812ZM15.9816 3.72545L15.2742 3.01812L14.2136 4.07878L14.9209 4.78611L15.9816 3.72545ZM16.2732 4.043C16.1892 3.93037 16.0817 3.82558 15.9816 3.72545L14.9209 4.78611C14.9827 4.84789 15.019 4.88432 15.0458 4.91251C15.0709 4.93888 15.074 4.94404 15.0706 4.93948L16.2732 4.043ZM16.3703 5.98997C16.7359 5.38136 16.6975 4.61221 16.2732 4.043L15.0706 4.93947C15.1312 5.02079 15.1367 5.13067 15.0844 5.21761L16.3703 5.98997ZM16.1117 6.33497C16.2014 6.22537 16.298 6.1104 16.3703 5.98997L15.0844 5.21761C15.0874 5.21274 15.0848 5.21818 15.0625 5.24691C15.0386 5.27762 15.0061 5.31749 14.9508 5.38511L16.1117 6.33497ZM16.1169 6.32857L16.1169 6.32856L14.9456 5.39152L14.9456 5.39152L16.1169 6.32857ZM15.8503 6.66339C15.8424 6.67874 15.8453 6.66833 15.8949 6.60382C15.9423 6.5421 16.0087 6.46089 16.1117 6.33497L14.9508 5.38512C14.7824 5.5909 14.6104 5.79376 14.5152 5.97953L15.8503 6.66339ZM15.996 7.01529C15.8494 6.96799 15.78 6.80054 15.8503 6.66339L14.5152 5.97953C14.0234 6.93963 14.5089 8.11173 15.5356 8.44287L15.996 7.01529ZM16.4131 7.06265C16.2513 7.04646 16.1469 7.03594 16.0697 7.02584C15.989 7.01527 15.9796 7.01 15.996 7.01529L15.5356 8.44287C15.7342 8.50694 15.9993 8.52874 16.2639 8.5552L16.4131 7.06265ZM16.4618 7.06913L16.4618 7.06913L16.2152 8.54872L16.2152 8.54872L16.4618 7.06913ZM16.84 7.12375C16.7037 7.08974 16.5541 7.07674 16.4131 7.06265L16.2639 8.5552C16.3508 8.5639 16.402 8.56908 16.4406 8.57394C16.4767 8.57849 16.4824 8.58051 16.4769 8.57913L16.84 7.12375ZM18.148 8.5691C18.0455 7.8666 17.5288 7.29561 16.84 7.12375L16.4769 8.57913C16.5753 8.60368 16.6491 8.68525 16.6637 8.78561L18.148 8.5691ZM18.1663 8.9999C18.1663 8.85828 18.1683 8.70813 18.148 8.56911L16.6637 8.78561C16.6629 8.77998 16.6643 8.78583 16.6653 8.82219C16.6663 8.86106 16.6663 8.91252 16.6663 8.9999H18.1663ZM18.1663 10.0003V8.9999H16.6663V10.0003H18.1663ZM18.148 10.4308C18.1683 10.2919 18.1663 10.1418 18.1663 10.0003H16.6663C16.6663 10.0876 16.6663 10.139 16.6653 10.1779C16.6643 10.2142 16.6629 10.2201 16.6637 10.2145L18.148 10.4308ZM16.8399 11.8764C17.5288 11.7045 18.0456 11.1335 18.148 10.4308L16.6637 10.2144C16.6491 10.3148 16.5753 10.3964 16.4768 10.421L16.8399 11.8764ZM16.4132 11.9374C16.5541 11.9233 16.7036 11.9103 16.8399 11.8764L16.4768 10.421C16.4824 10.4196 16.4767 10.4216 16.4406 10.4261C16.4021 10.431 16.3509 10.4362 16.264 10.4449L16.4132 11.9374ZM16.4214 11.9366L16.4214 11.9366L16.2558 10.4457L16.2558 10.4457L16.4214 11.9366ZM15.9964 11.9847C15.9799 11.99 15.9894 11.9848 16.07 11.9742C16.1472 11.9641 16.2514 11.9536 16.4132 11.9374L16.264 10.4449C15.9996 10.4713 15.7346 10.4931 15.5361 10.5571L15.9964 11.9847ZM15.8506 12.3367C15.7803 12.1995 15.8497 12.032 15.9964 11.9847L15.5361 10.5571C14.5092 10.8881 14.0236 12.0606 14.5156 13.0208L15.8506 12.3367ZM16.1118 12.6649C16.0089 12.5391 15.9426 12.4579 15.8952 12.3962C15.8457 12.3318 15.8427 12.3214 15.8506 12.3367L14.5156 13.0208C14.6108 13.2064 14.7827 13.4091 14.9509 13.6147L16.1118 12.6649ZM16.3702 13.0096C16.298 12.8893 16.2014 12.7744 16.1118 12.6649L14.9509 13.6147C15.0062 13.6823 15.0387 13.7221 15.0625 13.7528C15.0848 13.7815 15.0874 13.787 15.0845 13.7821L16.3702 13.0096ZM16.2731 14.9569C16.6976 14.3876 16.7359 13.6183 16.3702 13.0096L15.0845 13.7821C15.1367 13.8691 15.1312 13.979 15.0706 14.0603L16.2731 14.9569ZM15.9817 15.2742C16.0817 15.1741 16.1892 15.0694 16.2731 14.9569L15.0706 14.0603C15.074 14.0557 15.0709 14.0609 15.0458 14.0872C15.0191 14.1154 14.9828 14.1518 14.921 14.2135L15.9817 15.2742ZM15.2743 15.9816L15.9817 15.2742L14.921 14.2135L14.2136 14.921L15.2743 15.9816ZM14.9567 16.2732C15.0694 16.1893 15.1741 16.0817 15.2743 15.9816L14.2136 14.921C14.1518 14.9827 14.1154 15.0191 14.0872 15.0458C14.0608 15.0709 14.0557 15.074 14.0603 15.0706L14.9567 16.2732ZM13.0097 16.3703C13.6184 16.7359 14.3875 16.6976 14.9567 16.2732L14.0602 15.0706C13.9789 15.1312 13.8691 15.1367 13.7821 15.0845L13.0097 16.3703ZM12.6648 16.1118C12.7744 16.2014 12.8893 16.298 13.0097 16.3703L13.7821 15.0845C13.787 15.0874 13.7815 15.0848 13.7528 15.0625C13.7221 15.0387 13.6822 15.0062 13.6146 14.9508L12.6648 16.1118ZM12.6712 16.1169L12.6712 16.1169L13.6082 14.9456L13.6082 14.9456L12.6712 16.1169ZM12.3364 15.8503C12.321 15.8425 12.3314 15.8454 12.3959 15.895C12.4576 15.9424 12.5388 16.0087 12.6647 16.1118L13.6146 14.9508C13.4088 14.7825 13.206 14.6104 13.0202 14.5153L12.3364 15.8503ZM11.9845 15.9961C12.0318 15.8494 12.1992 15.7801 12.3364 15.8503L13.0202 14.5153C12.0601 14.0235 10.888 14.509 10.5569 15.5356L11.9845 15.9961ZM11.9371 16.4133C11.9533 16.2514 11.9638 16.147 11.9739 16.0698C11.9845 15.9891 11.9898 15.9797 11.9845 15.9961L10.5569 15.5356C10.4928 15.7343 10.471 15.9994 10.4445 16.2641L11.9371 16.4133ZM11.935 16.4317L11.935 16.4317L10.4466 16.2457L10.4466 16.2457L11.935 16.4317ZM11.8759 16.8405C11.91 16.7041 11.923 16.5544 11.9371 16.4133L10.4445 16.2641C10.4358 16.3511 10.4306 16.4024 10.4258 16.441C10.4212 16.4771 10.4192 16.4828 10.4206 16.4772L11.8759 16.8405ZM10.4308 18.1484C11.1331 18.0458 11.704 17.5292 11.8759 16.8405L10.4206 16.4772C10.396 16.5756 10.3145 16.6494 10.2141 16.6641L10.4308 18.1484ZM9.99972 18.1667C10.1414 18.1667 10.2917 18.1687 10.4307 18.1484L10.2141 16.6641C10.2198 16.6633 10.2139 16.6647 10.1775 16.6656C10.1386 16.6666 10.0871 16.6667 9.99972 16.6667V18.1667ZM8.99953 18.1667H9.99972V16.6667H8.99953V18.1667ZM8.56874 18.1484C8.70776 18.1687 8.85792 18.1667 8.99953 18.1667V16.6667C8.91215 16.6667 8.86069 16.6666 8.82183 16.6656C8.78546 16.6647 8.77962 16.6633 8.78525 16.6641L8.56874 18.1484ZM7.12338 16.8403C7.29524 17.5292 7.86623 18.0459 8.56874 18.1484L8.78524 16.6641C8.68489 16.6494 8.60332 16.5756 8.57876 16.4772L7.12338 16.8403ZM7.06228 16.4135C7.07637 16.5544 7.08937 16.704 7.12338 16.8403L8.57876 16.4772C8.58014 16.4827 8.57812 16.4771 8.57357 16.441C8.56871 16.4024 8.56353 16.3512 8.55484 16.2643L7.06228 16.4135ZM7.01493 15.9964C7.00963 15.98 7.0149 15.9894 7.02547 16.0701C7.03557 16.1473 7.04609 16.2516 7.06228 16.4135L8.55484 16.2643C8.52838 15.9997 8.50658 15.7346 8.4425 15.5359L7.01493 15.9964ZM6.66302 15.8506C6.80018 15.7804 6.96762 15.8497 7.01493 15.9964L8.4425 15.5359C8.11135 14.5093 6.93927 14.0238 5.97919 14.5156L6.66302 15.8506ZM6.33458 16.1121C6.4605 16.0091 6.54173 15.9427 6.60345 15.8953C6.66797 15.8457 6.67838 15.8428 6.66302 15.8506L5.97919 14.5156C5.7934 14.6107 5.59053 14.7828 5.38472 14.9512L6.33458 16.1121ZM6.32816 16.1173L6.32817 16.1173L5.39113 14.946L5.39112 14.946L6.32816 16.1173ZM5.98955 16.3707C6.10999 16.2984 6.22496 16.2018 6.33456 16.1121L5.38471 14.9512C5.31708 15.0065 5.27722 15.0391 5.24651 15.0629C5.21777 15.0852 5.21233 15.0878 5.21721 15.0848L5.98955 16.3707ZM4.04262 16.2736C4.61182 16.6979 5.38095 16.7363 5.98955 16.3707L5.21721 15.0848C5.13027 15.1371 5.02039 15.1316 4.93908 15.071L4.04262 16.2736ZM3.72506 15.982C3.82518 16.0821 3.92998 16.1897 4.04262 16.2736L4.93907 15.071C4.94364 15.0744 4.93848 15.0713 4.91211 15.0462C4.88392 15.0194 4.8475 14.9831 4.78572 14.9213L3.72506 15.982ZM3.72504 15.982L3.72506 15.982L4.78572 14.9213L4.7857 14.9213L3.72504 15.982ZM3.01773 15.2746L3.72504 15.982L4.7857 14.9213L4.07839 14.214L3.01773 15.2746ZM3.0363 15.2926L3.03632 15.2926L4.0598 14.196L4.05978 14.196L3.0363 15.2926ZM2.72608 14.9571C2.81003 15.0697 2.91758 15.1745 3.0177 15.2746L4.07837 14.214C4.01659 14.1522 3.98025 14.1158 3.95348 14.0876C3.92843 14.0612 3.92532 14.0561 3.92872 14.0606L2.72608 14.9571ZM2.62897 13.0101C2.26342 13.6187 2.30178 14.3879 2.72608 14.9571L3.92872 14.0606C3.8681 13.9793 3.86262 13.8694 3.91485 13.7825L2.62897 13.0101ZM2.88758 12.6651C2.7979 12.7747 2.70131 12.8897 2.62897 13.0101L3.91485 13.7825C3.91192 13.7874 3.91451 13.7819 3.93681 13.7532C3.96064 13.7225 3.99318 13.6826 4.04852 13.615L2.88758 12.6651ZM3.14904 12.3367C3.1569 12.3213 3.15395 12.3317 3.10437 12.3963C3.05695 12.458 2.9906 12.5392 2.88758 12.6651L4.04852 13.615C4.21689 13.4092 4.38892 13.2063 4.48408 13.0206L3.14904 12.3367ZM3.00327 11.9848C3.14993 12.0321 3.21929 12.1995 3.14904 12.3367L4.48408 13.0206C4.97588 12.0605 4.49037 10.8883 3.46372 10.5572L3.00327 11.9848ZM2.58618 11.9374C2.74806 11.9536 2.8524 11.9641 2.92957 11.9742C3.01025 11.9848 3.01969 11.9901 3.00327 11.9848L3.46373 10.5572C3.26508 10.4931 3 10.4713 2.73543 10.4449L2.58618 11.9374ZM2.56631 11.9352L2.56633 11.9352L2.75529 10.4471L2.75526 10.4471L2.56631 11.9352ZM2.15939 11.8763C2.29569 11.9103 2.44526 11.9233 2.58616 11.9374L2.73541 10.4449C2.64848 10.4362 2.59729 10.431 2.55873 10.4261C2.52265 10.4216 2.51697 10.4196 2.52249 10.4209L2.15939 11.8763ZM0.851329 10.431C0.953793 11.1335 1.47054 11.7045 2.15939 11.8763L2.52249 10.4209C2.42408 10.3964 2.35026 10.3148 2.33563 10.2145L0.851329 10.431ZM0.833008 10.0002C0.833008 10.1418 0.831055 10.2919 0.851329 10.431L2.33563 10.2145C2.33645 10.2201 2.335 10.2142 2.33407 10.1779C2.33307 10.139 2.33301 10.0876 2.33301 10.0002H0.833008ZM0.833008 8.99998V10.0002H2.33301V8.99998H0.833008ZM0.851349 8.56899C0.831053 8.70807 0.833008 8.8583 0.833008 8.99998H2.33301C2.33301 8.91256 2.33307 8.86108 2.33407 8.82219C2.33501 8.78581 2.33645 8.77996 2.33563 8.78559L0.851349 8.56899ZM2.15925 7.12377C1.47052 7.29566 0.953854 7.86657 0.851349 8.56899L2.33563 8.78559C2.35027 8.68525 2.42408 8.60369 2.52247 8.57913L2.15925 7.12377ZM2.58628 7.06264C2.4453 7.07674 2.29563 7.08974 2.15925 7.12377L2.52247 8.57913C2.51695 8.58051 2.52263 8.57849 2.55873 8.57394C2.59732 8.56907 2.64855 8.56389 2.73553 8.55519L2.58628 7.06264ZM3.0036 7.01526C3.02002 7.00996 3.01058 7.01524 2.92985 7.02581C2.85264 7.03592 2.74824 7.04644 2.58628 7.06264L2.73553 8.55519C3.00024 8.52872 3.26547 8.50691 3.46422 8.44278L3.0036 7.01526ZM3.14935 6.66339C3.21958 6.80053 3.15023 6.96794 3.0036 7.01526L3.46421 8.44278C4.49067 8.11158 4.97608 6.93969 4.48447 5.97968L3.14935 6.66339ZM2.88773 6.33475C2.99081 6.46075 3.0572 6.54202 3.10466 6.60378C3.15427 6.66834 3.15722 6.67875 3.14935 6.66339L4.48447 5.97968C4.38928 5.7938 4.21714 5.59081 4.04866 5.3849L2.88773 6.33475ZM2.8861 6.33276L2.88611 6.33277L4.05028 5.38688L4.05027 5.38687L2.8861 6.33276ZM2.93785 6.39014L2.93786 6.39014L3.99852 5.32948L3.99851 5.32948L2.93785 6.39014ZM2.62891 5.98944C2.70129 6.10997 2.79796 6.22504 2.88771 6.33474L4.04865 5.38488C3.99327 5.3172 3.9607 5.2773 3.93684 5.24655C3.91452 5.21779 3.91194 5.21235 3.91487 5.21723L2.62891 5.98944ZM2.726 4.0428C2.30185 4.61195 2.26349 5.38092 2.62891 5.98944L3.91487 5.21723C3.86267 5.1303 3.86814 5.02044 3.92874 4.93914L2.726 4.0428ZM3.01786 3.72499C2.91765 3.8252 2.81001 3.93007 2.726 4.0428L3.92874 4.93914C3.92534 4.9437 3.92845 4.93854 3.95352 4.91215C3.98031 4.88394 4.01669 4.84748 4.07852 4.78565L3.01786 3.72499ZM3.01786 3.72499L3.01786 3.72499L4.07852 4.78565L4.07852 4.78565L3.01786 3.72499ZM3.72507 3.01778L3.01786 3.72499L4.07852 4.78565L4.78573 4.07844L3.72507 3.01778ZM3.72507 3.01778L3.72507 3.01778L4.78573 4.07844L4.78573 4.07844L3.72507 3.01778ZM4.04265 2.72611C3.93001 2.81008 3.82521 2.91764 3.72507 3.01778L4.78573 4.07844C4.84752 4.01665 4.88395 3.9803 4.91214 3.95353C4.93852 3.92848 4.94367 3.92536 4.93911 3.92876L4.04265 2.72611ZM5.98958 2.62901C5.38099 2.26346 4.61186 2.30183 4.04265 2.72611L4.93911 3.92876C5.02042 3.86815 5.1303 3.86267 5.21724 3.91489L5.98958 2.62901ZM6.33467 2.88768C6.22503 2.79797 6.11003 2.70135 5.98958 2.62901L5.21724 3.91489C5.21236 3.91195 5.2178 3.91454 5.24656 3.93686C5.27728 3.9607 5.31717 3.99326 5.38482 4.04861L6.33467 2.88768ZM6.66303 3.14908C6.67838 3.15695 6.66798 3.154 6.60347 3.10442C6.54176 3.057 6.46056 2.99067 6.33467 2.88768L5.38482 4.04861C5.59056 4.21695 5.79336 4.38891 5.97901 4.48404L6.66303 3.14908ZM7.01497 3.0033C6.96768 3.15 6.8002 3.21937 6.66303 3.14908L5.97901 4.48404C6.9392 4.97603 8.11154 4.49043 8.44261 3.46359L7.01497 3.0033ZM7.06229 2.58645C7.04611 2.74823 7.0356 2.85251 7.02551 2.92964C7.01495 3.01027 7.00968 3.01971 7.01497 3.0033L8.44261 3.46359C8.50662 3.26505 8.52841 3.00012 8.55485 2.7357L7.06229 2.58645ZM7.06436 2.56804L7.06436 2.56805L8.55278 2.7541L8.55278 2.75409L7.06436 2.56804ZM7.12334 2.15989C7.08937 2.29612 7.07638 2.44562 7.06229 2.58644L8.55485 2.73569C8.56354 2.6488 8.56871 2.59764 8.57357 2.5591C8.57812 2.52304 8.58013 2.51736 8.57876 2.52288L7.12334 2.15989ZM8.5689 0.851675C7.86627 0.954096 7.29517 1.47093 7.12334 2.15989L8.57876 2.52288C8.60331 2.42445 8.68489 2.35062 8.78527 2.33599L8.5689 0.851675ZM8.99942 0.833374C8.85789 0.833374 8.70784 0.831423 8.5689 0.851675L8.78527 2.33599C8.77964 2.33681 8.78549 2.33537 8.82183 2.33443C8.86067 2.33343 8.91209 2.33337 8.99942 2.33337V0.833374ZM9.99983 0.833374H8.99942V2.33337H9.99983V0.833374ZM10.4306 0.851696C10.2916 0.831421 10.1414 0.833374 9.99983 0.833374V2.33337C10.0872 2.33337 10.1387 2.33343 10.1775 2.33443C10.2139 2.33537 10.2197 2.33681 10.2141 2.33599L10.4306 0.851696ZM11.876 2.15975C11.7041 1.47091 11.1331 0.95416 10.4306 0.851696L10.2141 2.33599C10.3145 2.35063 10.396 2.42445 10.4206 2.52286L11.876 2.15975ZM11.9163 9.50004C11.9163 10.8347 10.8344 11.9167 9.49967 11.9167V13.4167C11.6628 13.4167 13.4163 11.6632 13.4163 9.50004H11.9163ZM9.49967 7.08337C10.8344 7.08337 11.9163 8.16535 11.9163 9.50004H13.4163C13.4163 7.33693 11.6628 5.58337 9.49967 5.58337V7.08337ZM7.08301 9.50004C7.08301 8.16535 8.16499 7.08337 9.49967 7.08337V5.58337C7.33656 5.58337 5.58301 7.33693 5.58301 9.50004H7.08301ZM9.49967 11.9167C8.16499 11.9167 7.08301 10.8347 7.08301 9.50004H5.58301C5.58301 11.6632 7.33656 13.4167 9.49967 13.4167V11.9167Z" fill="white"/>
</svg>
