<svg width="50" height="34" viewBox="0 0 50 34" fill="none" xmlns="http://www.w3.org/2000/svg">
<rect width="49.5833" height="34" rx="4.25" fill="white"/>
<rect x="0.5" y="0.5" width="48.5833" height="33" rx="3.75" stroke="#CCD2E3" stroke-opacity="0.31"/>
<path fill-rule="evenodd" clip-rule="evenodd" d="M21.3124 26.1347L21.6343 24.0818L20.9172 24.065H17.4932L19.8728 8.91567C19.8802 8.86979 19.9042 8.82721 19.9392 8.79691C19.9743 8.76662 20.0192 8.75 20.066 8.75H25.8396C27.7564 8.75 29.0792 9.1504 29.7697 9.94082C30.0934 10.3116 30.2996 10.6992 30.3995 11.1256C30.5041 11.5731 30.5059 12.1076 30.4038 12.7597L30.3964 12.8072V13.225L30.7202 13.4092C30.9927 13.5545 31.2095 13.7207 31.3757 13.9109C31.6526 14.228 31.8317 14.631 31.9074 15.1086C31.9857 15.5999 31.9598 16.1847 31.8317 16.8467C31.6839 17.608 31.4451 18.2712 31.1226 18.8137C30.826 19.3136 30.4481 19.7284 29.9993 20.0497C29.5709 20.3551 29.0619 20.5869 28.4864 20.7352C27.9287 20.881 27.2928 20.9545 26.5954 20.9545H26.1461C25.8249 20.9545 25.5128 21.0707 25.2678 21.2789C25.0222 21.4915 24.8597 21.782 24.8099 22.0997L24.776 22.2845L24.2072 25.903L24.1815 26.0358C24.1746 26.0779 24.1629 26.0988 24.1456 26.113C24.1303 26.126 24.1082 26.1347 24.0867 26.1347H21.3124Z" fill="#28356A"/>
<path fill-rule="evenodd" clip-rule="evenodd" d="M31.0268 12.8555C31.0097 12.9661 30.9899 13.0791 30.9678 13.1953C30.2065 17.1204 27.6015 18.4763 24.2747 18.4763H22.5807C22.1739 18.4763 21.8309 18.7729 21.7677 19.1759L20.6547 26.2638C20.6135 26.5285 20.8166 26.7669 21.0825 26.7669H24.0869C24.4426 26.7669 24.7448 26.5074 24.8009 26.1551L24.8304 26.0019L25.396 22.3976L25.4324 22.1999C25.4878 21.8464 25.7907 21.5867 26.1464 21.5867H26.5957C29.5065 21.5867 31.7852 20.4003 32.4512 16.9665C32.7293 15.5321 32.5854 14.3343 31.8492 13.492C31.6264 13.238 31.3501 13.0272 31.0268 12.8555Z" fill="#298FC2"/>
<path fill-rule="evenodd" clip-rule="evenodd" d="M30.2303 12.5371C30.114 12.503 29.994 12.4722 29.8709 12.4443C29.7471 12.4171 29.6204 12.393 29.4898 12.3719C29.0331 12.2978 28.5326 12.2627 27.9966 12.2627H23.4713C23.3598 12.2627 23.2539 12.288 23.1593 12.3337C22.9505 12.4344 22.7955 12.6328 22.7579 12.8757L21.7952 18.9979L21.7676 19.1763C21.8309 18.7733 22.1738 18.4768 22.5807 18.4768H24.2746C27.6014 18.4768 30.2064 17.1201 30.9677 13.1958C30.9905 13.0796 31.0096 12.9666 31.0267 12.8559C30.8341 12.7533 30.6255 12.6655 30.4009 12.5907C30.3453 12.5722 30.2881 12.5544 30.2303 12.5371Z" fill="#22284F"/>
<path fill-rule="evenodd" clip-rule="evenodd" d="M22.7579 12.8753C22.7955 12.6324 22.9505 12.434 23.1593 12.334C23.2546 12.2881 23.3598 12.2628 23.4714 12.2628H27.9966C28.5326 12.2628 29.0332 12.2981 29.4899 12.3722C29.6204 12.3932 29.7471 12.4174 29.8709 12.4446C29.994 12.4723 30.114 12.5033 30.2304 12.5372C30.2881 12.5545 30.3454 12.5725 30.4014 12.5903C30.6261 12.6651 30.8348 12.7536 31.0274 12.8555C31.254 11.405 31.0255 10.4175 30.2445 9.52318C29.3833 8.53854 27.8292 8.11719 25.8405 8.11719H20.0668C19.6606 8.11719 19.314 8.41372 19.2513 8.81741L16.8465 24.1225C16.7991 24.4253 17.0317 24.6984 17.3358 24.6984H20.9002L22.7579 12.8753Z" fill="#28356A"/>
</svg>
