<svg width="21" height="21" viewBox="0 0 21 21" fill="none" xmlns="http://www.w3.org/2000/svg">
<path fill-rule="evenodd" clip-rule="evenodd" d="M15.5478 7.33408H19.25C19.25 4.36152 17.4689 2.625 14.4511 2.625H6.54889C3.53111 2.625 1.75 4.36152 1.75 7.29616V13.7038C1.75 16.6385 3.53111 18.375 6.54889 18.375H14.4511C17.4689 18.375 19.25 16.6385 19.25 13.7038V13.4309H15.5478C13.8296 13.4309 12.4367 12.0728 12.4367 10.3976C12.4367 8.72243 13.8296 7.36441 15.5478 7.36441V7.33408ZM15.5478 8.63838H18.5967C18.9575 8.63838 19.25 8.92357 19.25 9.27536V11.4896C19.2458 11.8397 18.9557 12.1225 18.5967 12.1266H15.6178C14.7479 12.138 13.9873 11.5573 13.79 10.7313C13.6912 10.2185 13.8299 9.68939 14.1689 9.28571C14.508 8.88203 15.0127 8.64509 15.5478 8.63838ZM15.68 10.9664H15.9678C16.3372 10.9664 16.6367 10.6744 16.6367 10.3142C16.6367 9.95408 16.3372 9.6621 15.9678 9.6621H15.68C15.5033 9.66007 15.3332 9.72709 15.2075 9.84819C15.0818 9.96929 15.0111 10.1344 15.0111 10.3067C15.0111 10.6681 15.3093 10.9622 15.68 10.9664ZM5.89556 7.3341H10.8344C11.2039 7.3341 11.5033 7.04212 11.5033 6.68195C11.5033 6.32178 11.2039 6.02981 10.8344 6.02981H5.89556C5.52916 6.02979 5.23093 6.31717 5.22667 6.67437C5.22664 7.03579 5.52488 7.32994 5.89556 7.3341Z" fill="#B1B5C4"/>
</svg>
