<svg width="36" height="22" viewBox="0 0 36 22" fill="none" xmlns="http://www.w3.org/2000/svg">
<path d="M1.92049 0C0.859832 0 0 0.89543 0 2V5H35.5291V2C35.5291 0.895431 34.6692 0 33.6086 0H1.92049Z" fill="white"/>
<path fill-rule="evenodd" clip-rule="evenodd" d="M35.5291 10H0V20C0 21.1046 0.859833 22 1.92049 22H33.6086C34.6692 22 35.5291 21.1046 35.5291 20V10ZM2.88073 16.5C2.88073 15.6716 3.52561 15 4.3211 15H5.28135C6.07684 15 6.72171 15.6716 6.72171 16.5C6.72171 17.3284 6.07684 18 5.28135 18H4.3211C3.52561 18 2.88073 17.3284 2.88073 16.5ZM10.0826 15C9.28708 15 8.6422 15.6716 8.6422 16.5C8.6422 17.3284 9.28708 18 10.0826 18H13.9235C14.719 18 15.3639 17.3284 15.3639 16.5C15.3639 15.6716 14.719 15 13.9235 15H10.0826Z" fill="white"/>
</svg>
