<svg width="16" height="17" viewBox="0 0 16 17" fill="none" xmlns="http://www.w3.org/2000/svg">
<mask id="path-1-inside-1_0_1211" fill="white">
<path d="M16 6.375L10.3349 0.666055C9.46467 -0.222018 6.53115 -0.222018 5.66076 0.666055L0 6.375V8.3787V15.407C0 16.2862 0.697922 17 1.55945 17H5.00808C5.37704 17 5.67641 16.6942 5.67641 16.3173V11.3106C5.67641 10.9328 5.97578 10.6278 6.34475 10.6278H9.65079C10.0198 10.6278 10.3191 10.9328 10.3191 11.3106V16.3173C10.3191 16.6942 10.6185 17 10.9875 17H14.4405C15.3021 17 16 16.2862 16 15.407V8.38325V6.375ZM14.6633 15.4069C14.6633 15.4665 14.6398 15.5251 14.598 15.5678C14.5562 15.6105 14.4997 15.6345 14.4405 15.6345H11.6557V11.3105C11.6557 10.1788 10.7577 9.26232 9.65073 9.26232H6.34469C5.23774 9.26232 4.33968 10.1788 4.33968 11.3105V15.6345H1.55494C1.43223 15.6345 1.33216 15.5322 1.33216 15.4069V7.01773L6.60579 1.63144C6.95822 1.28652 9.03724 1.28652 9.38968 1.63144L14.6633 7.01773L14.6633 15.4069Z"/>
</mask>
<path d="M16 6.375H17.5V5.75706L17.0647 5.31844L16 6.375ZM10.3349 0.666055L9.26349 1.71591L9.27015 1.72262L10.3349 0.666055ZM5.66076 0.666055L6.72592 1.72223L6.73202 1.716L5.66076 0.666055ZM0 6.375L-1.06515 5.31884L-1.5 5.7574V6.375H0ZM14.6633 15.4069L13.1633 15.4069V15.4069H14.6633ZM11.6557 15.6345H10.1557V17.1345H11.6557V15.6345ZM4.33968 15.6345V17.1345H5.83968V15.6345H4.33968ZM1.33216 7.01773L0.260347 5.96834L-0.167843 6.40567V7.01773H1.33216ZM6.60579 1.63144L5.55663 0.559399L5.54518 0.570601L5.53398 0.582045L6.60579 1.63144ZM9.38968 1.63144L10.4615 0.582045L10.4503 0.570601L10.4388 0.559399L9.38968 1.63144ZM14.6633 7.01773L16.1633 7.01774L16.1633 6.40568L15.7351 5.96834L14.6633 7.01773ZM17.0647 5.31844L11.3996 -0.39051L9.27015 1.72262L14.9353 7.43156L17.0647 5.31844ZM11.4063 -0.383781C10.9209 -0.879076 10.28 -1.13871 9.75096 -1.28159C9.19075 -1.43291 8.58092 -1.5 7.99789 -1.5C7.41486 -1.5 6.80502 -1.43291 6.2448 -1.2816C5.71577 -1.13872 5.07484 -0.879103 4.58949 -0.383891L6.73202 1.716C6.68187 1.76718 6.73403 1.69376 7.02703 1.61463C7.28883 1.54392 7.62996 1.5 7.99789 1.5C8.36582 1.5 8.70693 1.54392 8.96869 1.61462C9.26167 1.69375 9.31374 1.76715 9.26351 1.71589L11.4063 -0.383781ZM4.59561 -0.3901L-1.06515 5.31884L1.06515 7.43116L6.7259 1.72221L4.59561 -0.3901ZM-1.5 6.375V8.3787H1.5V6.375H-1.5ZM-1.5 8.3787V15.407H1.5V8.3787H-1.5ZM-1.5 15.407C-1.5 17.0837 -0.161013 18.5 1.55945 18.5V15.5C1.55319 15.5 1.55028 15.4991 1.54754 15.4979C1.5437 15.4962 1.53674 15.4923 1.52875 15.4841C1.51291 15.4679 1.5 15.4431 1.5 15.407H-1.5ZM1.55945 18.5H5.00808V15.5H1.55945V18.5ZM5.00808 18.5C6.23544 18.5 7.17641 17.4923 7.17641 16.3173H4.17641C4.17641 15.896 4.51864 15.5 5.00808 15.5V18.5ZM7.17641 16.3173V11.3106H4.17641V16.3173H7.17641ZM7.17641 11.3106C7.17641 11.7322 6.8329 12.1278 6.34475 12.1278V9.12784C5.11867 9.12784 4.17641 10.1333 4.17641 11.3106H7.17641ZM6.34475 12.1278H9.65079V9.12784H6.34475V12.1278ZM9.65079 12.1278C9.16265 12.1278 8.81913 11.7322 8.81913 11.3106H11.8191C11.8191 10.1333 10.8769 9.12784 9.65079 9.12784V12.1278ZM8.81913 11.3106V16.3173H11.8191V11.3106H8.81913ZM8.81913 16.3173C8.81913 17.4923 9.7601 18.5 10.9875 18.5V15.5C11.4769 15.5 11.8191 15.896 11.8191 16.3173H8.81913ZM10.9875 18.5H14.4405V15.5H10.9875V18.5ZM14.4405 18.5C16.161 18.5 17.5 17.0837 17.5 15.407H14.5C14.5 15.4431 14.4871 15.4679 14.4712 15.4841C14.4633 15.4923 14.4563 15.4962 14.4525 15.4979C14.4497 15.4991 14.4468 15.5 14.4405 15.5V18.5ZM17.5 15.407V8.38325H14.5V15.407H17.5ZM17.5 8.38325V6.375H14.5V8.38325H17.5ZM13.1633 15.4069C13.1633 15.0811 13.2886 14.7611 13.5261 14.5185L15.6699 16.6171C15.9909 16.2892 16.1633 15.8518 16.1633 15.4069H13.1633ZM13.5261 14.5185C13.7625 14.277 14.0906 14.1345 14.4405 14.1345V17.1345C14.9087 17.1345 15.3499 16.9439 15.6699 16.6171L13.5261 14.5185ZM14.4405 14.1345H11.6557V17.1345H14.4405V14.1345ZM13.1557 15.6345V11.3105H10.1557V15.6345H13.1557ZM13.1557 11.3105C13.1557 9.38028 11.6157 7.76232 9.65073 7.76232V10.7623C9.8997 10.7623 10.1557 10.9774 10.1557 11.3105H13.1557ZM9.65073 7.76232H6.34469V10.7623H9.65073V7.76232ZM6.34469 7.76232C4.37976 7.76232 2.83968 9.38028 2.83968 11.3105H5.83968C5.83968 10.9774 6.09572 10.7623 6.34469 10.7623V7.76232ZM2.83968 11.3105V15.6345H5.83968V11.3105H2.83968ZM4.33968 14.1345H1.55494V17.1345H4.33968V14.1345ZM1.55494 14.1345C2.29063 14.1345 2.83216 14.7341 2.83216 15.4069H-0.167843C-0.167843 16.3304 0.573835 17.1345 1.55494 17.1345V14.1345ZM2.83216 15.4069V7.01773H-0.167843V15.4069H2.83216ZM2.40397 8.06712L7.6776 2.68083L5.53398 0.582045L0.260347 5.96834L2.40397 8.06712ZM7.65495 2.70347C7.55051 2.80568 7.45571 2.86253 7.40807 2.88845C7.35699 2.91624 7.32181 2.92905 7.31308 2.93214C7.29841 2.93734 7.32119 2.9283 7.39484 2.9156C7.53971 2.89061 7.75504 2.87275 7.99773 2.87275C8.24042 2.87275 8.45575 2.89061 8.60063 2.9156C8.67427 2.9283 8.69705 2.93734 8.68238 2.93214C8.67365 2.92905 8.63847 2.91624 8.58739 2.88845C8.53975 2.86253 8.44495 2.80568 8.34052 2.70347L10.4388 0.559399C10.1639 0.290364 9.85108 0.163482 9.68427 0.104381C9.48707 0.0345121 9.28685 -0.010341 9.11052 -0.0407537C8.75544 -0.101995 8.36291 -0.12725 7.99773 -0.12725C7.63256 -0.12725 7.24002 -0.101995 6.88494 -0.0407537C6.70861 -0.010341 6.5084 0.0345121 6.3112 0.104381C6.14439 0.163482 5.83153 0.290364 5.55663 0.559399L7.65495 2.70347ZM8.31787 2.68083L13.5915 8.06712L15.7351 5.96834L10.4615 0.582045L8.31787 2.68083ZM13.1633 7.01772L13.1633 15.4069L16.1633 15.4069L16.1633 7.01774L13.1633 7.01772Z" fill="#777E91" mask="url(#path-1-inside-1_0_1211)"/>
</svg>
