<svg width="270" height="24" viewBox="0 0 270 24" fill="none" xmlns="http://www.w3.org/2000/svg">
<path d="M21.0169 8.25664L13.5755 0.862648C12.4324 -0.287549 8.57904 -0.287549 7.43573 0.862648L0 8.25664V10.8518V19.9545C0 21.0932 0.916761 22.0177 2.04843 22.0177H6.57839C7.06305 22.0177 7.45629 21.6216 7.45629 21.1335V14.649C7.45629 14.1597 7.84953 13.7648 8.33419 13.7648H12.6769C13.1615 13.7648 13.5548 14.1597 13.5548 14.649V21.1335C13.5548 21.6216 13.948 22.0177 14.4327 22.0177H18.9685C20.1002 22.0177 21.0169 21.0932 21.0169 19.9545V10.8577V8.25664ZM19.261 19.9544C19.261 20.0315 19.2302 20.1075 19.1753 20.1628C19.1204 20.2181 19.0461 20.2491 18.9684 20.2491H15.3105V14.6489C15.3105 13.1832 14.1308 11.9962 12.6768 11.9962H8.33411C6.88007 11.9962 5.70041 13.1832 5.70041 14.6489V20.2491H2.0425C1.88132 20.2491 1.74986 20.1167 1.74986 19.9544V9.08908L8.67708 2.11297C9.14002 1.66625 11.8709 1.66625 12.3339 2.11297L19.2611 9.08908L19.261 19.9544Z" fill="#353945"/>
<path d="M105.515 20.8416L101.419 16.7411C104.617 12.6117 104.281 6.73076 100.604 3.02561C98.6685 1.07478 96.0858 0 93.3368 0C90.5865 0 88.005 1.07484 86.0692 3.02561C84.1334 4.97643 83.0668 7.57914 83.0668 10.3494C83.0668 13.121 84.1334 15.7225 86.0692 17.6732C88.0051 19.624 90.5878 20.6988 93.3368 20.6988C95.6103 20.6988 97.8554 19.9355 99.6508 18.4928L103.72 22.6507C103.972 22.9047 104.281 23.0185 104.618 23.0185C104.954 23.0185 105.263 22.8771 105.515 22.6507C106.021 22.1701 106.021 21.3505 105.515 20.8412L105.515 20.8416ZM101.082 10.3494C101.082 12.4416 100.269 14.3936 98.8089 15.8639C97.3499 17.3342 95.3856 18.1549 93.3367 18.1549C91.2879 18.1549 89.3235 17.3353 87.8646 15.8639C86.4056 14.3936 85.5911 12.4141 85.5911 10.3494C85.5911 8.25717 86.4044 6.30516 87.8646 4.83492C89.3236 3.36462 91.2879 2.54384 93.3367 2.54384C95.4129 2.54384 97.3499 3.36349 98.8089 4.83492C100.268 6.30632 101.082 8.25728 101.082 10.3494Z" fill="white"/>
<path d="M173.678 5.21253V4.69128C173.678 2.10344 175.78 0 178.369 0C180.96 0 183.061 2.10175 183.061 4.69128V5.21253H184.743C186.143 5.21253 187.362 6.31042 187.504 7.7059L188.781 20.2304C188.931 21.7031 187.82 22.9351 186.342 22.9351H170.397C168.916 22.9351 167.807 21.7074 167.958 20.2304L169.234 7.7059C169.376 6.31441 170.598 5.21253 171.996 5.21253H173.678ZM173.678 7.29754H171.996C171.667 7.29754 171.342 7.5906 171.309 7.91729L170.032 20.4418C170.007 20.6904 170.151 20.8501 170.397 20.8501H186.342C186.584 20.8501 186.731 20.6866 186.706 20.4418L185.43 7.91729C185.396 7.58717 185.075 7.29754 184.743 7.29754H183.061V9.38255C183.061 9.95831 182.594 10.4251 182.018 10.4251C181.442 10.4251 180.976 9.95831 180.976 9.38255V7.29754H175.763V9.38255C175.763 9.95831 175.296 10.4251 174.721 10.4251C174.145 10.4251 173.678 9.95831 173.678 9.38255V7.29754ZM180.976 5.21253V4.25022C180.976 3.05505 179.808 2.08501 178.369 2.08501C176.931 2.08501 175.763 3.05583 175.763 4.25022V5.21253H180.976Z" fill="#353945"/>
<path fill-rule="evenodd" clip-rule="evenodd" d="M270 18.9075C270 22.7559 264.534 23.2008 260.423 23.2008L260.129 23.2006C257.51 23.1944 250.844 23.0348 250.844 18.8842C250.844 15.1143 256.091 14.6104 260.17 14.5915L260.718 14.5911C263.336 14.5973 270 14.7569 270 18.9075ZM260.423 16.3423C255.271 16.3423 252.658 17.197 252.658 18.8842C252.658 20.5865 255.271 21.4494 260.423 21.4494C265.575 21.4494 268.186 20.5947 268.186 18.9075C268.186 17.2051 265.575 16.3423 260.423 16.3423ZM260.423 0C263.964 0 266.844 2.78124 266.844 6.19999C266.844 9.61874 263.964 12.3988 260.423 12.3988H260.385C256.851 12.3883 253.989 9.6059 254.001 6.19649C254.001 2.78124 256.881 0 260.423 0ZM260.423 1.66734C257.834 1.66734 255.728 3.70014 255.728 6.19999C255.719 8.69166 257.81 10.7233 260.388 10.7326L260.423 11.5663V10.7326C263.011 10.7326 265.117 8.69867 265.117 6.19999C265.117 3.70014 263.011 1.66734 260.423 1.66734Z" fill="#353945"/>
</svg>
