<svg width="49" height="34" viewBox="0 0 49 34" fill="none" xmlns="http://www.w3.org/2000/svg">
<rect width="49" height="33.6" rx="4.2" fill="white"/>
<rect x="0.5" y="0.5" width="48" height="32.6" rx="3.7" stroke="#CCD2E3" stroke-opacity="0.31"/>
<path fill-rule="evenodd" clip-rule="evenodd" d="M14.8752 22.7619H11.9067L9.68074 14.2697C9.57509 13.8791 9.35075 13.5337 9.02076 13.371C8.19724 12.9619 7.28977 12.6364 6.2998 12.4722V12.1452H11.0817C11.7417 12.1452 12.2367 12.6364 12.3192 13.2068L13.4742 19.3325L16.4412 12.1452H19.3271L14.8752 22.7619ZM20.9771 22.7619H18.1737L20.4821 12.1452H23.2856L20.9771 22.7619ZM26.9124 15.0864C26.9949 14.5146 27.4899 14.1876 28.0674 14.1876C28.9749 14.1055 29.9634 14.2697 30.7884 14.6773L31.2833 12.3915C30.4584 12.0646 29.5509 11.9004 28.7274 11.9004C26.0064 11.9004 24.0265 13.371 24.0265 15.4119C24.0265 16.9646 25.4289 17.7798 26.4189 18.271C27.4899 18.7607 27.9024 19.0876 27.8199 19.5774C27.8199 20.3119 26.9949 20.6389 26.1714 20.6389C25.1814 20.6389 24.1915 20.394 23.2855 19.985L22.7905 22.2722C23.7804 22.6799 24.8515 22.844 25.8414 22.844C28.8924 22.9247 30.7884 21.4556 30.7884 19.2504C30.7884 16.4735 26.9124 16.3107 26.9124 15.0864ZM40.5998 22.7619L38.3739 12.1452H35.9829C35.4879 12.1452 34.9929 12.4722 34.8279 12.9619L30.706 22.7619H33.5919L34.168 21.2107H37.7139L38.0439 22.7619H40.5998ZM36.3954 15.0043L37.2189 19.0056H34.9104L36.3954 15.0043Z" fill="#172B85"/>
</svg>
