<svg width="19" height="19" viewBox="0 0 19 19" fill="none" xmlns="http://www.w3.org/2000/svg">
<path d="M11.1908 2.6613L10.4445 2.73593V2.73593L11.1908 2.6613ZM11.1483 2.34143L11.876 2.15988L11.876 2.15987L11.1483 2.34143ZM11.2706 3.23399L10.5568 3.46421V3.46421L11.2706 3.23399ZM12.6783 3.81705L13.0202 4.48457L13.0202 4.48456L12.6783 3.81705ZM13.1397 3.46856L13.6146 4.04903V4.04903L13.1397 3.46856ZM13.3959 3.27244L13.7821 3.91537L13.7821 3.91537L13.3959 3.27244ZM14.5085 3.32793L14.0602 3.92924L14.5085 3.32793ZM14.7439 3.54857L14.2136 4.0789L14.2136 4.0789L14.7439 3.54857ZM15.4512 4.2559L14.9209 4.78623L14.9209 4.78623L15.4512 4.2559ZM15.6719 4.49136L16.2732 4.04312L16.2732 4.04312L15.6719 4.49136ZM15.7274 5.60391L15.0844 5.21773L15.0844 5.21774L15.7274 5.60391ZM15.5312 5.86016L14.9507 5.3852L14.9456 5.39164L15.5312 5.86016ZM15.5312 5.86017L16.1117 6.33512L16.1169 6.32869L15.5312 5.86017ZM15.1827 6.32158L14.5152 5.97965L14.5152 5.97966L15.1827 6.32158ZM15.7658 7.7292L15.996 7.01541H15.996L15.7658 7.7292ZM16.3385 7.80905L16.4618 7.06925L16.4376 7.06521L16.4131 7.06277L16.3385 7.80905ZM16.3385 7.80905L16.2152 8.54884L16.2395 8.55288L16.2639 8.55533L16.3385 7.80905ZM16.6584 7.85156L16.84 7.12387L16.84 7.12387L16.6584 7.85156ZM17.4059 8.67748L18.148 8.56923V8.56923L17.4059 8.67748ZM17.4059 10.3228L18.148 10.431V10.431L17.4059 10.3228ZM16.6583 11.1488L16.4768 10.4211L16.4768 10.4211L16.6583 11.1488ZM16.3386 11.1913L16.264 10.4449L16.2558 10.4459L16.3386 11.1913ZM16.3386 11.1913L16.4132 11.9376L16.4214 11.9367L16.3386 11.1913ZM15.7662 11.271L15.9964 11.9849H15.9964L15.7662 11.271ZM15.1831 12.6789L14.5156 13.0209V13.0209L15.1831 12.6789ZM15.5314 13.1399L16.1118 12.665L15.5314 13.1399ZM15.7274 13.396L16.3702 13.0097L16.3702 13.0097L15.7274 13.396ZM15.6719 14.5087L16.2731 14.957L16.2731 14.957L15.6719 14.5087ZM14.5085 15.672L14.0603 15.0707L14.0602 15.0707L14.5085 15.672ZM13.3959 15.7275L13.7821 15.0846V15.0846L13.3959 15.7275ZM13.1397 15.5314L13.6147 14.9509L13.6082 14.9458L13.1397 15.5314ZM13.1397 15.5314L12.6647 16.1119L12.6712 16.1171L13.1397 15.5314ZM12.6783 15.1829L12.3364 15.8504L12.3364 15.8504L12.6783 15.1829ZM11.2707 15.766L11.9845 15.9962L11.9845 15.9962L11.2707 15.766ZM11.1908 16.3388L11.935 16.4318L11.9362 16.4226L11.9371 16.4134L11.1908 16.3388ZM11.1908 16.3388L10.4466 16.2458L10.4455 16.255L10.4445 16.2642L11.1908 16.3388ZM11.1483 16.659L10.4206 16.4774V16.4774L11.1483 16.659ZM10.3224 17.4063L10.4307 18.1485H10.4308L10.3224 17.4063ZM8.67699 17.4064L8.78525 16.6642H8.78524L8.67699 17.4064ZM7.85107 16.6589L8.57876 16.4773L7.85107 16.6589ZM7.80856 16.339L8.55484 16.2644V16.2644L7.80856 16.339ZM7.72871 15.7663L8.4425 15.536L8.4425 15.536L7.72871 15.7663ZM6.32111 15.1832L6.66302 15.8508L6.66302 15.8508L6.32111 15.1832ZM5.85965 15.5318L6.3282 16.1174L6.33458 16.1122L5.85965 15.5318ZM5.85964 15.5318L5.39109 14.9461L5.38471 14.9513L5.85964 15.5318ZM5.60338 15.7279L5.98955 16.3708L5.98955 16.3708L5.60338 15.7279ZM4.49085 15.6724L4.93908 15.0711L4.93907 15.0711L4.49085 15.6724ZM4.25539 15.4518L3.72506 15.9821L3.72506 15.9821L4.25539 15.4518ZM4.25537 15.4517L3.72504 15.9821L4.25537 15.4517ZM3.54806 14.7444L4.07839 14.2141L4.06925 14.205L4.0598 14.1961L3.54806 14.7444ZM3.54804 14.7444L3.0177 15.2747L3.02684 15.2839L3.0363 15.2927L3.54804 14.7444ZM3.3274 14.509L2.72608 14.9572L2.72608 14.9572L3.3274 14.509ZM3.27191 13.3964L2.62897 13.0102L2.62897 13.0103L3.27191 13.3964ZM3.46805 13.1402L4.04852 13.6151L4.04852 13.6151L3.46805 13.1402ZM3.81656 12.6787L4.48408 13.0207H4.48408L3.81656 12.6787ZM3.2335 11.2711L3.00327 11.9849L3.00327 11.9849L3.2335 11.2711ZM2.66081 11.1913L2.56633 11.9353L2.57624 11.9366L2.58618 11.9376L2.66081 11.1913ZM2.66079 11.1913L2.75526 10.4472L2.74535 10.446L2.73541 10.445L2.66079 11.1913ZM2.34094 11.1488L2.15939 11.8765H2.15939L2.34094 11.1488ZM1.59348 10.3228L0.851329 10.4311V10.4311L1.59348 10.3228ZM1.59349 8.67741L2.33563 8.78572L2.33563 8.78572L1.59349 8.67741ZM2.34086 7.85158L2.15925 7.1239H2.15925L2.34086 7.85158ZM2.66091 7.80904L2.73553 8.55532H2.73553L2.66091 7.80904ZM3.23391 7.72914L3.0036 7.01538H3.0036L3.23391 7.72914ZM3.81691 6.32165L4.48447 5.9798L3.81691 6.32165ZM3.4682 5.85995L2.88611 6.33289L2.88773 6.33487L3.4682 5.85995ZM3.46819 5.85994L4.05027 5.38699L4.02587 5.35696L3.99852 5.32961L3.46819 5.85994ZM3.46818 5.85993L2.88771 6.33486L2.9114 6.36381L2.93785 6.39026L3.46818 5.85993ZM3.27189 5.60346L3.91487 5.21735L3.91487 5.21735L3.27189 5.60346ZM3.32737 4.49109L2.726 4.04293L2.726 4.04293L3.32737 4.49109ZM3.54819 4.25544L3.01786 3.72511L3.01786 3.72511L3.54819 4.25544ZM4.2554 3.54823L3.72507 3.0179L3.72507 3.0179L4.2554 3.54823ZM4.49088 3.32756L4.04265 2.72623L4.04265 2.72623L4.49088 3.32756ZM5.60341 3.27207L5.98958 2.62913L5.98958 2.62913L5.60341 3.27207ZM5.85975 3.46827L5.38482 4.04873L5.38482 4.04873L5.85975 3.46827ZM6.32102 3.81668L5.97901 4.48416L5.97901 4.48416L6.32102 3.81668ZM7.72879 3.23357L7.01497 3.00342V3.00343L7.72879 3.23357ZM7.80857 2.6612L7.06436 2.56817L7.06321 2.57736L7.06229 2.58657L7.80857 2.6612ZM7.80857 2.66118L8.55278 2.75421L8.55393 2.74502L8.55485 2.73581L7.80857 2.66118ZM7.85105 2.34151L8.57876 2.523L8.57876 2.523L7.85105 2.34151ZM8.67709 1.59395L8.78527 2.33611L8.78527 2.33611L8.67709 1.59395ZM10.3223 1.59397L10.4306 0.851818V0.851818L10.3223 1.59397ZM11.9371 2.58668C11.923 2.44577 11.91 2.29618 11.876 2.15988L10.4206 2.52297C10.4192 2.51746 10.4212 2.52314 10.4258 2.55922C10.4306 2.59779 10.4358 2.64899 10.4445 2.73593L11.9371 2.58668ZM11.9844 3.00376C11.9897 3.02018 11.9844 3.01074 11.9739 2.93006C11.9638 2.85289 11.9533 2.74855 11.9371 2.58667L10.4445 2.73593C10.471 3.00049 10.4928 3.26557 10.5568 3.46421L11.9844 3.00376ZM12.3363 3.14953C12.1992 3.21979 12.0317 3.15043 11.9844 3.00376L10.5568 3.46421C10.888 4.49086 12.0601 4.97637 13.0202 4.48457L12.3363 3.14953ZM12.6647 2.88809C12.5388 2.99111 12.4576 3.05745 12.3959 3.10487C12.3314 3.15445 12.321 3.15739 12.3363 3.14953L13.0202 4.48456C13.206 4.38941 13.4088 4.21739 13.6146 4.04903L12.6647 2.88809ZM13.0097 2.62951C12.8893 2.70184 12.7743 2.79842 12.6647 2.88809L13.6146 4.04903C13.6822 3.9937 13.7221 3.96116 13.7528 3.93733C13.7815 3.91503 13.7869 3.91244 13.7821 3.91537L13.0097 2.62951ZM14.9567 2.72661C14.3875 2.3023 13.6183 2.26394 13.0097 2.62951L13.7821 3.91537C13.869 3.86315 13.9789 3.86863 14.0602 3.92924L14.9567 2.72661ZM15.2742 3.01824C15.1741 2.91811 15.0693 2.81057 14.9567 2.72661L14.0602 3.92924C14.0557 3.92585 14.0608 3.92896 14.0872 3.95401C14.1154 3.98078 14.1518 4.01712 14.2136 4.0789L15.2742 3.01824ZM15.9816 3.72557L15.2742 3.01824L14.2136 4.0789L14.9209 4.78623L15.9816 3.72557ZM16.2732 4.04312C16.1892 3.93049 16.0817 3.8257 15.9816 3.72557L14.9209 4.78623C14.9827 4.84801 15.019 4.88444 15.0458 4.91263C15.0709 4.939 15.074 4.94416 15.0706 4.9396L16.2732 4.04312ZM16.3703 5.99009C16.7359 5.38149 16.6975 4.61233 16.2732 4.04312L15.0706 4.9396C15.1312 5.02091 15.1367 5.13079 15.0844 5.21773L16.3703 5.99009ZM16.1117 6.33509C16.2014 6.22549 16.298 6.11052 16.3703 5.99009L15.0844 5.21774C15.0874 5.21286 15.0848 5.2183 15.0625 5.24703C15.0386 5.27774 15.0061 5.31761 14.9508 5.38523L16.1117 6.33509ZM16.1169 6.32869L16.1169 6.32868L14.9456 5.39164L14.9456 5.39165L16.1169 6.32869ZM15.8503 6.66351C15.8424 6.67886 15.8453 6.66846 15.8949 6.60394C15.9423 6.54222 16.0087 6.46101 16.1117 6.3351L14.9508 5.38524C14.7824 5.59103 14.6104 5.79388 14.5152 5.97965L15.8503 6.66351ZM15.996 7.01541C15.8494 6.96811 15.78 6.80066 15.8503 6.66351L14.5152 5.97966C14.0234 6.93975 14.5089 8.11185 15.5356 8.44299L15.996 7.01541ZM16.4131 7.06277C16.2513 7.04658 16.1469 7.03606 16.0697 7.02596C15.989 7.01539 15.9796 7.01012 15.996 7.01541L15.5356 8.44299C15.7342 8.50706 15.9993 8.52887 16.2639 8.55532L16.4131 7.06277ZM16.4618 7.06925L16.4618 7.06925L16.2152 8.54884L16.2152 8.54884L16.4618 7.06925ZM16.84 7.12387C16.7037 7.08986 16.5541 7.07686 16.4131 7.06277L16.2639 8.55533C16.3508 8.56402 16.402 8.5692 16.4406 8.57406C16.4767 8.57861 16.4824 8.58063 16.4769 8.57925L16.84 7.12387ZM18.148 8.56923C18.0455 7.86672 17.5288 7.29573 16.84 7.12387L16.4769 8.57925C16.5753 8.60381 16.6491 8.68537 16.6637 8.78573L18.148 8.56923ZM18.1663 9.00002C18.1663 8.85841 18.1683 8.70825 18.148 8.56923L16.6637 8.78573C16.6629 8.7801 16.6643 8.78595 16.6653 8.82231C16.6663 8.86118 16.6663 8.91264 16.6663 9.00002H18.1663ZM18.1663 10.0004V9.00002H16.6663V10.0004H18.1663ZM18.148 10.431C18.1683 10.292 18.1663 10.1419 18.1663 10.0004H16.6663C16.6663 10.0877 16.6663 10.1392 16.6653 10.178C16.6643 10.2144 16.6629 10.2202 16.6637 10.2146L18.148 10.431ZM16.8399 11.8765C17.5288 11.7047 18.0456 11.1336 18.148 10.431L16.6637 10.2146C16.6491 10.3149 16.5753 10.3965 16.4768 10.4211L16.8399 11.8765ZM16.4132 11.9375C16.5541 11.9235 16.7036 11.9105 16.8399 11.8765L16.4768 10.4211C16.4824 10.4197 16.4767 10.4217 16.4406 10.4263C16.4021 10.4311 16.3509 10.4363 16.264 10.445L16.4132 11.9375ZM16.4214 11.9367L16.4214 11.9367L16.2558 10.4459L16.2558 10.4459L16.4214 11.9367ZM15.9964 11.9849C15.9799 11.9902 15.9894 11.9849 16.07 11.9743C16.1472 11.9642 16.2514 11.9537 16.4132 11.9375L16.264 10.445C15.9996 10.4714 15.7346 10.4932 15.5361 10.5572L15.9964 11.9849ZM15.8506 12.3368C15.7803 12.1996 15.8497 12.0322 15.9964 11.9849L15.5361 10.5572C14.5092 10.8883 14.0236 12.0607 14.5156 13.0209L15.8506 12.3368ZM16.1118 12.665C16.0089 12.5392 15.9426 12.458 15.8952 12.3963C15.8457 12.3319 15.8427 12.3215 15.8506 12.3368L14.5156 13.0209C14.6108 13.2065 14.7827 13.4092 14.9509 13.6148L16.1118 12.665ZM16.3702 13.0097C16.298 12.8894 16.2014 12.7745 16.1118 12.665L14.9509 13.6148C15.0062 13.6824 15.0387 13.7223 15.0625 13.7529C15.0848 13.7817 15.0874 13.7871 15.0845 13.7822L16.3702 13.0097ZM16.2731 14.957C16.6976 14.3877 16.7359 13.6184 16.3702 13.0097L15.0845 13.7822C15.1367 13.8692 15.1312 13.9791 15.0706 14.0604L16.2731 14.957ZM15.9817 15.2743C16.0817 15.1743 16.1892 15.0695 16.2731 14.957L15.0706 14.0604C15.074 14.0558 15.0709 14.061 15.0458 14.0873C15.0191 14.1155 14.9828 14.1519 14.921 14.2137L15.9817 15.2743ZM15.2743 15.9817L15.9817 15.2743L14.921 14.2137L14.2136 14.9211L15.2743 15.9817ZM14.9567 16.2734C15.0694 16.1894 15.1741 16.0819 15.2743 15.9817L14.2136 14.9211C14.1518 14.9829 14.1154 15.0192 14.0872 15.046C14.0608 15.071 14.0557 15.0741 14.0603 15.0707L14.9567 16.2734ZM13.0097 16.3705C13.6184 16.736 14.3875 16.6977 14.9567 16.2734L14.0602 15.0707C13.9789 15.1313 13.8691 15.1368 13.7821 15.0846L13.0097 16.3705ZM12.6648 16.1119C12.7744 16.2016 12.8893 16.2981 13.0097 16.3705L13.7821 15.0846C13.787 15.0875 13.7815 15.0849 13.7528 15.0626C13.7221 15.0388 13.6822 15.0063 13.6146 14.951L12.6648 16.1119ZM12.6712 16.1171L12.6712 16.1171L13.6082 14.9458L13.6082 14.9458L12.6712 16.1171ZM12.3364 15.8504C12.321 15.8426 12.3314 15.8455 12.3959 15.8951C12.4576 15.9425 12.5388 16.0089 12.6647 16.1119L13.6146 14.9509C13.4088 14.7826 13.206 14.6106 13.0202 14.5154L12.3364 15.8504ZM11.9845 15.9962C12.0318 15.8495 12.1992 15.7802 12.3364 15.8504L13.0202 14.5154C12.0601 14.0236 10.888 14.5091 10.5569 15.5358L11.9845 15.9962ZM11.9371 16.4134C11.9533 16.2515 11.9638 16.1471 11.9739 16.0699C11.9845 15.9892 11.9898 15.9798 11.9845 15.9962L10.5569 15.5358C10.4928 15.7344 10.471 15.9995 10.4445 16.2642L11.9371 16.4134ZM11.935 16.4319L11.935 16.4318L10.4466 16.2458L10.4466 16.2458L11.935 16.4319ZM11.8759 16.8406C11.91 16.7042 11.923 16.5545 11.9371 16.4135L10.4445 16.2642C10.4358 16.3512 10.4306 16.4025 10.4258 16.4411C10.4212 16.4772 10.4192 16.4829 10.4206 16.4774L11.8759 16.8406ZM10.4308 18.1485C11.1331 18.046 11.704 17.5293 11.8759 16.8406L10.4206 16.4774C10.396 16.5758 10.3145 16.6496 10.2141 16.6642L10.4308 18.1485ZM9.99972 18.1668C10.1414 18.1668 10.2917 18.1688 10.4307 18.1485L10.2141 16.6642C10.2198 16.6634 10.2139 16.6648 10.1775 16.6658C10.1386 16.6668 10.0871 16.6668 9.99972 16.6668V18.1668ZM8.99953 18.1668H9.99972V16.6668H8.99953V18.1668ZM8.56874 18.1485C8.70776 18.1688 8.85792 18.1668 8.99953 18.1668V16.6668C8.91215 16.6668 8.86069 16.6668 8.82183 16.6658C8.78546 16.6648 8.77962 16.6634 8.78525 16.6642L8.56874 18.1485ZM7.12338 16.8405C7.29524 17.5293 7.86623 18.046 8.56874 18.1485L8.78524 16.6642C8.68489 16.6496 8.60332 16.5758 8.57876 16.4773L7.12338 16.8405ZM7.06228 16.4136C7.07637 16.5546 7.08937 16.7042 7.12338 16.8405L8.57876 16.4773C8.58014 16.4829 8.57812 16.4772 8.57357 16.4411C8.56871 16.4025 8.56353 16.3513 8.55484 16.2644L7.06228 16.4136ZM7.01493 15.9965C7.00963 15.9801 7.0149 15.9895 7.02547 16.0702C7.03557 16.1474 7.04609 16.2518 7.06228 16.4136L8.55484 16.2644C8.52838 15.9998 8.50658 15.7347 8.4425 15.536L7.01493 15.9965ZM6.66302 15.8508C6.80018 15.7805 6.96762 15.8499 7.01493 15.9965L8.4425 15.536C8.11135 14.5094 6.93927 14.0239 5.97919 14.5157L6.66302 15.8508ZM6.33458 16.1122C6.4605 16.0092 6.54173 15.9428 6.60345 15.8954C6.66797 15.8458 6.67838 15.8429 6.66302 15.8508L5.97919 14.5157C5.7934 14.6109 5.59053 14.7829 5.38472 14.9513L6.33458 16.1122ZM6.32816 16.1174L6.32817 16.1174L5.39113 14.9461L5.39112 14.9461L6.32816 16.1174ZM5.98955 16.3708C6.10999 16.2985 6.22496 16.2019 6.33456 16.1122L5.38471 14.9513C5.31708 15.0066 5.27722 15.0392 5.24651 15.063C5.21777 15.0853 5.21233 15.0879 5.21721 15.085L5.98955 16.3708ZM4.04262 16.2737C4.61182 16.698 5.38095 16.7364 5.98955 16.3708L5.21721 15.085C5.13027 15.1372 5.02039 15.1317 4.93908 15.0711L4.04262 16.2737ZM3.72506 15.9821C3.82518 16.0822 3.92998 16.1898 4.04262 16.2737L4.93907 15.0711C4.94364 15.0745 4.93848 15.0714 4.91211 15.0463C4.88392 15.0196 4.8475 14.9832 4.78572 14.9214L3.72506 15.9821ZM3.72504 15.9821L3.72506 15.9821L4.78572 14.9214L4.7857 14.9214L3.72504 15.9821ZM3.01773 15.2748L3.72504 15.9821L4.7857 14.9214L4.07839 14.2141L3.01773 15.2748ZM3.0363 15.2927L3.03632 15.2927L4.0598 14.1961L4.05978 14.1961L3.0363 15.2927ZM2.72608 14.9572C2.81003 15.0698 2.91758 15.1746 3.0177 15.2747L4.07837 14.2141C4.01659 14.1523 3.98025 14.1159 3.95348 14.0877C3.92843 14.0613 3.92532 14.0562 3.92872 14.0607L2.72608 14.9572ZM2.62897 13.0103C2.26342 13.6189 2.30178 14.388 2.72608 14.9572L3.92872 14.0607C3.8681 13.9794 3.86262 13.8695 3.91485 13.7826L2.62897 13.0103ZM2.88758 12.6652C2.7979 12.7748 2.70131 12.8898 2.62897 13.0102L3.91485 13.7826C3.91192 13.7875 3.91451 13.782 3.93681 13.7533C3.96064 13.7226 3.99318 13.6827 4.04852 13.6151L2.88758 12.6652ZM3.14904 12.3368C3.1569 12.3215 3.15395 12.3319 3.10437 12.3964C3.05695 12.4581 2.9906 12.5393 2.88758 12.6652L4.04852 13.6151C4.21689 13.4093 4.38892 13.2064 4.48408 13.0207L3.14904 12.3368ZM3.00327 11.9849C3.14993 12.0322 3.21929 12.1997 3.14904 12.3368L4.48408 13.0207C4.97588 12.0606 4.49037 10.8885 3.46372 10.5573L3.00327 11.9849ZM2.58618 11.9376C2.74806 11.9537 2.8524 11.9643 2.92957 11.9744C3.01025 11.9849 3.01969 11.9902 3.00327 11.9849L3.46373 10.5573C3.26508 10.4933 3 10.4715 2.73543 10.445L2.58618 11.9376ZM2.56631 11.9353L2.56633 11.9353L2.75529 10.4473L2.75526 10.4472L2.56631 11.9353ZM2.15939 11.8765C2.29569 11.9105 2.44526 11.9235 2.58616 11.9376L2.73541 10.445C2.64848 10.4363 2.59729 10.4311 2.55873 10.4263C2.52265 10.4217 2.51697 10.4197 2.52249 10.4211L2.15939 11.8765ZM0.851329 10.4311C0.953793 11.1336 1.47054 11.7046 2.15939 11.8765L2.52249 10.4211C2.42408 10.3965 2.35026 10.3149 2.33563 10.2146L0.851329 10.4311ZM0.833008 10.0003C0.833008 10.1419 0.831055 10.2921 0.851329 10.4311L2.33563 10.2146C2.33645 10.2202 2.335 10.2144 2.33407 10.178C2.33307 10.1391 2.33301 10.0877 2.33301 10.0003H0.833008ZM0.833008 9.0001V10.0003H2.33301V9.0001H0.833008ZM0.851349 8.56911C0.831053 8.7082 0.833008 8.85842 0.833008 9.0001H2.33301C2.33301 8.91268 2.33307 8.8612 2.33407 8.82231C2.33501 8.78594 2.33645 8.78008 2.33563 8.78572L0.851349 8.56911ZM2.15925 7.1239C1.47052 7.29579 0.953854 7.8667 0.851349 8.56911L2.33563 8.78572C2.35027 8.68537 2.42408 8.60381 2.52247 8.57926L2.15925 7.1239ZM2.58628 7.06276C2.4453 7.07686 2.29563 7.08986 2.15925 7.1239L2.52247 8.57926C2.51695 8.58063 2.52263 8.57862 2.55873 8.57406C2.59732 8.5692 2.64855 8.56402 2.73553 8.55532L2.58628 7.06276ZM3.0036 7.01538C3.02002 7.01008 3.01058 7.01536 2.92985 7.02593C2.85264 7.03604 2.74824 7.04656 2.58628 7.06276L2.73553 8.55532C3.00024 8.52885 3.26547 8.50703 3.46422 8.44291L3.0036 7.01538ZM3.14935 6.66351C3.21958 6.80065 3.15023 6.96807 3.0036 7.01538L3.46421 8.44291C4.49067 8.1117 4.97608 6.93981 4.48447 5.9798L3.14935 6.66351ZM2.88773 6.33487C2.99081 6.46087 3.0572 6.54214 3.10466 6.6039C3.15427 6.66846 3.15722 6.67888 3.14935 6.66351L4.48447 5.9798C4.38928 5.79392 4.21714 5.59094 4.04866 5.38502L2.88773 6.33487ZM2.8861 6.33288L2.88611 6.33289L4.05028 5.387L4.05027 5.38699L2.8861 6.33288ZM2.93785 6.39026L2.93786 6.39027L3.99852 5.32961L3.99851 5.3296L2.93785 6.39026ZM2.62891 5.98956C2.70129 6.11009 2.79796 6.22517 2.88771 6.33486L4.04865 5.38501C3.99327 5.31732 3.9607 5.27742 3.93684 5.24668C3.91452 5.21791 3.91194 5.21247 3.91487 5.21735L2.62891 5.98956ZM2.726 4.04293C2.30185 4.61207 2.26349 5.38104 2.62891 5.98956L3.91487 5.21735C3.86267 5.13042 3.86814 5.02057 3.92874 4.93926L2.726 4.04293ZM3.01786 3.72511C2.91765 3.82532 2.81001 3.93019 2.726 4.04293L3.92874 4.93926C3.92534 4.94382 3.92845 4.93867 3.95352 4.91227C3.98031 4.88406 4.01669 4.8476 4.07852 4.78577L3.01786 3.72511ZM3.01786 3.72511L3.01786 3.72511L4.07852 4.78577L4.07852 4.78577L3.01786 3.72511ZM3.72507 3.0179L3.01786 3.72511L4.07852 4.78577L4.78573 4.07856L3.72507 3.0179ZM3.72507 3.0179L3.72507 3.0179L4.78573 4.07856L4.78573 4.07856L3.72507 3.0179ZM4.04265 2.72623C3.93001 2.8102 3.82521 2.91776 3.72507 3.0179L4.78573 4.07856C4.84752 4.01677 4.88395 3.98042 4.91214 3.95365C4.93852 3.9286 4.94367 3.92548 4.93911 3.92888L4.04265 2.72623ZM5.98958 2.62913C5.38099 2.26359 4.61186 2.30195 4.04265 2.72623L4.93911 3.92888C5.02042 3.86827 5.1303 3.86279 5.21724 3.91501L5.98958 2.62913ZM6.33467 2.8878C6.22503 2.79809 6.11003 2.70147 5.98958 2.62913L5.21724 3.91501C5.21236 3.91208 5.2178 3.91467 5.24656 3.93698C5.27728 3.96083 5.31717 3.99338 5.38482 4.04873L6.33467 2.8878ZM6.66303 3.1492C6.67838 3.15707 6.66798 3.15412 6.60347 3.10455C6.54176 3.05713 6.46056 2.99079 6.33467 2.8878L5.38482 4.04873C5.59056 4.21707 5.79336 4.38904 5.97901 4.48416L6.66303 3.1492ZM7.01497 3.00343C6.96768 3.15012 6.8002 3.21949 6.66303 3.1492L5.97901 4.48416C6.9392 4.97616 8.11154 4.49056 8.44261 3.46371L7.01497 3.00343ZM7.06229 2.58657C7.04611 2.74836 7.0356 2.85264 7.02551 2.92976C7.01495 3.0104 7.00968 3.01983 7.01497 3.00342L8.44261 3.46371C8.50662 3.26517 8.52841 3.00024 8.55485 2.73582L7.06229 2.58657ZM7.06436 2.56816L7.06436 2.56817L8.55278 2.75422L8.55278 2.75421L7.06436 2.56816ZM7.12334 2.16001C7.08937 2.29624 7.07638 2.44574 7.06229 2.58656L8.55485 2.73581C8.56354 2.64893 8.56871 2.59776 8.57357 2.55922C8.57812 2.52316 8.58013 2.51749 8.57876 2.523L7.12334 2.16001ZM8.5689 0.851797C7.86627 0.954218 7.29517 1.47106 7.12334 2.16001L8.57876 2.523C8.60331 2.42458 8.68489 2.35074 8.78527 2.33611L8.5689 0.851797ZM8.99942 0.833496C8.85789 0.833496 8.70784 0.831545 8.5689 0.851797L8.78527 2.33611C8.77964 2.33693 8.78549 2.33549 8.82183 2.33455C8.86067 2.33355 8.91209 2.3335 8.99942 2.3335V0.833496ZM9.99983 0.833496H8.99942V2.3335H9.99983V0.833496ZM10.4306 0.851818C10.2916 0.831543 10.1414 0.833496 9.99983 0.833496V2.3335C10.0872 2.3335 10.1387 2.33355 10.1775 2.33456C10.2139 2.33549 10.2197 2.33693 10.2141 2.33611L10.4306 0.851818ZM11.876 2.15987C11.7041 1.47103 11.1331 0.954282 10.4306 0.851818L10.2141 2.33611C10.3145 2.35075 10.396 2.42457 10.4206 2.52298L11.876 2.15987ZM11.9163 9.50016C11.9163 10.8349 10.8344 11.9168 9.49967 11.9168V13.4168C11.6628 13.4168 13.4163 11.6633 13.4163 9.50016H11.9163ZM9.49967 7.0835C10.8344 7.0835 11.9163 8.16547 11.9163 9.50016H13.4163C13.4163 7.33705 11.6628 5.5835 9.49967 5.5835V7.0835ZM7.08301 9.50016C7.08301 8.16547 8.16499 7.0835 9.49967 7.0835V5.5835C7.33656 5.5835 5.58301 7.33705 5.58301 9.50016H7.08301ZM9.49967 11.9168C8.16499 11.9168 7.08301 10.8349 7.08301 9.50016H5.58301C5.58301 11.6633 7.33656 13.4168 9.49967 13.4168V11.9168Z" fill="black"/>
</svg>
