<svg width="38" height="38" viewBox="0 0 38 38" fill="none" xmlns="http://www.w3.org/2000/svg">
<g filter="url(#filter0_d_8782_1850)">
<rect x="3" y="2" width="32" height="32" rx="16" fill="white"/>
</g>
<path d="M19.0051 27.5999L17.6081 26.3714C12.6641 22.0295 9.40015 19.1631 9.40015 15.6486C9.39338 14.9751 9.52531 14.307 9.78823 13.6834C10.0511 13.0598 10.4397 12.4933 10.9313 12.017C11.4229 11.5407 12.0076 11.1642 12.6511 10.9095C13.2947 10.6547 13.9842 10.5269 14.6794 10.5334C15.5018 10.5388 16.3135 10.7149 17.0598 11.05C17.806 11.3851 18.4693 11.8714 19.0051 12.476C19.5396 11.8724 20.2012 11.3867 20.9456 11.0517C21.6899 10.7166 22.4997 10.5399 23.3204 10.5334C24.0156 10.5269 24.7051 10.6547 25.3487 10.9095C25.9922 11.1642 26.5769 11.5407 27.0685 12.017C27.5601 12.4933 27.9487 13.0598 28.2116 13.6834C28.4745 14.307 28.6064 14.9751 28.5997 15.6486C28.5997 19.1631 25.3357 22.0295 20.3918 26.3816L19.0051 27.5999Z" fill="#FF6E6E"/>
<defs>
<filter id="filter0_d_8782_1850" x="0" y="0" width="38" height="38" filterUnits="userSpaceOnUse" color-interpolation-filters="sRGB">
<feFlood flood-opacity="0" result="BackgroundImageFix"/>
<feColorMatrix in="SourceAlpha" type="matrix" values="0 0 0 0 0 0 0 0 0 0 0 0 0 0 0 0 0 0 127 0" result="hardAlpha"/>
<feOffset dy="1"/>
<feGaussianBlur stdDeviation="1.5"/>
<feComposite in2="hardAlpha" operator="out"/>
<feColorMatrix type="matrix" values="0 0 0 0 0 0 0 0 0 0 0 0 0 0 0 0 0 0 0.25 0"/>
<feBlend mode="normal" in2="BackgroundImageFix" result="effect1_dropShadow_8782_1850"/>
<feBlend mode="normal" in="SourceGraphic" in2="effect1_dropShadow_8782_1850" result="shape"/>
</filter>
</defs>
</svg>
