<svg width="50" height="34" viewBox="0 0 50 34" fill="none" xmlns="http://www.w3.org/2000/svg">
<rect width="49.5833" height="34" rx="4.25" fill="black"/>
<rect x="0.5" y="0.5" width="48.5833" height="33" rx="3.75" stroke="#CCD2E3" stroke-opacity="0.31"/>
<path fill-rule="evenodd" clip-rule="evenodd" d="M21.3134 26.135L21.6353 24.0821L20.9182 24.0653H17.4941L19.8738 8.91603C19.8812 8.87016 19.9051 8.82757 19.9401 8.79728C19.9753 8.76698 20.0201 8.75037 20.067 8.75037H25.8405C27.7574 8.75037 29.0801 9.15077 29.7706 9.94118C30.0944 10.312 30.3006 10.6996 30.4005 11.1259C30.5051 11.5734 30.5068 12.108 30.4048 12.7601L30.3973 12.8075V13.2254L30.7211 13.4096C30.9937 13.5548 31.2104 13.721 31.3766 13.9113C31.6535 14.2284 31.8327 14.6314 31.9084 15.109C31.9866 15.6003 31.9608 16.1851 31.8327 16.847C31.6849 17.6084 31.4461 18.2715 31.1235 18.8141C30.827 19.314 30.4491 19.7288 30.0003 20.0501C29.5718 20.3554 29.0629 20.5872 28.4874 20.7356C27.9296 20.8813 27.2938 20.9549 26.5964 20.9549H26.1471C25.8259 20.9549 25.5138 21.0711 25.2688 21.2793C25.0231 21.4919 24.8607 21.7824 24.8109 22.1L24.7769 22.2849L24.2082 25.9034L24.1825 26.0362C24.1756 26.0782 24.1638 26.0992 24.1466 26.1134C24.1313 26.1264 24.1092 26.135 24.0876 26.135H21.3134Z" fill="#28356A"/>
<path fill-rule="evenodd" clip-rule="evenodd" d="M31.0278 12.8558C31.0107 12.9665 30.9909 13.0795 30.9688 13.1956C30.2074 17.1207 27.6025 18.4767 24.2757 18.4767H22.5817C22.1748 18.4767 21.8319 18.7732 21.7686 19.1762L20.6557 26.2642C20.6145 26.5289 20.8176 26.7672 21.0835 26.7672H24.0879C24.4436 26.7672 24.7458 26.5077 24.8018 26.1555L24.8313 26.0023L25.397 22.398L25.4334 22.2003C25.4887 21.8468 25.7917 21.5871 26.1473 21.5871H26.5966C29.5075 21.5871 31.7862 20.4006 32.4522 16.9668C32.7303 15.5324 32.5864 14.3347 31.8502 13.4924C31.6274 13.2384 31.351 13.0276 31.0278 12.8558Z" fill="#298FC2"/>
<path fill-rule="evenodd" clip-rule="evenodd" d="M30.2303 12.537C30.114 12.5028 29.994 12.472 29.8709 12.4442C29.7471 12.417 29.6204 12.3929 29.4898 12.3718C29.0331 12.2977 28.5326 12.2626 27.9966 12.2626H23.4713C23.3598 12.2626 23.2539 12.2878 23.1593 12.3335C22.9505 12.4343 22.7955 12.6327 22.7579 12.8756L21.7952 18.9977L21.7676 19.1762C21.8309 18.7732 22.1738 18.4767 22.5807 18.4767H24.2746C27.6014 18.4767 30.2064 17.12 30.9677 13.1956C30.9905 13.0795 31.0096 12.9664 31.0267 12.8558C30.8341 12.7532 30.6255 12.6654 30.4009 12.5906C30.3453 12.5721 30.2881 12.5543 30.2303 12.537Z" fill="#22284F"/>
<path fill-rule="evenodd" clip-rule="evenodd" d="M22.7584 12.8756C22.796 12.6328 22.951 12.4344 23.1598 12.3343C23.2551 12.2884 23.3603 12.2632 23.4719 12.2632H27.9971C28.5331 12.2632 29.0336 12.2985 29.4904 12.3726C29.6209 12.3935 29.7476 12.4178 29.8714 12.4449C29.9945 12.4726 30.1145 12.5036 30.2309 12.5375C30.2886 12.5549 30.3459 12.5729 30.4019 12.5907C30.6265 12.6655 30.8353 12.7539 31.0279 12.8559C31.2545 11.4054 31.026 10.4178 30.245 9.52355C29.3838 8.5389 27.8297 8.11755 25.8409 8.11755H20.0673C19.6611 8.11755 19.3145 8.41409 19.2518 8.81778L16.847 24.1229C16.7996 24.4256 17.0321 24.6988 17.3363 24.6988H20.9007L22.7584 12.8756Z" fill="#28356A"/>
</svg>
