<svg width="4" height="19" viewBox="0 0 4 19" fill="none" xmlns="http://www.w3.org/2000/svg">
<path d="M1.89998 3.79996C2.94931 3.79996 3.79996 2.94931 3.79996 1.89998C3.79996 0.85065 2.94931 0 1.89998 0C0.85065 0 0 0.85065 0 1.89998C0 2.94931 0.85065 3.79996 1.89998 3.79996Z" fill="black"/>
<path d="M1.89998 11.3999C2.94931 11.3999 3.79996 10.5492 3.79996 9.49988C3.79996 8.45055 2.94931 7.5999 1.89998 7.5999C0.85065 7.5999 0 8.45055 0 9.49988C0 10.5492 0.85065 11.3999 1.89998 11.3999Z" fill="black"/>
<path d="M1.89998 18.9998C2.94931 18.9998 3.79996 18.1491 3.79996 17.0998C3.79996 16.0504 2.94931 15.1998 1.89998 15.1998C0.85065 15.1998 0 16.0504 0 17.0998C0 18.1491 0.85065 18.9998 1.89998 18.9998Z" fill="black"/>
</svg>
