<svg width="22" height="22" viewBox="0 0 22 22" fill="none" xmlns="http://www.w3.org/2000/svg">
<path fill-rule="evenodd" clip-rule="evenodd" d="M16.7318 2.27156C18.6207 1.48452 20.5156 3.37947 19.7286 5.26835L14.2987 18.3001C13.2368 20.8487 9.50155 20.4179 9.04765 17.6945L8.37022 13.6299L4.30565 12.9525C1.58224 12.4986 1.15147 8.76336 3.70005 7.70145L16.7318 2.27156ZM18.0363 4.56322C18.1937 4.18545 17.8147 3.80646 17.4369 3.96386L4.40518 9.39376C3.55565 9.74773 3.69925 10.9928 4.60705 11.1441L8.67162 11.8215C9.44432 11.9503 10.0498 12.5558 10.1786 13.3285L10.856 17.3931C11.0073 18.3009 12.2524 18.4445 12.6064 17.595L18.0363 4.56322Z" fill="#B1B5C4"/>
</svg>
