<svg width="21" height="21" viewBox="0 0 21 21" fill="none" xmlns="http://www.w3.org/2000/svg">
<path d="M3.89434 12.1697L9.97788 17.8845C10.1465 18.0429 10.2308 18.1221 10.3248 18.1573C10.4378 18.1996 10.5622 18.1996 10.6752 18.1573C10.7692 18.1221 10.8535 18.0429 11.0221 17.8845L17.1057 12.1697C18.8173 10.5618 19.0252 7.91578 17.5856 6.06031L17.3149 5.71143C15.5927 3.49176 12.1359 3.86401 10.9258 6.39944C10.7549 6.75759 10.2451 6.75759 10.0742 6.39944C8.86407 3.86401 5.40726 3.49176 3.6851 5.71143L3.41442 6.06031C1.97483 7.91578 2.18269 10.5618 3.89434 12.1697Z" fill="#B1B5C4" stroke="#B1B5C4" stroke-width="2"/>
</svg>
