<svg width="22" height="22" viewBox="0 0 22 22" fill="none" xmlns="http://www.w3.org/2000/svg">
<path fill-rule="evenodd" clip-rule="evenodd" d="M16.7318 2.27168C18.6207 1.48465 20.5156 3.3796 19.7286 5.26847L14.2987 18.3002C13.2368 20.8488 9.50155 20.418 9.04765 17.6946L8.37022 13.63L4.30565 12.9526C1.58224 12.4987 1.15147 8.76348 3.70005 7.70157L16.7318 2.27168ZM18.0363 4.56335C18.1937 4.18557 17.8147 3.80658 17.4369 3.96399L4.40518 9.39388C3.55565 9.74785 3.69925 10.9929 4.60705 11.1442L8.67162 11.8217C9.44432 11.9504 10.0498 12.5559 10.1786 13.3286L10.856 17.3932C11.0073 18.301 12.2524 18.4446 12.6064 17.5951L18.0363 4.56335Z" fill="#777E91"/>
</svg>
