<svg width="17" height="15" viewBox="0 0 17 15" fill="none" xmlns="http://www.w3.org/2000/svg">
<path d="M8.44188 14.9996L7.214 13.9199C2.86885 10.1039 0.000217703 7.58467 0.000217703 4.49586C-0.00572937 3.90388 0.110223 3.3167 0.341291 2.76866C0.572359 2.22062 0.913902 1.72273 1.34594 1.30411C1.77798 0.885501 2.29184 0.554571 2.85746 0.330684C3.42307 0.106797 4.02909 -0.00555132 4.64006 0.000210937C5.36289 0.00490723 6.07627 0.15973 6.73211 0.454239C7.38794 0.748747 7.97097 1.17609 8.44188 1.70746C8.91157 1.177 9.49308 0.750166 10.1473 0.455681C10.8015 0.161196 11.5132 0.00588954 12.2345 0.000210937C12.8454 -0.00555132 13.4515 0.106797 14.0171 0.330684C14.5827 0.554571 15.0966 0.885501 15.5286 1.30411C15.9606 1.72273 16.3022 2.22062 16.5333 2.76866C16.7643 3.3167 16.8803 3.90388 16.8743 4.49586C16.8743 7.58467 14.0057 10.1039 9.66054 13.9288L8.44188 14.9996Z" fill="#D8D8D8"/>
</svg>
