<svg width="21" height="22" viewBox="0 0 21 22" fill="none" xmlns="http://www.w3.org/2000/svg">
<g clip-path="url(#clip0_0_614)">
<path d="M5.29375 3.79523L4.9525 3.43773C4.61125 3.08023 4.06 3.08939 3.7275 3.43773L3.71875 3.44689C3.3775 3.80439 3.3775 4.38189 3.71875 4.73023L4.06 5.08773C4.40125 5.44523 4.94375 5.44523 5.285 5.08773L5.29375 5.07856C5.635 4.73023 5.635 4.14356 5.29375 3.79523ZM2.63375 9.62523H1.74125C1.26 9.62523 0.875 10.0286 0.875 10.5327V10.5419C0.875 11.0461 1.26 11.4494 1.74125 11.4494H2.625C3.115 11.4586 3.5 11.0552 3.5 10.5511V10.5419C3.5 10.0286 3.115 9.62523 2.63375 9.62523ZM10.5088 0.504395H10.5C10.01 0.504395 9.625 0.907728 9.625 1.41189V2.29189C9.625 2.79606 10.01 3.19939 10.4913 3.19939H10.5C10.99 3.20856 11.375 2.80523 11.375 2.30106V1.41189C11.375 0.907728 10.99 0.504395 10.5088 0.504395ZM17.2813 3.44689C16.94 3.08939 16.3888 3.08939 16.0475 3.43773L15.7063 3.79523C15.365 4.15273 15.365 4.73023 15.7063 5.07856L15.715 5.08773C16.0563 5.44523 16.6075 5.44523 16.94 5.08773L17.2813 4.73023C17.6225 4.37273 17.6225 3.80439 17.2813 3.44689ZM15.6975 17.2886L16.0388 17.6461C16.38 18.0036 16.9313 18.0036 17.2725 17.6461C17.6138 17.2886 17.6138 16.7111 17.2725 16.3536L16.9313 15.9961C16.59 15.6386 16.0388 15.6477 15.7063 15.9961C15.3563 16.3627 15.3563 16.9311 15.6975 17.2886ZM17.5 10.5327V10.5419C17.5 11.0461 17.885 11.4494 18.3663 11.4494H19.25C19.7313 11.4494 20.1163 11.0461 20.1163 10.5419V10.5327C20.1163 10.0286 19.7313 9.62523 19.25 9.62523H18.3663C17.885 9.62523 17.5 10.0286 17.5 10.5327ZM10.5 5.04189C7.60375 5.04189 5.25 7.50773 5.25 10.5419C5.25 13.5761 7.60375 16.0419 10.5 16.0419C13.3963 16.0419 15.75 13.5761 15.75 10.5419C15.75 7.50773 13.3963 5.04189 10.5 5.04189ZM10.4913 20.5794H10.5C10.9813 20.5794 11.3663 20.1761 11.3663 19.6719V18.7919C11.3663 18.2877 10.9813 17.8844 10.5 17.8844H10.4913C10.01 17.8844 9.625 18.2877 9.625 18.7919V19.6719C9.625 20.1761 10.01 20.5794 10.4913 20.5794ZM3.71875 17.6369C4.06 17.9944 4.61125 17.9944 4.9525 17.6369L5.29375 17.2794C5.635 16.9219 5.62625 16.3444 5.29375 15.9961L5.285 15.9869C4.94375 15.6294 4.3925 15.6294 4.05125 15.9869L3.71 16.3444C3.3775 16.7111 3.3775 17.2794 3.71875 17.6369Z" fill="#2C2F32"/>
</g>
<defs>
<clipPath id="clip0_0_614">
<rect width="21" height="22" fill="white"/>
</clipPath>
</defs>
</svg>
