<svg width="21" height="21" viewBox="0 0 21 21" fill="none" xmlns="http://www.w3.org/2000/svg">
<path fill-rule="evenodd" clip-rule="evenodd" d="M19.0638 9.22167C18.9454 9.33676 18.7846 9.40252 18.6153 9.40252C17.9891 9.40252 17.4814 9.89577 17.4814 10.4959C17.4814 11.1001 17.9832 11.5909 18.6035 11.5975C18.953 11.6008 19.25 11.8375 19.25 12.177V14.2857C19.25 16.0605 17.7691 17.5 15.9412 17.5H13.1825C12.8974 17.5 12.6663 17.2756 12.6663 16.9985V15.2228C12.6663 14.8776 12.3871 14.6063 12.0317 14.6063C11.6847 14.6063 11.397 14.8776 11.397 15.2228V16.9985C11.397 17.2756 11.166 17.5 10.8817 17.5H5.05875C3.23936 17.5 1.75 16.0614 1.75 14.2857V12.177C1.75 11.8375 2.04703 11.6008 2.39652 11.5975C3.01765 11.5909 3.51862 11.1001 3.51862 10.4959C3.51862 9.91221 3.0278 9.46829 2.38467 9.46829C2.21543 9.46829 2.05464 9.40252 1.93617 9.28743C1.8177 9.17234 1.75 9.01615 1.75 8.85173V6.72255C1.75 4.95015 3.24275 3.5 5.06721 3.5H10.8817C11.166 3.5 11.397 3.72443 11.397 4.00147V6.10599C11.397 6.44304 11.6847 6.72255 12.0317 6.72255C12.3871 6.72255 12.6663 6.44304 12.6663 6.10599V4.00147C12.6663 3.72443 12.8974 3.5 13.1825 3.5H15.9412C17.7691 3.5 19.25 4.93864 19.25 6.71433V8.78596C19.25 8.95038 19.1823 9.10658 19.0638 9.22167ZM12.0317 13.0115C12.3871 13.0115 12.6663 12.7319 12.6663 12.3949V9.10658C12.6663 8.76953 12.3871 8.49002 12.0317 8.49002C11.6847 8.49002 11.397 8.76953 11.397 9.10658V12.3949C11.397 12.7319 11.6847 13.0115 12.0317 13.0115Z" fill="#B1B5C4"/>
</svg>
