<svg width="270" height="24" viewBox="0 0 270 24" fill="none" xmlns="http://www.w3.org/2000/svg">
<path d="M21.0169 8.25665L13.5755 0.862649C12.4324 -0.28755 8.57905 -0.28755 7.43573 0.862649L0 8.25665V10.8518V19.9545C0 21.0932 0.916762 22.0177 2.04843 22.0177H6.5784C7.06306 22.0177 7.4563 21.6217 7.4563 21.1335V14.649C7.4563 14.1597 7.84954 13.7648 8.3342 13.7648H12.6769C13.1615 13.7648 13.5548 14.1597 13.5548 14.649V21.1335C13.5548 21.6217 13.948 22.0177 14.4327 22.0177H18.9685C20.1002 22.0177 21.0169 21.0932 21.0169 19.9545V10.8577V8.25665ZM19.2611 19.9544C19.2611 20.0316 19.2302 20.1075 19.1753 20.1628C19.1204 20.2181 19.0461 20.2492 18.9684 20.2492H15.3105V14.6489C15.3105 13.1832 14.1308 11.9962 12.6768 11.9962H8.33412C6.88008 11.9962 5.70042 13.1832 5.70042 14.6489V20.2492H2.0425C1.88132 20.2492 1.74987 20.1168 1.74987 19.9544V9.08909L8.67708 2.11297C9.14003 1.66625 11.8709 1.66625 12.3339 2.11297L19.2611 9.08909L19.2611 19.9544Z" fill="black"/>
<path d="M105.515 20.8416L101.419 16.7411C104.617 12.6117 104.281 6.73077 100.604 3.02561C98.6686 1.07479 96.0859 0 93.3369 0C90.5866 0 88.0051 1.07484 86.0693 3.02561C84.1335 4.97643 83.0669 7.57915 83.0669 10.3494C83.0669 13.121 84.1335 15.7225 86.0693 17.6732C88.0052 19.624 90.5879 20.6988 93.3369 20.6988C95.6104 20.6988 97.8555 19.9355 99.6509 18.4928L103.72 22.6507C103.972 22.9048 104.281 23.0185 104.618 23.0185C104.954 23.0185 105.263 22.8771 105.516 22.6507C106.021 22.1702 106.021 21.3505 105.516 20.8413L105.515 20.8416ZM101.082 10.3494C101.082 12.4416 100.269 14.3936 98.809 15.8639C97.35 17.3342 95.3856 18.1549 93.3368 18.1549C91.288 18.1549 89.3236 17.3353 87.8647 15.8639C86.4056 14.3936 85.5912 12.4141 85.5912 10.3494C85.5912 8.25718 86.4045 6.30516 87.8647 4.83492C89.3237 3.36462 91.288 2.54384 93.3368 2.54384C95.413 2.54384 97.35 3.36349 98.809 4.83492C100.268 6.30632 101.082 8.25729 101.082 10.3494Z" fill="#E6E8EC"/>
<path d="M173.678 5.21253V4.69128C173.678 2.10344 175.78 0 178.369 0C180.96 0 183.061 2.10175 183.061 4.69128V5.21253H184.743C186.144 5.21253 187.362 6.31042 187.505 7.70591L188.781 20.2304C188.931 21.7031 187.82 22.9351 186.342 22.9351H170.397C168.916 22.9351 167.808 21.7074 167.958 20.2304L169.234 7.70591C169.376 6.31441 170.598 5.21253 171.996 5.21253H173.678ZM173.678 7.29755H171.996C171.667 7.29755 171.342 7.5906 171.309 7.9173L170.032 20.4418C170.007 20.6904 170.151 20.8501 170.397 20.8501H186.342C186.584 20.8501 186.732 20.6866 186.707 20.4418L185.43 7.9173C185.397 7.58718 185.075 7.29755 184.743 7.29755H183.061V9.38256C183.061 9.95832 182.594 10.4251 182.018 10.4251C181.442 10.4251 180.976 9.95832 180.976 9.38256V7.29755H175.763V9.38256C175.763 9.95832 175.296 10.4251 174.721 10.4251C174.145 10.4251 173.678 9.95832 173.678 9.38256V7.29755ZM180.976 5.21253V4.25022C180.976 3.05505 179.809 2.08501 178.369 2.08501C176.931 2.08501 175.763 3.05583 175.763 4.25022V5.21253H180.976Z" fill="#E6E8EC"/>
<path fill-rule="evenodd" clip-rule="evenodd" d="M270 18.9075C270 22.756 264.534 23.2008 260.424 23.2008L260.129 23.2006C257.511 23.1944 250.845 23.0348 250.845 18.8842C250.845 15.1143 256.091 14.6105 260.17 14.5915L260.718 14.5911C263.336 14.5973 270 14.7569 270 18.9075ZM260.424 16.3423C255.271 16.3423 252.659 17.197 252.659 18.8842C252.659 20.5866 255.271 21.4494 260.424 21.4494C265.575 21.4494 268.186 20.5947 268.186 18.9075C268.186 17.2052 265.575 16.3423 260.424 16.3423ZM260.424 0C263.964 0 266.844 2.78124 266.844 6.19999C266.844 9.61875 263.964 12.3988 260.424 12.3988H260.385C256.851 12.3883 253.989 9.60591 254.001 6.19649C254.001 2.78124 256.882 0 260.424 0ZM260.424 1.66734C257.834 1.66734 255.728 3.70015 255.728 6.19999C255.719 8.69167 257.81 10.7233 260.389 10.7326L260.424 11.5663V10.7326C263.012 10.7326 265.117 8.69867 265.117 6.19999C265.117 3.70015 263.012 1.66734 260.424 1.66734Z" fill="#E6E8EC"/>
</svg>
