<svg width="14" height="18" viewBox="0 0 14 18" fill="none" xmlns="http://www.w3.org/2000/svg">
<path d="M12.8333 12.25C12.8333 11.1965 13.097 10.5373 13.3747 9.84198C13.6827 9.07315 14 8.27982 14 6.99999C14 4.79382 12.1847 3.75782 11.2245 3.51749C11.067 3.47665 10.8978 3.50582 10.7602 3.59799C10.7438 3.60849 9.1315 4.66665 7 4.66665C4.88367 4.66665 3.25617 3.60732 3.23867 3.59682C3.10333 3.50699 2.93417 3.47549 2.7755 3.51749C1.81533 3.75782 0 4.79382 0 6.99999C0 8.27982 0.317333 9.07315 0.625333 9.84198C0.903 10.5373 1.16667 11.1965 1.16667 12.25C1.16667 14.413 0.0723333 16.6343 0.0618333 16.6565C-0.0291667 16.8373 -0.0186666 17.0532 0.0875001 17.2235C0.193667 17.395 0.3815 17.5 0.583333 17.5H13.4167C13.6185 17.5 13.8063 17.395 13.9125 17.2223C14.0187 17.052 14.028 16.8362 13.9382 16.6553C13.9277 16.6343 12.8333 14.413 12.8333 12.25ZM1.47117 16.3333C1.834 15.407 2.33333 13.8402 2.33333 12.25C2.33333 10.9702 2.016 10.1768 1.708 9.40799C1.43033 8.71265 1.16667 8.05465 1.16667 6.99999C1.16667 5.51949 2.34617 4.91049 2.84433 4.72032C3.437 5.05749 5.0155 5.83332 7 5.83332C8.98333 5.83332 10.563 5.05749 11.1557 4.72032C11.655 4.91165 12.8333 5.52065 12.8333 6.99999C12.8333 8.05465 12.5697 8.71265 12.292 9.40799C11.984 10.1768 11.6667 10.9702 11.6667 12.25C11.6667 13.8402 12.166 15.407 12.5288 16.3333H1.47117Z" fill="#FCFCFD"/>
<path d="M2.91683 0C2.59483 0 2.3335 0.261333 2.3335 0.583333V4.08333C2.3335 4.40533 2.59483 4.66667 2.91683 4.66667C3.23883 4.66667 3.50016 4.40533 3.50016 4.08333V0.583333C3.50016 0.261333 3.23883 0 2.91683 0Z" fill="#FCFCFD"/>
<path d="M11.0833 0C10.7613 0 10.5 0.261333 10.5 0.583333V4.08333C10.5 4.40533 10.7613 4.66667 11.0833 4.66667C11.4053 4.66667 11.6667 4.40533 11.6667 4.08333V0.583333C11.6667 0.261333 11.4053 0 11.0833 0Z" fill="#FCFCFD"/>
</svg>
