<svg width="16" height="16" viewBox="0 0 16 16" fill="none" xmlns="http://www.w3.org/2000/svg">
<path fill-rule="evenodd" clip-rule="evenodd" d="M8.5537 3.79198L9.72304 6.25864L12.1177 6.51264C12.3656 6.53669 12.5743 6.70847 12.6456 6.94715C12.7169 7.18584 12.6365 7.44391 12.4424 7.59997L10.533 9.16997L11.1237 11.8093C11.1777 12.0491 11.0831 12.298 10.8834 12.4414C10.6838 12.5848 10.4177 12.595 10.2077 12.4673L7.99971 11.124L5.78971 12.4666C5.57957 12.5941 5.31365 12.5838 5.114 12.4405C4.91435 12.2971 4.81952 12.0485 4.87305 11.8086L5.46638 9.16997L3.55705 7.59997C3.36429 7.44351 3.285 7.18618 3.35629 6.94837C3.42758 6.71055 3.63534 6.53927 3.88238 6.51464L6.27638 6.26064L7.44571 3.79198C7.5473 3.57811 7.76293 3.44182 7.99971 3.44182C8.23648 3.44182 8.45211 3.57811 8.5537 3.79198Z" fill="#141416"/>
</svg>
