<svg width="50" height="34" viewBox="0 0 50 34" fill="none" xmlns="http://www.w3.org/2000/svg">
<rect width="49.5833" height="34" rx="4.25" fill="black"/>
<rect x="0.5" y="0.5" width="48.5833" height="33" rx="3.75" stroke="#CCD2E3" stroke-opacity="0.31"/>
<path fill-rule="evenodd" clip-rule="evenodd" d="M8.88912 12.0416L4.25 22.3078H9.80368L10.4922 20.671H12.0659L12.7544 22.3078H18.8674V21.0585L19.4122 22.3078H22.5743L23.119 21.0321V22.3078H35.8325L37.3784 20.7135L38.8259 22.3078L45.3558 22.321L40.702 17.2034L45.3558 12.0416H38.9272L37.4223 13.6065L36.0204 12.0416H22.1898L21.0022 14.6914L19.7867 12.0416H14.2446V13.2484L13.6281 12.0416H8.88912ZM9.96376 13.4994H12.6709L15.748 20.461V13.4994H18.7136L21.0903 18.4909L23.2807 13.4994H26.2314V20.8661H24.436L24.4213 15.0936L21.8037 20.8661H20.1976L17.5654 15.0936V20.8661H13.8717L13.1715 19.2146H9.3883L8.6895 20.8647H6.71048L9.96376 13.4994ZM35.1747 13.4994H27.8741V20.8618H35.0617L37.3784 18.4218L39.6113 20.8618H41.9455L38.5528 17.202L41.9455 13.4994H39.7126L37.4077 15.9114L35.1747 13.4994ZM11.2807 14.7458L10.0343 17.6879H12.5257L11.2807 14.7458ZM29.6768 16.3695V15.0247V15.0234H34.2322L36.2199 17.1741L34.1441 19.3365H29.6768V17.8684H33.6596V16.3695H29.6768Z" fill="white"/>
</svg>
