<svg width="24" height="24" viewBox="0 0 24 24" fill="none" xmlns="http://www.w3.org/2000/svg">
<path fill-rule="evenodd" clip-rule="evenodd" d="M2.71 4.54039C2.32 4.15039 2.32 3.52039 2.71 3.13039C3.1 2.74039 3.74 2.74039 4.13 3.13039L20.44 19.4604C20.83 19.8504 20.83 20.4804 20.44 20.8704C20.05 21.2604 19.42 21.2604 19.03 20.8704L16.31 18.1504C14.97 18.6704 13.52 18.9704 12 18.9704C7 18.9704 2.73 15.8604 1 11.4704C1.77 9.50039 3.06 7.80039 4.68 6.51039L2.71 4.54039ZM17 11.4704C17 8.71039 14.76 6.47039 12 6.47039C11.49 6.47039 11 6.57039 10.53 6.71039L8.36 4.54039C9.51 4.17039 10.73 3.97039 12 3.97039C17 3.97039 21.27 7.08039 23 11.4604C22.31 13.2204 21.21 14.7604 19.82 15.9904L16.76 12.9304C16.9 12.4704 17 11.9804 17 11.4704ZM12 16.4704C9.24 16.4704 7 14.2304 7 11.4704C7 10.7004 7.18 9.97039 7.49 9.33039L9.06 10.9004C9.03 11.0804 9 11.2704 9 11.4704C9 13.1304 10.34 14.4704 12 14.4704C12.2 14.4704 12.38 14.4404 12.57 14.4004L14.14 15.9704C13.49 16.2904 12.77 16.4704 12 16.4704ZM14.97 11.1404C14.82 9.74039 13.72 8.65039 12.33 8.50039L14.97 11.1404Z" fill="black" fill-opacity="0.54"/>
</svg>
