<svg width="50" height="34" viewBox="0 0 50 34" fill="none" xmlns="http://www.w3.org/2000/svg">
<rect width="49.5833" height="34" rx="4.25" fill="#23262F"/>
<rect x="0.5" y="0.5" width="48.5833" height="33" rx="3.75" stroke="#CCD2E3" stroke-opacity="0.31"/>
<path fill-rule="evenodd" clip-rule="evenodd" d="M25.0713 24.623C23.3832 26.0797 21.1935 26.9591 18.8008 26.9591C13.4619 26.9591 9.13379 22.5808 9.13379 17.1799C9.13379 11.7789 13.4619 7.40063 18.8008 7.40063C21.1935 7.40063 23.3832 8.28004 25.0713 9.73677C26.7594 8.28004 28.9491 7.40063 31.3418 7.40063C36.6807 7.40063 41.0088 11.7789 41.0088 17.1799C41.0088 22.5808 36.6807 26.9591 31.3418 26.9591C28.9491 26.9591 26.7594 26.0797 25.0713 24.623Z" fill="#ED0006"/>
<path fill-rule="evenodd" clip-rule="evenodd" d="M25.0713 24.6229C27.1498 22.8292 28.4677 20.1602 28.4677 17.1799C28.4677 14.1995 27.1498 11.5305 25.0713 9.73681C26.7594 8.28005 28.9491 7.40063 31.3418 7.40063C36.6808 7.40063 41.0088 11.7789 41.0088 17.1799C41.0088 22.5808 36.6808 26.9591 31.3418 26.9591C28.9491 26.9591 26.7594 26.0797 25.0713 24.6229Z" fill="#F9A000"/>
<path fill-rule="evenodd" clip-rule="evenodd" d="M25.0713 24.6229C27.1498 22.8292 28.4677 20.1603 28.4677 17.1799C28.4677 14.1995 27.1498 11.5305 25.0713 9.73682C22.9928 11.5305 21.6748 14.1995 21.6748 17.1799C21.6748 20.1603 22.9928 22.8292 25.0713 24.6229Z" fill="#FF5E00"/>
</svg>
