<svg width="16" height="16" viewBox="0 0 16 16" fill="none" xmlns="http://www.w3.org/2000/svg">
<path d="M3.17459 9.90573L2.52762 13.678C2.43518 14.217 2.65675 14.7618 3.09921 15.0833C3.34951 15.2652 3.64598 15.3578 3.94389 15.3578C4.17264 15.3578 4.40215 15.3033 4.61241 15.1927L8.00006 13.4117L11.3878 15.1927C11.598 15.3033 11.8276 15.3578 12.0563 15.3578H12.0601C12.8529 15.3568 13.4952 14.7139 13.4952 13.9209C13.4952 13.8105 13.4827 13.7032 13.4593 13.5999L12.8256 9.90573L15.5663 7.23422C15.9579 6.85249 16.0989 6.28148 15.9299 5.76124C15.7609 5.2411 15.3113 4.86196 14.7701 4.78332L10.9826 4.233L9.28863 0.801003C9.04647 0.310554 8.54702 0 8.00006 0C7.45309 0 6.95364 0.310554 6.71157 0.800907L5.0178 4.233L1.23023 4.78332C0.689013 4.86196 0.23937 5.2411 0.0703955 5.76124C-0.0986753 6.28139 0.0423301 6.8524 0.433923 7.23422L3.17459 9.90573ZM6.17859 6.96821C6.64663 6.9002 7.05115 6.60621 7.26046 6.18224L8.00006 4.6835L8.73975 6.18224C8.94905 6.60631 9.35367 6.90029 9.82161 6.96821L11.4755 7.20855L10.2787 8.37518C9.94011 8.70528 9.7856 9.18088 9.86549 9.647L10.1481 11.2942L8.66877 10.5165C8.45947 10.4064 8.22976 10.3514 8.00015 10.3514C7.77054 10.3514 7.54083 10.4064 7.33153 10.5165L5.85233 11.2942L6.13482 9.647C6.21471 9.18088 6.0602 8.70528 5.72158 8.37518L4.52476 7.20855L6.17859 6.96821Z" fill="#FFD953"/>
</svg>
