<svg width="54" height="48" viewBox="0 0 54 48" fill="none" xmlns="http://www.w3.org/2000/svg">
<path d="M18.2588 38.9507C18.6958 38.5137 19.1559 37.8007 20.5589 37.8007C21.9619 37.8007 36.4063 37.8007 37.8093 37.8007C39.0858 37.8007 46.1125 30.751 47.0095 29.7505C47.872 28.7845 51.7016 23.0344 52.7597 20.5503C52.0926 19.6533 50.2871 18.9058 48.1595 19.4003C46.124 19.8718 44.928 21.3323 43.5594 24.0004L38.2923 26.7374" stroke="#23262F" stroke-width="2" stroke-miterlimit="10" stroke-linejoin="round"/>
<path d="M25.158 30.9006C25.158 30.9006 34.3582 30.9006 35.5083 30.9006C40.1084 30.9006 40.1084 25.1505 35.5083 25.1505C34.3582 25.1505 31.4832 25.1505 28.2861 25.1505C27.3316 25.1505 25.526 22.8504 24.008 22.8504C23.3295 22.8504 19.8104 22.8504 18.2579 22.8504C16.7053 22.8504 14.7733 24.1154 13.6577 25.1505C11.9327 26.8755 9.05764 29.7506 9.05764 29.7506" stroke="#23262F" stroke-width="2" stroke-miterlimit="10" stroke-linejoin="round"/>
<path d="M6.74921 27.4511L1 33.2003L14.7997 47L20.5489 41.2508L6.74921 27.4511Z" stroke="#23262F" stroke-width="2" stroke-miterlimit="10" stroke-linejoin="round"/>
<path d="M6.75783 33.2008L9.05788 35.5008" stroke="#23262F" stroke-width="2" stroke-miterlimit="10" stroke-linejoin="round"/>
<path d="M49.3092 19.4004V1H17.1084V22.8505" stroke="#23262F" stroke-width="2" stroke-miterlimit="10"/>
<path d="M37.8087 1V5.60011H28.6085V1" stroke="#23262F" stroke-width="2" stroke-miterlimit="10"/>
<path d="M20.5577 18.2504H22.8577" stroke="#23262F" stroke-width="2" stroke-miterlimit="10"/>
<path d="M24.0079 18.2504H26.3079" stroke="#23262F" stroke-width="2" stroke-miterlimit="10"/>
<path d="M27.4581 18.2504H29.7581" stroke="#23262F" stroke-width="2" stroke-miterlimit="10"/>
</svg>
