<svg width="43" height="43" viewBox="0 0 43 43" fill="none" xmlns="http://www.w3.org/2000/svg">
<path fill-rule="evenodd" clip-rule="evenodd" d="M21.4999 42.9998C33.3739 42.9998 42.9998 33.3739 42.9998 21.4999C42.9998 9.62582 33.3739 0 21.4999 0C9.62582 0 0 9.62582 0 21.4999C0 33.3739 9.62582 42.9998 21.4999 42.9998Z" fill="#353945"/>
<path fill-rule="evenodd" clip-rule="evenodd" d="M21.501 25.2533C20.0909 25.2533 18.9436 24.1302 18.9436 22.7517C18.9436 21.3723 20.0909 20.2492 21.501 20.2492C22.9111 20.2492 24.0584 21.3723 24.0584 22.7517C24.0584 24.1302 22.9111 25.2533 21.501 25.2533ZM21.5 19.2152C19.5061 19.2152 17.8844 20.8016 17.8844 22.752C17.8844 24.7016 19.5061 26.2879 21.5 26.2879C23.4939 26.2879 25.1157 24.7016 25.1157 22.752C25.1157 20.8016 23.4939 19.2152 21.5 19.2152ZM29.7897 26.545C29.7897 27.3171 29.1477 27.9442 28.3584 27.9442H14.6419C13.8526 27.9442 13.2106 27.3171 13.2106 26.545V19.0918C13.2106 18.3206 13.8526 17.6926 14.6419 17.6926H16.5925C17.2231 17.6926 17.7928 17.3027 18.0097 16.7213L18.5212 15.3471C18.5847 15.1737 18.7558 15.0572 18.9445 15.0572H24.0558C24.2445 15.0572 24.4156 15.1737 24.4799 15.3479L24.9905 16.7221C25.2075 17.3027 25.7772 17.6926 26.4077 17.6926H28.3584C29.1477 17.6926 29.7897 18.3206 29.7897 19.0918V26.545ZM28.3579 16.6581H26.4072C26.2194 16.6581 26.0492 16.5408 25.9839 16.3674L25.4742 14.9941C25.2591 14.4127 24.6885 14.0219 24.0553 14.0219H18.944C18.3108 14.0219 17.7403 14.4127 17.526 14.9932L17.0154 16.3666C16.9501 16.5408 16.7799 16.6581 16.5921 16.6581H14.6414C13.2683 16.6581 12.1519 17.7502 12.1519 19.0916V26.5448C12.1519 27.8871 13.2683 28.9783 14.6414 28.9783H28.3579C29.731 28.9783 30.8474 27.8871 30.8474 26.5448V19.0916C30.8474 17.7502 29.731 16.6581 28.3579 16.6581Z" fill="white"/>
</svg>
