<svg width="16" height="16" viewBox="0 0 16 16" fill="none" xmlns="http://www.w3.org/2000/svg">
<path d="M15.9297 5.76124C15.7608 5.2411 15.3111 4.86196 14.7699 4.78332L10.9824 4.233L9.28855 0.800907C9.04649 0.310458 8.54694 0 8.00007 0C7.4531 0 6.95365 0.310554 6.71158 0.801003L5.01781 4.233L1.23023 4.78332C0.689014 4.86196 0.239371 5.2411 0.0703961 5.76124C-0.0986749 6.28139 0.0423278 6.8524 0.433921 7.23422L3.1746 9.90573L2.52762 13.678C2.43519 14.217 2.65675 14.7618 3.09921 15.0833C3.34951 15.2652 3.64598 15.3578 3.94389 15.3578C4.17264 15.3578 4.40216 15.3033 4.61242 15.1927L7.99997 13.4117L11.3877 15.1927C11.5991 15.3038 11.8314 15.3546 12.0601 15.3578C12.8528 15.3568 13.4951 14.7139 13.4951 13.9209C13.4951 13.8105 13.4827 13.7032 13.4592 13.5999L12.8255 9.90573L15.5662 7.23422C15.9578 6.85249 16.0988 6.28148 15.9297 5.76124ZM10.2786 8.37518C9.94003 8.70528 9.78552 9.18088 9.86541 9.647L10.148 11.2942L8.66869 10.5165C8.45939 10.4064 8.22968 10.3514 8.00007 10.3514C7.77046 10.3514 7.54075 10.4064 7.33145 10.5165L5.85224 11.2942L6.13473 9.647C6.21472 9.18088 6.06011 8.70528 5.72149 8.37518L4.52468 7.20855L6.1787 6.96821C6.64664 6.9002 7.05126 6.60621 7.26056 6.18215L8.00016 4.6835L8.73977 6.18224C8.94907 6.60631 9.35369 6.90029 9.82163 6.9683L11.4756 7.20864L10.2786 8.37518Z" fill="#FFD953"/>
</svg>
