<svg width="26" height="26" viewBox="0 0 26 26" fill="none" xmlns="http://www.w3.org/2000/svg">
<path fill-rule="evenodd" clip-rule="evenodd" d="M15.6615 3.04129C14.8415 2.69223 13.9411 2.5 12.9998 2.5C9.53392 2.5 6.62229 5.10603 6.23954 8.55071L5.96676 11.0058C5.94695 11.184 5.93822 11.2623 5.92803 11.3387C5.80439 12.2667 5.50222 13.1619 5.0382 13.9749C4.99995 14.0419 4.95949 14.1094 4.86722 14.2632L4.24101 15.3069L4.21731 15.3464C3.91881 15.8438 3.6602 16.2748 3.49891 16.6355C3.33423 17.0039 3.19528 17.4569 3.34546 17.9381C3.41966 18.1758 3.54374 18.3949 3.70941 18.5809C4.04476 18.9572 4.5047 19.0711 4.90527 19.1194C5.29758 19.1667 5.80017 19.1667 6.38029 19.1667H6.38031L6.42638 19.1667H19.5732L19.6193 19.1667H19.6193C20.1994 19.1667 20.702 19.1667 21.0943 19.1194C21.4949 19.0711 21.9548 18.9572 22.2902 18.5809C22.4558 18.3949 22.5799 18.1758 22.6541 17.9381C22.8043 17.4569 22.6654 17.0039 22.5007 16.6355C22.3394 16.2748 22.0808 15.8439 21.7823 15.3464L21.7823 15.3464L21.7586 15.3069L21.1324 14.2632C21.0401 14.1094 20.9996 14.0419 20.9614 13.9749C20.5461 13.2473 20.2605 12.454 20.1165 11.6302C19.9143 11.6543 19.7085 11.6667 19.4998 11.6667C19.1899 11.6667 18.8864 11.6394 18.5915 11.5871C18.7449 12.6891 19.107 13.7519 19.6586 14.7184C19.7059 14.8012 19.755 14.8831 19.8407 15.026L19.841 15.0264L19.8461 15.035L20.4723 16.0786C20.8014 16.6271 21.0115 16.9798 21.1313 17.2478C21.2019 17.4058 21.2154 17.4804 21.2177 17.5045C21.2085 17.5289 21.1956 17.5518 21.1793 17.5722C21.1575 17.5826 21.0866 17.6095 20.9148 17.6302C20.6233 17.6654 20.2128 17.6667 19.5732 17.6667H6.42638C5.78682 17.6667 5.37629 17.6654 5.08481 17.6302C4.913 17.6095 4.84209 17.5826 4.82025 17.5722C4.80402 17.5518 4.79108 17.5289 4.78192 17.5045C4.78423 17.4804 4.79764 17.4058 4.86828 17.2478C4.98811 16.9798 5.19821 16.6271 5.52725 16.0786L6.15346 15.035L6.15842 15.0267C6.24441 14.8834 6.29366 14.8013 6.34096 14.7184C6.90098 13.7372 7.26567 12.6568 7.41489 11.5369C7.42749 11.4423 7.43806 11.3472 7.45651 11.1811L7.45651 11.1811L7.45758 11.1714L7.73037 8.71636C8.02871 6.03133 10.2982 4 12.9998 4C13.6353 4 14.2469 4.11241 14.8145 4.31928C15.0329 3.85084 15.3195 3.42059 15.6615 3.04129ZM18.1228 4.82712C17.6976 5.17751 17.4083 5.68685 17.3458 6.26421C17.7504 6.8422 18.0434 7.50645 18.1919 8.22756C18.5554 8.50314 19.0085 8.66667 19.4998 8.66667C19.5917 8.66667 19.6822 8.66095 19.7711 8.64985L19.76 8.55071C19.6015 7.12371 19.0089 5.84063 18.1228 4.82712ZM21.2181 17.5108L21.218 17.5136C21.2181 17.5136 21.2181 17.5132 21.2181 17.5124C21.2181 17.512 21.2181 17.5115 21.2181 17.5108ZM21.1873 17.5678C21.1874 17.5678 21.1866 17.5684 21.185 17.5693C21.1864 17.5683 21.1873 17.5678 21.1873 17.5678ZM4.81226 17.5678C4.81232 17.5678 4.81318 17.5683 4.81467 17.5693C4.81295 17.5684 4.8122 17.5678 4.81226 17.5678ZM4.78156 17.5136C4.78151 17.5136 4.78144 17.5127 4.78149 17.5107C4.78164 17.5126 4.78161 17.5136 4.78156 17.5136Z" fill="black"/>
<path d="M9.86074 19.1367C10.0459 20.1733 10.4539 21.0893 11.0215 21.7426C11.5891 22.3959 12.2846 22.75 13 22.75C13.7154 22.75 14.4109 22.3959 14.9785 21.7426C15.5461 21.0893 15.9541 20.1733 16.1393 19.1367" stroke="black" stroke-width="1.5" stroke-linecap="round"/>
<circle cx="18.5" cy="7.5" r="3.5" fill="#EF466F"/>
</svg>
