<svg width="13" height="20" viewBox="0 0 13 20" fill="none" xmlns="http://www.w3.org/2000/svg">
<path fill-rule="evenodd" clip-rule="evenodd" d="M6.25004 1.24993C4.92395 1.24993 3.65217 1.77672 2.71448 2.71441C1.77679 3.6521 1.25001 4.92387 1.25001 6.24996C1.25001 7.57605 1.77679 8.84783 2.71448 9.78552C3.65217 10.7232 4.92395 11.25 6.25004 11.25C7.57613 11.25 8.84791 10.7232 9.78559 9.78552C10.7233 8.84783 11.2501 7.57605 11.2501 6.24996C11.2501 4.92387 10.7233 3.6521 9.78559 2.71441C8.84791 1.77672 7.57613 1.24993 6.25004 1.24993ZM4.93761e-10 6.24996C1.51952e-05 5.04047 0.350966 3.85697 1.01029 2.84299C1.66961 1.82901 2.60898 1.02811 3.71447 0.537434C4.81996 0.0467586 6.04407 -0.112617 7.23835 0.0786378C8.43262 0.269892 9.54574 0.803559 10.4427 1.61492C11.3397 2.42627 11.982 3.48046 12.2917 4.64962C12.6014 5.81879 12.5652 7.0527 12.1875 8.20171C11.8099 9.35072 11.1069 10.3655 10.1639 11.1229C9.22095 11.8803 8.07847 12.3478 6.87504 12.4688V15H9.37506C9.54082 15 9.69979 15.0659 9.817 15.1831C9.93421 15.3003 10.0001 15.4593 10.0001 15.625C10.0001 15.7908 9.93421 15.9498 9.817 16.067C9.69979 16.1842 9.54082 16.25 9.37506 16.25H6.87504V19.375C6.87504 19.5408 6.80919 19.6998 6.69198 19.817C6.57477 19.9342 6.4158 20 6.25004 20C6.08428 20 5.9253 19.9342 5.80809 19.817C5.69088 19.6998 5.62503 19.5408 5.62503 19.375V16.25H3.12502C2.95926 16.25 2.80029 16.1842 2.68307 16.067C2.56586 15.9498 2.50002 15.7908 2.50002 15.625C2.50002 15.4593 2.56586 15.3003 2.68307 15.1831C2.80029 15.0659 2.95926 15 3.12502 15H5.62503V12.4688C4.08338 12.3138 2.65424 11.5918 1.61486 10.4427C0.575484 9.29358 -1.94647e-05 7.79938 4.93761e-10 6.24996Z" fill="#3A2C27"/>
</svg>
