<svg width="16" height="16" viewBox="0 0 16 16" fill="none" xmlns="http://www.w3.org/2000/svg">
<path fill-rule="evenodd" clip-rule="evenodd" d="M4.67033 2.36316C2.96241 3.52585 1.84391 5.48489 1.84391 7.70229C1.84391 11.2666 4.73333 14.156 8.29761 14.156C10.515 14.156 12.474 13.0375 13.6367 11.3295C8.9261 10.8146 5.18528 7.0737 4.67033 2.36316ZM14.7513 9.5462C15.5497 9.5462 16.2373 10.2498 15.9214 10.9832C14.6497 13.9341 11.7149 15.9999 8.29761 15.9999C3.71497 15.9999 0 12.2849 0 7.70229C0 4.28497 2.0658 1.35016 5.01673 0.0785316C5.75 -0.23746 6.45369 0.450126 6.45369 1.24858C6.45369 5.83123 10.1686 9.5462 14.7513 9.5462Z" fill="#F4F5F6"/>
</svg>
