<svg width="22" height="22" viewBox="0 0 22 22" fill="none" xmlns="http://www.w3.org/2000/svg">
<mask id="mask0_0_416" style="mask-type:luminance" maskUnits="userSpaceOnUse" x="1" y="1" width="20" height="20">
<path fill-rule="evenodd" clip-rule="evenodd" d="M1.69238 11.0001C1.69238 16.1406 5.85958 20.3078 11.0001 20.3078C16.1406 20.3078 20.3078 16.1406 20.3078 11.0001C20.3078 5.85958 16.1406 1.69238 11.0001 1.69238C5.85958 1.69238 1.69238 5.85958 1.69238 11.0001ZM15.3464 7.54126C14.9179 7.07609 14.2077 7.07609 13.7793 7.54126L9.66404 12.0092L8.22087 10.4424C7.79242 9.97719 7.08222 9.97719 6.65377 10.4424C6.24371 10.8876 6.24371 11.5961 6.65377 12.0413L8.88049 14.4589C9.30894 14.9241 10.0191 14.9241 10.4476 14.4589L15.3464 9.14021C15.7564 8.695 15.7564 7.98647 15.3464 7.54126Z" fill="white"/>
</mask>
<g mask="url(#mask0_0_416)">
<rect width="22" height="22" fill="#C8C7CC"/>
</g>
</svg>
