<svg width="49" height="34" viewBox="0 0 49 34" fill="none" xmlns="http://www.w3.org/2000/svg">
<rect width="49" height="33.6" rx="4.2" fill="#23262F"/>
<rect x="0.5" y="0.5" width="48" height="32.6" rx="3.7" stroke="#CCD2E3" stroke-opacity="0.31"/>
<path fill-rule="evenodd" clip-rule="evenodd" d="M14.8752 22.7616H11.9067L9.68074 14.2693C9.57509 13.8787 9.35075 13.5334 9.02076 13.3706C8.19724 12.9615 7.28977 12.636 6.2998 12.4718V12.1449H11.0817C11.7417 12.1449 12.2367 12.636 12.3192 13.2064L13.4742 19.3321L16.4412 12.1449H19.3271L14.8752 22.7616ZM20.9771 22.7616H18.1737L20.4821 12.1449H23.2856L20.9771 22.7616ZM26.9124 15.086C26.9949 14.5142 27.4899 14.1873 28.0674 14.1873C28.9749 14.1052 29.9634 14.2694 30.7884 14.677L31.2833 12.3912C30.4584 12.0642 29.5509 11.9 28.7274 11.9C26.0064 11.9 24.0265 13.3706 24.0265 15.4116C24.0265 16.9642 25.4289 17.7795 26.4189 18.2706C27.4899 18.7603 27.9024 19.0873 27.8199 19.577C27.8199 20.3116 26.9949 20.6385 26.1714 20.6385C25.1814 20.6385 24.1915 20.3937 23.2855 19.9846L22.7905 22.2719C23.7804 22.6795 24.8515 22.8437 25.8414 22.8437C28.8924 22.9243 30.7884 21.4552 30.7884 19.25C30.7884 16.4731 26.9124 16.3103 26.9124 15.086ZM40.5998 22.7616L38.3739 12.1449H35.9829C35.4879 12.1449 34.9929 12.4718 34.8279 12.9615L30.706 22.7616H33.5919L34.168 21.2103H37.7139L38.0439 22.7616H40.5998ZM36.3954 15.0039L37.2189 19.0052H34.9104L36.3954 15.0039Z" fill="#1E36A4"/>
</svg>
