<svg width="14" height="18" viewBox="0 0 14 18" fill="none" xmlns="http://www.w3.org/2000/svg">
<path d="M12.8333 12.2499C12.8333 11.1964 13.097 10.5372 13.3747 9.84189C13.6827 9.07306 14 8.27973 14 6.99989C14 4.79373 12.1847 3.75773 11.2245 3.51739C11.067 3.47656 10.8978 3.50573 10.7602 3.59789C10.7438 3.60839 9.1315 4.66656 7 4.66656C4.88367 4.66656 3.25617 3.60723 3.23867 3.59673C3.10333 3.50689 2.93417 3.47539 2.7755 3.51739C1.81533 3.75773 0 4.79373 0 6.99989C0 8.27973 0.317333 9.07306 0.625333 9.84189C0.903 10.5372 1.16667 11.1964 1.16667 12.2499C1.16667 14.4129 0.0723333 16.6342 0.0618333 16.6564C-0.0291667 16.8372 -0.0186666 17.0531 0.0875001 17.2234C0.193667 17.3949 0.3815 17.4999 0.583333 17.4999H13.4167C13.6185 17.4999 13.8063 17.3949 13.9125 17.2222C14.0187 17.0519 14.028 16.8361 13.9382 16.6552C13.9277 16.6342 12.8333 14.4129 12.8333 12.2499ZM1.47117 16.3332C1.834 15.4069 2.33333 13.8401 2.33333 12.2499C2.33333 10.9701 2.016 10.1767 1.708 9.40789C1.43033 8.71256 1.16667 8.05456 1.16667 6.99989C1.16667 5.51939 2.34617 4.91039 2.84433 4.72023C3.437 5.05739 5.0155 5.83323 7 5.83323C8.98333 5.83323 10.563 5.05739 11.1557 4.72023C11.655 4.91156 12.8333 5.52056 12.8333 6.99989C12.8333 8.05456 12.5697 8.71256 12.292 9.40789C11.984 10.1767 11.6667 10.9701 11.6667 12.2499C11.6667 13.8401 12.166 15.4069 12.5288 16.3332H1.47117Z" fill="black"/>
<path d="M2.91683 0C2.59483 0 2.3335 0.261333 2.3335 0.583333V4.08333C2.3335 4.40533 2.59483 4.66667 2.91683 4.66667C3.23883 4.66667 3.50016 4.40533 3.50016 4.08333V0.583333C3.50016 0.261333 3.23883 0 2.91683 0Z" fill="black"/>
<path d="M11.0833 0C10.7613 0 10.5 0.261333 10.5 0.583333V4.08333C10.5 4.40533 10.7613 4.66667 11.0833 4.66667C11.4053 4.66667 11.6667 4.40533 11.6667 4.08333V0.583333C11.6667 0.261333 11.4053 0 11.0833 0Z" fill="black"/>
</svg>
