<svg width="35" height="35" viewBox="0 0 35 35" fill="none" xmlns="http://www.w3.org/2000/svg">
<path d="M4.375 16.0417C4.375 10.5419 4.375 7.79209 6.08354 6.08354C7.79209 4.375 10.5419 4.375 16.0417 4.375H18.9583C24.4581 4.375 27.2079 4.375 28.9165 6.08354C30.625 7.79209 30.625 10.5419 30.625 16.0417V18.9583C30.625 24.4581 30.625 27.2079 28.9165 28.9165C27.2079 30.625 24.4581 30.625 18.9583 30.625H16.0417C10.5419 30.625 7.79209 30.625 6.08354 28.9165C4.375 27.2079 4.375 24.4581 4.375 18.9583V16.0417Z" stroke="#E6E8EC" stroke-width="2"/>
<path fill-rule="evenodd" clip-rule="evenodd" d="M27.7083 19.8121L27.6785 19.7823C27.1103 19.2141 26.6201 18.7239 26.1826 18.3551C25.7204 17.9656 25.2173 17.6231 24.5972 17.436C23.7731 17.1874 22.8939 17.1874 22.0698 17.436C21.4497 17.6231 20.9466 17.9656 20.4845 18.3551C20.0469 18.7239 19.5568 19.2141 18.9886 19.7823L18.9886 19.7823L18.947 19.8239C18.4995 20.2714 18.2361 20.5326 18.0318 20.7016C18.0214 20.7102 18.0116 20.7181 18.0024 20.7255C17.9965 20.7152 17.9904 20.7042 17.9839 20.6924C17.857 20.4596 17.7094 20.1193 17.4602 19.5376L17.3823 19.3559L17.3501 19.2807C16.831 18.0694 16.3951 17.0522 15.9637 16.2857C15.5192 15.4958 14.9653 14.7551 14.102 14.3223C13.3819 13.9613 12.5761 13.8062 11.7735 13.8739C10.8111 13.9551 10.0218 14.4371 9.31578 15.0054C8.72468 15.4812 8.06126 16.1288 7.29199 16.8959V18.9581C7.29199 19.7117 7.29243 20.3943 7.29649 21.0159L8.92081 19.3916C9.92583 18.3865 10.597 17.7182 11.1446 17.2775C11.6855 16.8421 11.9182 16.7887 12.0187 16.7802C12.2863 16.7577 12.5549 16.8094 12.7949 16.9297C12.8851 16.9749 13.0813 17.111 13.4219 17.7161C13.7666 18.3286 14.1415 19.1984 14.7014 20.5048L14.7793 20.6865L14.8031 20.7421C15.0203 21.2489 15.222 21.7198 15.4234 22.089C15.6344 22.4759 15.9409 22.9393 16.457 23.2588C17.0656 23.6355 17.7914 23.7753 18.4963 23.6516C19.0942 23.5466 19.5509 23.2301 19.8905 22.9493C20.2146 22.6813 20.5767 22.3191 20.9666 21.9291L20.9666 21.9291L21.0094 21.8863C21.6309 21.2648 22.0331 20.8643 22.3641 20.5854C22.6811 20.3182 22.8307 20.253 22.9123 20.2284C23.187 20.1455 23.48 20.1455 23.7547 20.2284C23.8363 20.253 23.9859 20.3182 24.3029 20.5854C24.6339 20.8643 25.0361 21.2648 25.6577 21.8863L27.6272 23.8558C27.6943 22.809 27.7062 21.5075 27.7083 19.8121Z" fill="#E6E8EC"/>
<circle cx="24.0625" cy="10.9375" r="2.1875" fill="#E6E8EC"/>
</svg>
