<svg width="27" height="27" viewBox="0 0 27 27" fill="none" xmlns="http://www.w3.org/2000/svg">
<path fill-rule="evenodd" clip-rule="evenodd" d="M21.1701 15.8907C20.4766 15.0867 19.2855 15.1281 18.3542 15.6379C16.9129 16.4268 15.2587 16.8753 13.4998 16.8753C11.7409 16.8753 10.0867 16.4268 8.64547 15.6379C7.71409 15.1281 6.52298 15.0867 5.82952 15.8907C4.29976 17.6644 3.37475 19.9744 3.37475 22.5004V23.6254C3.37475 24.868 4.38211 25.8754 5.62476 25.8754H21.3749C22.6175 25.8754 23.6249 24.868 23.6249 23.6254V22.5004C23.6249 19.9744 22.6999 17.6644 21.1701 15.8907Z" fill="#FCFCFD"/>
<path d="M19.1255 6.74995C19.1255 9.85658 16.6071 12.375 13.5005 12.375C10.3938 12.375 7.87542 9.85658 7.87542 6.74995C7.87542 3.64333 10.3938 1.12492 13.5005 1.12492C16.6071 1.12492 19.1255 3.64333 19.1255 6.74995Z" fill="#FCFCFD"/>
</svg>
