<svg width="14" height="13" viewBox="0 0 14 13" fill="none" xmlns="http://www.w3.org/2000/svg">
<mask id="mask0_8782_1920" style="mask-type:luminance" maskUnits="userSpaceOnUse" x="1" y="1" width="12" height="11">
<path d="M6.24529 1.27881C6.43457 0.907218 6.98137 0.907218 7.17064 1.27881L8.64506 4.17341L11.9423 4.64044C12.3654 4.70036 12.534 5.20429 12.2277 5.49338L9.84225 7.74493L10.4052 10.9258C10.4775 11.3343 10.035 11.6458 9.65651 11.4528L6.70797 9.95021L3.75942 11.4528C3.38089 11.6458 2.93842 11.3343 3.01071 10.9258L3.57368 7.74493L1.18824 5.49338C0.88196 5.20429 1.05057 4.70036 1.47362 4.64044L4.77087 4.17341L6.24529 1.27881Z" fill="white"/>
</mask>
<g mask="url(#mask0_8782_1920)">
<rect width="13.4153" height="13.0002" fill="#508A7B"/>
</g>
</svg>
