<svg width="31" height="30" viewBox="0 0 31 30" fill="none" xmlns="http://www.w3.org/2000/svg">
<path d="M16.7912 1.55227L16.7912 1.55236L30.0036 14.7579C30.0036 14.7579 30.0037 14.7579 30.0037 14.758C30.3243 15.0787 30.4999 15.5022 30.4999 15.9497L30.4999 15.9517C30.5008 16.1732 30.4578 16.3927 30.3732 16.5974C30.2887 16.8021 30.1644 16.9881 30.0076 17.1444L30.007 17.145C29.6866 17.4654 29.2631 17.6413 28.8117 17.6413H27.3277H26.8275V18.1415V28.7782H4.17275V18.1415V17.6413H3.67254H2.21931C1.28087 17.6413 0.510778 16.8922 0.500314 15.9714L0.500314 15.9714C0.497751 15.7464 0.540292 15.5231 0.625425 15.3148C0.710559 15.1065 0.836559 14.9174 0.99599 14.7586L0.996595 14.758L15.0936 0.667826C15.0937 0.667649 15.0939 0.667473 15.0941 0.667297C15.2021 0.560264 15.348 0.500205 15.5001 0.500205C15.6522 0.500205 15.7982 0.560266 15.9062 0.6673C15.9064 0.667475 15.9065 0.66765 15.9067 0.667826L16.7912 1.55227ZM17.415 27.3167H17.9152V26.8165V19.841V19.3408H17.415H13.5853H13.0851V19.841V26.8165V27.3167H13.5853H17.415ZM5.63428 16.1798V26.8165V27.3167H6.13449H11.3969H11.8971V26.8165V19.0203C11.8971 18.5409 12.2852 18.1528 12.7646 18.1528H18.2356C18.7151 18.1528 19.1032 18.5409 19.1032 19.0203V26.8165V27.3167H19.6034H24.8658H25.366V26.8165V16.1798H28.1518H29.3599L28.5054 15.3258L16.6471 3.47437L16.647 3.47427L15.8573 2.6845L15.5037 2.33094L15.15 2.68435L2.49834 15.3258L1.6436 16.1798H2.85189H5.63428Z" fill="#777E91" stroke="#353945"/>
</svg>
