<svg width="21" height="15" viewBox="0 0 21 15" fill="none" xmlns="http://www.w3.org/2000/svg">
<path d="M6.80669 0C6.42989 -2.05455e-06 6.05751 0.0811141 5.71485 0.237836C5.37219 0.394558 5.06729 0.623212 4.82086 0.908258L0.475131 5.93649C0.168009 6.29307 -0.000629837 6.74821 1.76775e-06 7.21882V11.1564C1.76775e-06 12.0266 0.345707 12.8612 0.961067 13.4766C1.57643 14.0919 2.41103 14.4376 3.28128 14.4376H5.90631C6.77656 14.4376 7.61116 14.0919 8.22652 13.4766C8.84188 12.8612 9.18759 12.0266 9.18759 11.1564V9.18759H11.8126V11.1564C11.8126 12.0266 12.1583 12.8612 12.7737 13.4766C13.389 14.0919 14.2236 14.4376 15.0939 14.4376H17.7189C18.5892 14.4376 19.4238 14.0919 20.0391 13.4766C20.6545 12.8612 21.0002 12.0266 21.0002 11.1564V7.21882C21.0002 6.65575 20.7639 6.14912 20.3859 5.7908L16.1793 0.910883C15.933 0.625191 15.628 0.395944 15.2851 0.238757C14.9422 0.0815695 14.5694 0.000135032 14.1922 0H13.1251C12.9511 0 12.7842 0.0691412 12.6611 0.192213C12.538 0.315285 12.4689 0.482206 12.4689 0.656256C12.4689 0.830306 12.538 0.997227 12.6611 1.1203C12.7842 1.24337 12.9511 1.31251 13.1251 1.31251H14.1922C14.3808 1.31258 14.5672 1.3533 14.7386 1.43189C14.9101 1.51048 15.0626 1.62511 15.1858 1.76795L18.1875 5.25005H13.7814C13.2592 5.25005 12.7585 5.45747 12.3893 5.82669C12.02 6.1959 11.8126 6.69667 11.8126 7.21882V7.87507H9.18759V7.21882C9.18759 6.69667 8.98016 6.1959 8.61095 5.82669C8.24173 5.45747 7.74097 5.25005 7.21882 5.25005H2.80222L5.81443 1.76664C5.93757 1.6242 6.08992 1.50992 6.26113 1.43157C6.43234 1.35321 6.6184 1.31261 6.80669 1.31251H7.87508C8.04913 1.31251 8.21605 1.24337 8.33912 1.1203C8.46219 0.997227 8.53133 0.830306 8.53133 0.656256C8.53133 0.482206 8.46219 0.315285 8.33912 0.192213C8.21605 0.0691412 8.04913 0 7.87508 0H6.80669ZM7.87508 7.21882V11.1564C7.87508 11.6785 7.66765 12.1793 7.29844 12.5485C6.92922 12.9177 6.42846 13.1251 5.90631 13.1251H3.28128C2.75913 13.1251 2.25837 12.9177 1.88915 12.5485C1.51994 12.1793 1.31251 11.6785 1.31251 11.1564V7.21882C1.31251 7.04477 1.38166 6.87785 1.50473 6.75477C1.6278 6.6317 1.79472 6.56256 1.96877 6.56256H7.21882C7.39287 6.56256 7.55979 6.6317 7.68286 6.75477C7.80593 6.87785 7.87508 7.04477 7.87508 7.21882ZM13.1251 11.1564V7.21882C13.1251 7.04477 13.1943 6.87785 13.3173 6.75477C13.4404 6.6317 13.6073 6.56256 13.7814 6.56256H19.0314C19.1889 6.56256 19.3333 6.61769 19.4462 6.71088L19.5184 6.79356L19.5262 6.78831C19.6304 6.90753 19.6878 7.0605 19.6877 7.21882V11.1564C19.6877 11.6785 19.4803 12.1793 19.111 12.5485C18.7418 12.9177 18.2411 13.1251 17.7189 13.1251H15.0939C14.5717 13.1251 14.071 12.9177 13.7018 12.5485C13.3325 12.1793 13.1251 11.6785 13.1251 11.1564Z" fill="#B1B5C4"/>
</svg>
