<svg width="19" height="19" viewBox="0 0 19 19" fill="none" xmlns="http://www.w3.org/2000/svg">
<path d="M11.191 2.6613L10.4448 2.73593V2.73593L11.191 2.6613ZM11.1485 2.34143L11.8762 2.15988L11.8762 2.15987L11.1485 2.34143ZM11.2709 3.23399L10.5571 3.46421V3.46421L11.2709 3.23399ZM12.6785 3.81705L13.0204 4.48457L13.0204 4.48456L12.6785 3.81705ZM13.1399 3.46856L13.6148 4.04903V4.04903L13.1399 3.46856ZM13.3961 3.27244L13.7823 3.91537L13.7823 3.91537L13.3961 3.27244ZM14.5087 3.32793L14.0605 3.92924L14.5087 3.32793ZM14.7441 3.54857L14.2138 4.0789L14.2138 4.0789L14.7441 3.54857ZM15.4515 4.2559L14.9211 4.78623L14.9211 4.78623L15.4515 4.2559ZM15.6721 4.49136L16.2734 4.04312L16.2734 4.04312L15.6721 4.49136ZM15.7276 5.60391L15.0847 5.21773L15.0847 5.21774L15.7276 5.60391ZM15.5315 5.86016L14.951 5.3852L14.9458 5.39164L15.5315 5.86016ZM15.5315 5.86017L16.112 6.33512L16.1171 6.32869L15.5315 5.86017ZM15.183 6.32158L14.5155 5.97965L14.5155 5.97966L15.183 6.32158ZM15.766 7.7292L15.9963 7.01541H15.9963L15.766 7.7292ZM16.3388 7.80905L16.4621 7.06925L16.4378 7.06521L16.4134 7.06277L16.3388 7.80905ZM16.3388 7.80905L16.2155 8.54884L16.2397 8.55288L16.2641 8.55533L16.3388 7.80905ZM16.6587 7.85156L16.8402 7.12387L16.8402 7.12387L16.6587 7.85156ZM17.4061 8.67748L18.1483 8.56923V8.56923L17.4061 8.67748ZM17.4061 10.3228L18.1483 10.431V10.431L17.4061 10.3228ZM16.6586 11.1488L16.4771 10.4211L16.4771 10.4211L16.6586 11.1488ZM16.3389 11.1913L16.2642 10.4449L16.256 10.4459L16.3389 11.1913ZM16.3388 11.1913L16.4135 11.9376L16.4217 11.9367L16.3388 11.1913ZM15.7665 11.271L15.9966 11.9849H15.9966L15.7665 11.271ZM15.1834 12.6789L14.5159 13.0209V13.0209L15.1834 12.6789ZM15.5316 13.1399L16.1121 12.665L15.5316 13.1399ZM15.7276 13.396L16.3705 13.0097L16.3705 13.0097L15.7276 13.396ZM15.6721 14.5087L16.2734 14.957L16.2734 14.957L15.6721 14.5087ZM14.5087 15.672L14.0605 15.0707L14.0605 15.0707L14.5087 15.672ZM13.3962 15.7275L13.7824 15.0846V15.0846L13.3962 15.7275ZM13.1399 15.5314L13.6149 14.9509L13.6085 14.9458L13.1399 15.5314ZM13.1399 15.5314L12.665 16.1119L12.6714 16.1171L13.1399 15.5314ZM12.6785 15.1829L12.3366 15.8504L12.3366 15.8504L12.6785 15.1829ZM11.2709 15.766L11.9847 15.9962L11.9847 15.9962L11.2709 15.766ZM11.1911 16.3388L11.9353 16.4318L11.9364 16.4226L11.9373 16.4134L11.1911 16.3388ZM11.1911 16.3388L10.4468 16.2458L10.4457 16.255L10.4448 16.2642L11.1911 16.3388ZM11.1485 16.659L10.4208 16.4774V16.4774L11.1485 16.659ZM10.3227 17.4063L10.431 18.1485H10.431L10.3227 17.4063ZM8.67724 17.4064L8.78549 16.6642H8.78549L8.67724 17.4064ZM7.85132 16.6589L8.57901 16.4773L7.85132 16.6589ZM7.8088 16.339L8.55508 16.2644V16.2644L7.8088 16.339ZM7.72896 15.7663L8.44274 15.536L8.44274 15.536L7.72896 15.7663ZM6.32135 15.1832L6.66327 15.8508L6.66327 15.8508L6.32135 15.1832ZM5.8599 15.5318L6.32844 16.1174L6.33482 16.1122L5.8599 15.5318ZM5.85988 15.5318L5.39133 14.9461L5.38495 14.9513L5.85988 15.5318ZM5.60362 15.7279L5.98979 16.3708L5.9898 16.3708L5.60362 15.7279ZM4.49109 15.6724L4.93932 15.0711L4.93932 15.0711L4.49109 15.6724ZM4.25564 15.4518L3.72531 15.9821L3.72531 15.9821L4.25564 15.4518ZM4.25561 15.4517L3.72528 15.9821L4.25561 15.4517ZM3.5483 14.7444L4.07863 14.2141L4.06949 14.205L4.06004 14.1961L3.5483 14.7444ZM3.54828 14.7444L3.01795 15.2747L3.02709 15.2839L3.03654 15.2927L3.54828 14.7444ZM3.32764 14.509L2.72632 14.9572L2.72632 14.9572L3.32764 14.509ZM3.27215 13.3964L2.62922 13.0102L2.62921 13.0103L3.27215 13.3964ZM3.46829 13.1402L4.04876 13.6151L4.04876 13.6151L3.46829 13.1402ZM3.8168 12.6787L4.48432 13.0207H4.48432L3.8168 12.6787ZM3.23374 11.2711L3.00351 11.9849L3.00352 11.9849L3.23374 11.2711ZM2.66105 11.1913L2.56657 11.9353L2.57648 11.9366L2.58643 11.9376L2.66105 11.1913ZM2.66103 11.1913L2.75551 10.4472L2.7456 10.446L2.73565 10.445L2.66103 11.1913ZM2.34118 11.1488L2.15963 11.8765H2.15963L2.34118 11.1488ZM1.59372 10.3228L0.851573 10.4311V10.4311L1.59372 10.3228ZM1.59373 8.67741L2.33587 8.78572L2.33587 8.78572L1.59373 8.67741ZM2.34111 7.85158L2.1595 7.1239H2.1595L2.34111 7.85158ZM2.66115 7.80904L2.73578 8.55532H2.73578L2.66115 7.80904ZM3.23415 7.72914L3.00384 7.01538H3.00384L3.23415 7.72914ZM3.81715 6.32165L4.48471 5.9798L3.81715 6.32165ZM3.46844 5.85995L2.88635 6.33289L2.88797 6.33487L3.46844 5.85995ZM3.46843 5.85994L4.05052 5.38699L4.02612 5.35696L3.99876 5.32961L3.46843 5.85994ZM3.46843 5.85993L2.88796 6.33486L2.91165 6.36381L2.9381 6.39026L3.46843 5.85993ZM3.27213 5.60346L3.91511 5.21735L3.91511 5.21735L3.27213 5.60346ZM3.32761 4.49109L2.72624 4.04293L2.72624 4.04293L3.32761 4.49109ZM3.54843 4.25544L3.0181 3.72511L3.0181 3.72511L3.54843 4.25544ZM4.25565 3.54823L3.72532 3.0179L3.72532 3.0179L4.25565 3.54823ZM4.49113 3.32756L4.0429 2.72623L4.04289 2.72623L4.49113 3.32756ZM5.60366 3.27207L5.98983 2.62913L5.98983 2.62913L5.60366 3.27207ZM5.85999 3.46827L5.38506 4.04873L5.38506 4.04873L5.85999 3.46827ZM6.32126 3.81668L5.97925 4.48416L5.97925 4.48416L6.32126 3.81668ZM7.72903 3.23357L7.01521 3.00342V3.00343L7.72903 3.23357ZM7.80882 2.6612L7.06461 2.56817L7.06346 2.57736L7.06254 2.58657L7.80882 2.6612ZM7.80882 2.66118L8.55302 2.75421L8.55417 2.74502L8.55509 2.73581L7.80882 2.66118ZM7.85129 2.34151L8.579 2.523L8.579 2.523L7.85129 2.34151ZM8.67733 1.59395L8.78551 2.33611L8.78551 2.33611L8.67733 1.59395ZM10.3226 1.59397L10.4308 0.851818V0.851818L10.3226 1.59397ZM11.9373 2.58668C11.9232 2.44577 11.9102 2.29618 11.8762 2.15988L10.4208 2.52297C10.4195 2.51746 10.4215 2.52314 10.426 2.55922C10.4309 2.59779 10.4361 2.64899 10.4448 2.73593L11.9373 2.58668ZM11.9847 3.00376C11.99 3.02018 11.9847 3.01074 11.9741 2.93006C11.964 2.85289 11.9535 2.74855 11.9373 2.58667L10.4448 2.73593C10.4712 3.00049 10.493 3.26557 10.5571 3.46421L11.9847 3.00376ZM12.3366 3.14953C12.1994 3.21979 12.032 3.15043 11.9847 3.00376L10.5571 3.46421C10.8882 4.49086 12.0603 4.97637 13.0204 4.48457L12.3366 3.14953ZM12.665 2.88809C12.5391 2.99111 12.4579 3.05745 12.3961 3.10487C12.3316 3.15445 12.3212 3.15739 12.3366 3.14953L13.0204 4.48456C13.2062 4.38941 13.4091 4.21739 13.6148 4.04903L12.665 2.88809ZM13.01 2.62951C12.8895 2.70184 12.7746 2.79842 12.665 2.88809L13.6148 4.04903C13.6825 3.9937 13.7223 3.96116 13.753 3.93733C13.7818 3.91503 13.7872 3.91244 13.7823 3.91537L13.01 2.62951ZM14.9569 2.72661C14.3877 2.3023 13.6186 2.26394 13.01 2.62951L13.7823 3.91537C13.8693 3.86315 13.9791 3.86863 14.0605 3.92924L14.9569 2.72661ZM15.2745 3.01824C15.1744 2.91811 15.0696 2.81057 14.9569 2.72661L14.0605 3.92924C14.0559 3.92585 14.0611 3.92896 14.0874 3.95401C14.1156 3.98078 14.152 4.01712 14.2138 4.0789L15.2745 3.01824ZM15.9818 3.72557L15.2745 3.01824L14.2138 4.0789L14.9211 4.78623L15.9818 3.72557ZM16.2734 4.04312C16.1895 3.93049 16.0819 3.8257 15.9818 3.72557L14.9211 4.78623C14.9829 4.84801 15.0193 4.88444 15.046 4.91263C15.0711 4.939 15.0742 4.94416 15.0708 4.9396L16.2734 4.04312ZM16.3706 5.99009C16.7361 5.38149 16.6978 4.61233 16.2734 4.04312L15.0708 4.9396C15.1314 5.02091 15.1369 5.13079 15.0847 5.21773L16.3706 5.99009ZM16.112 6.33509C16.2016 6.22549 16.2982 6.11052 16.3706 5.99009L15.0847 5.21774C15.0876 5.21286 15.085 5.2183 15.0627 5.24703C15.0389 5.27774 15.0064 5.31761 14.951 5.38523L16.112 6.33509ZM16.1171 6.32869L16.1171 6.32868L14.9458 5.39164L14.9458 5.39165L16.1171 6.32869ZM15.8505 6.66351C15.8426 6.67886 15.8456 6.66846 15.8952 6.60394C15.9426 6.54222 16.0089 6.46101 16.112 6.3351L14.951 5.38524C14.7826 5.59103 14.6106 5.79388 14.5155 5.97965L15.8505 6.66351ZM15.9963 7.01541C15.8496 6.96811 15.7803 6.80066 15.8505 6.66351L14.5155 5.97966C14.0237 6.93975 14.5092 8.11185 15.5358 8.44299L15.9963 7.01541ZM16.4134 7.06277C16.2515 7.04658 16.1472 7.03606 16.07 7.02596C15.9893 7.01539 15.9799 7.01012 15.9963 7.01541L15.5358 8.44299C15.7345 8.50706 15.9996 8.52887 16.2641 8.55532L16.4134 7.06277ZM16.4621 7.06925L16.4621 7.06925L16.2155 8.54884L16.2155 8.54884L16.4621 7.06925ZM16.8402 7.12387C16.7039 7.08986 16.5543 7.07686 16.4134 7.06277L16.2641 8.55533C16.3511 8.56402 16.4023 8.5692 16.4409 8.57406C16.4769 8.57861 16.4826 8.58063 16.4771 8.57925L16.8402 7.12387ZM18.1483 8.56923C18.0458 7.86672 17.5291 7.29573 16.8402 7.12387L16.4771 8.57925C16.5755 8.60381 16.6493 8.68537 16.664 8.78573L18.1483 8.56923ZM18.1666 9.00002C18.1666 8.85841 18.1685 8.70825 18.1483 8.56923L16.664 8.78573C16.6631 8.7801 16.6646 8.78595 16.6655 8.82231C16.6665 8.86118 16.6666 8.91264 16.6666 9.00002H18.1666ZM18.1666 10.0004V9.00002H16.6666V10.0004H18.1666ZM18.1483 10.431C18.1685 10.292 18.1666 10.1419 18.1666 10.0004H16.6666C16.6666 10.0877 16.6665 10.1392 16.6655 10.178C16.6646 10.2144 16.6631 10.2202 16.664 10.2146L18.1483 10.431ZM16.8401 11.8765C17.529 11.7047 18.0458 11.1336 18.1483 10.431L16.664 10.2146C16.6493 10.3149 16.5755 10.3965 16.4771 10.4211L16.8401 11.8765ZM16.4135 11.9375C16.5543 11.9235 16.7039 11.9105 16.8401 11.8765L16.4771 10.4211C16.4826 10.4197 16.4769 10.4217 16.4409 10.4263C16.4023 10.4311 16.3511 10.4363 16.2642 10.445L16.4135 11.9375ZM16.4217 11.9367L16.4217 11.9367L16.256 10.4459L16.256 10.4459L16.4217 11.9367ZM15.9966 11.9849C15.9802 11.9902 15.9896 11.9849 16.0703 11.9743C16.1474 11.9642 16.2517 11.9537 16.4135 11.9375L16.2642 10.445C15.9998 10.4714 15.7349 10.4932 15.5364 10.5572L15.9966 11.9849ZM15.8508 12.3368C15.7805 12.1996 15.8499 12.0322 15.9966 11.9849L15.5364 10.5572C14.5095 10.8883 14.0238 12.0607 14.5159 13.0209L15.8508 12.3368ZM16.1121 12.665C16.0091 12.5392 15.9428 12.458 15.8955 12.3963C15.8459 12.3319 15.843 12.3215 15.8508 12.3368L14.5159 13.0209C14.611 13.2065 14.7829 13.4092 14.9511 13.6148L16.1121 12.665ZM16.3705 13.0097C16.2982 12.8894 16.2017 12.7745 16.1121 12.665L14.9511 13.6148C15.0064 13.6824 15.0389 13.7223 15.0628 13.7529C15.085 13.7817 15.0876 13.7871 15.0847 13.7822L16.3705 13.0097ZM16.2734 14.957C16.6978 14.3877 16.7362 13.6184 16.3705 13.0097L15.0847 13.7822C15.1369 13.8692 15.1315 13.9791 15.0708 14.0604L16.2734 14.957ZM15.9819 15.2743C16.082 15.1743 16.1895 15.0695 16.2734 14.957L15.0708 14.0604C15.0742 14.0558 15.0711 14.061 15.0461 14.0873C15.0193 14.1155 14.983 14.1519 14.9213 14.2137L15.9819 15.2743ZM15.2745 15.9817L15.9819 15.2743L14.9213 14.2137L14.2139 14.9211L15.2745 15.9817ZM14.957 16.2734C15.0696 16.1894 15.1744 16.0819 15.2745 15.9817L14.2139 14.9211C14.1521 14.9829 14.1156 15.0192 14.0875 15.046C14.0611 15.071 14.0559 15.0741 14.0605 15.0707L14.957 16.2734ZM13.01 16.3705C13.6186 16.736 14.3878 16.6977 14.957 16.2734L14.0605 15.0707C13.9792 15.1313 13.8693 15.1368 13.7824 15.0846L13.01 16.3705ZM12.665 16.1119C12.7746 16.2016 12.8896 16.2981 13.01 16.3705L13.7824 15.0846C13.7872 15.0875 13.7818 15.0849 13.7531 15.0626C13.7223 15.0388 13.6825 15.0063 13.6149 14.951L12.665 16.1119ZM12.6714 16.1171L12.6714 16.1171L13.6085 14.9458L13.6084 14.9458L12.6714 16.1171ZM12.3366 15.8504C12.3213 15.8426 12.3317 15.8455 12.3962 15.8951C12.4579 15.9425 12.5391 16.0089 12.665 16.1119L13.6149 14.9509C13.4091 14.7826 13.2062 14.6106 13.0205 14.5154L12.3366 15.8504ZM11.9847 15.9962C12.032 15.8495 12.1994 15.7802 12.3366 15.8504L13.0205 14.5154C12.0604 14.0236 10.8882 14.5091 10.5571 15.5358L11.9847 15.9962ZM11.9373 16.4134C11.9535 16.2515 11.964 16.1471 11.9742 16.0699C11.9847 15.9892 11.99 15.9798 11.9847 15.9962L10.5571 15.5358C10.493 15.7344 10.4712 15.9995 10.4448 16.2642L11.9373 16.4134ZM11.9353 16.4319L11.9353 16.4318L10.4468 16.2458L10.4468 16.2458L11.9353 16.4319ZM11.8762 16.8406C11.9102 16.7042 11.9232 16.5545 11.9373 16.4135L10.4448 16.2642C10.4361 16.3512 10.4309 16.4025 10.426 16.4411C10.4215 16.4772 10.4194 16.4829 10.4208 16.4774L11.8762 16.8406ZM10.431 18.1485C11.1334 18.046 11.7043 17.5293 11.8762 16.8406L10.4208 16.4774C10.3963 16.5758 10.3147 16.6496 10.2144 16.6642L10.431 18.1485ZM9.99996 18.1668C10.1417 18.1668 10.2919 18.1688 10.431 18.1485L10.2144 16.6642C10.22 16.6634 10.2141 16.6648 10.1778 16.6658C10.1389 16.6668 10.0874 16.6668 9.99996 16.6668V18.1668ZM8.99978 18.1668H9.99996V16.6668H8.99978V18.1668ZM8.56898 18.1485C8.70801 18.1688 8.85816 18.1668 8.99978 18.1668V16.6668C8.9124 16.6668 8.86094 16.6668 8.82207 16.6658C8.78571 16.6648 8.77986 16.6634 8.78549 16.6642L8.56898 18.1485ZM7.12362 16.8405C7.29549 17.5293 7.86648 18.046 8.56899 18.1485L8.78549 16.6642C8.68513 16.6496 8.60356 16.5758 8.57901 16.4773L7.12362 16.8405ZM7.06253 16.4136C7.07662 16.5546 7.08961 16.7042 7.12362 16.8405L8.57901 16.4773C8.58039 16.4829 8.57837 16.4772 8.57382 16.4411C8.56895 16.4025 8.56378 16.3513 8.55508 16.2644L7.06253 16.4136ZM7.01517 15.9965C7.00987 15.9801 7.01515 15.9895 7.02571 16.0702C7.03582 16.1474 7.04634 16.2518 7.06253 16.4136L8.55508 16.2644C8.52862 15.9998 8.50682 15.7347 8.44274 15.536L7.01517 15.9965ZM6.66327 15.8508C6.80042 15.7805 6.96786 15.8499 7.01517 15.9965L8.44274 15.536C8.11159 14.5094 6.93951 14.0239 5.97943 14.5157L6.66327 15.8508ZM6.33482 16.1122C6.46075 16.0092 6.54197 15.9428 6.60369 15.8954C6.66822 15.8458 6.67862 15.8429 6.66327 15.8508L5.97943 14.5157C5.79365 14.6109 5.59077 14.7829 5.38497 14.9513L6.33482 16.1122ZM6.3284 16.1174L6.32842 16.1174L5.39137 14.9461L5.39136 14.9461L6.3284 16.1174ZM5.9898 16.3708C6.11023 16.2985 6.22521 16.2019 6.33481 16.1122L5.38495 14.9513C5.31733 15.0066 5.27746 15.0392 5.24675 15.063C5.21802 15.0853 5.21257 15.0879 5.21745 15.085L5.9898 16.3708ZM4.04286 16.2737C4.61206 16.698 5.3812 16.7364 5.98979 16.3708L5.21745 15.085C5.13051 15.1372 5.02063 15.1317 4.93932 15.0711L4.04286 16.2737ZM3.72531 15.9821C3.82543 16.0822 3.93022 16.1898 4.04286 16.2737L4.93932 15.0711C4.94388 15.0745 4.93873 15.0714 4.91236 15.0463C4.88417 15.0196 4.84774 14.9832 4.78596 14.9214L3.72531 15.9821ZM3.72528 15.9821L3.72531 15.9821L4.78597 14.9214L4.78594 14.9214L3.72528 15.9821ZM3.01797 15.2748L3.72528 15.9821L4.78594 14.9214L4.07863 14.2141L3.01797 15.2748ZM3.03654 15.2927L3.03656 15.2927L4.06004 14.1961L4.06002 14.1961L3.03654 15.2927ZM2.72632 14.9572C2.81028 15.0698 2.91783 15.1746 3.01795 15.2747L4.07862 14.2141C4.01684 14.1523 3.98049 14.1159 3.95372 14.0877C3.92868 14.0613 3.92556 14.0562 3.92896 14.0607L2.72632 14.9572ZM2.62921 13.0103C2.26366 13.6189 2.30203 14.388 2.72632 14.9572L3.92896 14.0607C3.86835 13.9794 3.86287 13.8695 3.91509 13.7826L2.62921 13.0103ZM2.88783 12.6652C2.79815 12.7748 2.70155 12.8898 2.62922 13.0102L3.91509 13.7826C3.91216 13.7875 3.91475 13.782 3.93705 13.7533C3.96089 13.7226 3.99343 13.6827 4.04876 13.6151L2.88783 12.6652ZM3.14928 12.3368C3.15714 12.3215 3.1542 12.3319 3.10462 12.3964C3.05719 12.4581 2.99085 12.5393 2.88783 12.6652L4.04876 13.6151C4.21713 13.4093 4.38916 13.2064 4.48432 13.0207L3.14928 12.3368ZM3.00352 11.9849C3.15018 12.0322 3.21954 12.1997 3.14928 12.3368L4.48432 13.0207C4.97612 12.0606 4.49062 10.8885 3.46397 10.5573L3.00352 11.9849ZM2.58643 11.9376C2.7483 11.9537 2.85264 11.9643 2.92981 11.9744C3.01049 11.9849 3.01993 11.9902 3.00351 11.9849L3.46397 10.5573C3.26533 10.4933 3.00024 10.4715 2.73568 10.445L2.58643 11.9376ZM2.56655 11.9353L2.56657 11.9353L2.75553 10.4473L2.75551 10.4472L2.56655 11.9353ZM2.15963 11.8765C2.29593 11.9105 2.44551 11.9235 2.5864 11.9376L2.73565 10.445C2.64873 10.4363 2.59754 10.4311 2.55897 10.4263C2.52289 10.4217 2.51722 10.4197 2.52273 10.4211L2.15963 11.8765ZM0.851573 10.4311C0.954037 11.1336 1.47079 11.7046 2.15963 11.8765L2.52273 10.4211C2.42433 10.3965 2.35051 10.3149 2.33587 10.2146L0.851573 10.4311ZM0.833252 10.0003C0.833252 10.1419 0.831299 10.2921 0.851573 10.4311L2.33587 10.2146C2.33669 10.2202 2.33525 10.2144 2.33431 10.178C2.33331 10.1391 2.33325 10.0877 2.33325 10.0003H0.833252ZM0.833252 9.0001V10.0003H2.33325V9.0001H0.833252ZM0.851594 8.56911C0.831297 8.7082 0.833252 8.85842 0.833252 9.0001H2.33325C2.33325 8.91268 2.33331 8.8612 2.33431 8.82231C2.33525 8.78594 2.33669 8.78008 2.33587 8.78572L0.851594 8.56911ZM2.1595 7.1239C1.47077 7.29579 0.954098 7.8667 0.851593 8.56911L2.33587 8.78572C2.35052 8.68537 2.42433 8.60381 2.52272 8.57926L2.1595 7.1239ZM2.58652 7.06276C2.44554 7.07686 2.29587 7.08986 2.1595 7.1239L2.52272 8.57926C2.51719 8.58063 2.52287 8.57862 2.55898 8.57406C2.59757 8.5692 2.64879 8.56402 2.73578 8.55532L2.58652 7.06276ZM3.00384 7.01538C3.02027 7.01008 3.01082 7.01536 2.9301 7.02593C2.85288 7.03604 2.74849 7.04656 2.58652 7.06276L2.73578 8.55532C3.00049 8.52885 3.26571 8.50703 3.46446 8.44291L3.00384 7.01538ZM3.14959 6.66351C3.21982 6.80065 3.15048 6.96807 3.00384 7.01538L3.46446 8.44291C4.49091 8.1117 4.97632 6.93981 4.48471 5.9798L3.14959 6.66351ZM2.88797 6.33487C2.99106 6.46087 3.05744 6.54214 3.1049 6.6039C3.15451 6.66846 3.15746 6.67888 3.14959 6.66351L4.48471 5.9798C4.38952 5.79392 4.21739 5.59094 4.04891 5.38502L2.88797 6.33487ZM2.88634 6.33288L2.88635 6.33289L4.05052 5.387L4.05052 5.38699L2.88634 6.33288ZM2.9381 6.39026L2.9381 6.39027L3.99876 5.32961L3.99876 5.3296L2.9381 6.39026ZM2.62915 5.98956C2.70153 6.11009 2.79821 6.22517 2.88796 6.33486L4.0489 5.38501C3.99352 5.31732 3.96095 5.27742 3.93709 5.24668C3.91477 5.21791 3.91218 5.21247 3.91511 5.21735L2.62915 5.98956ZM2.72624 4.04293C2.30209 4.61207 2.26374 5.38104 2.62915 5.98956L3.91511 5.21735C3.86291 5.13042 3.86839 5.02057 3.92898 4.93926L2.72624 4.04293ZM3.0181 3.72511C2.91789 3.82532 2.81025 3.93019 2.72624 4.04293L3.92898 4.93926C3.92558 4.94382 3.9287 4.93867 3.95376 4.91227C3.98056 4.88406 4.01693 4.8476 4.07876 4.78577L3.0181 3.72511ZM3.0181 3.72511L3.0181 3.72511L4.07876 4.78577L4.07876 4.78577L3.0181 3.72511ZM3.72531 3.0179L3.0181 3.72511L4.07876 4.78577L4.78597 4.07856L3.72531 3.0179ZM3.72532 3.0179L3.72531 3.0179L4.78597 4.07856L4.78598 4.07856L3.72532 3.0179ZM4.04289 2.72623C3.93025 2.8102 3.82545 2.91776 3.72532 3.0179L4.78598 4.07856C4.84776 4.01677 4.88419 3.98042 4.91238 3.95365C4.93876 3.9286 4.94392 3.92548 4.93936 3.92888L4.04289 2.72623ZM5.98983 2.62913C5.38123 2.26359 4.6121 2.30195 4.0429 2.72623L4.93935 3.92888C5.02067 3.86827 5.13055 3.86279 5.21749 3.91501L5.98983 2.62913ZM6.33492 2.8878C6.22528 2.79809 6.11027 2.70147 5.98983 2.62913L5.21749 3.91501C5.2126 3.91208 5.21805 3.91467 5.2468 3.93698C5.27753 3.96083 5.31741 3.99338 5.38506 4.04873L6.33492 2.8878ZM6.66327 3.1492C6.67863 3.15707 6.66822 3.15412 6.60371 3.10455C6.54201 3.05713 6.4608 2.99079 6.33492 2.8878L5.38506 4.04873C5.5908 4.21707 5.7936 4.38904 5.97925 4.48416L6.66327 3.1492ZM7.01521 3.00343C6.96792 3.15012 6.80044 3.21949 6.66327 3.1492L5.97925 4.48416C6.93944 4.97616 8.11178 4.49056 8.44285 3.46371L7.01521 3.00343ZM7.06254 2.58657C7.04636 2.74836 7.03585 2.85264 7.02575 2.92976C7.01519 3.0104 7.00992 3.01983 7.01521 3.00342L8.44285 3.46371C8.50686 3.26517 8.52865 3.00024 8.55509 2.73582L7.06254 2.58657ZM7.06461 2.56816L7.06461 2.56817L8.55302 2.75422L8.55302 2.75421L7.06461 2.56816ZM7.12359 2.16001C7.08961 2.29624 7.07662 2.44574 7.06254 2.58656L8.55509 2.73581C8.56378 2.64893 8.56896 2.59776 8.57382 2.55922C8.57836 2.52316 8.58038 2.51749 8.579 2.523L7.12359 2.16001ZM8.56915 0.851797C7.86651 0.954218 7.29541 1.47106 7.12358 2.16001L8.579 2.523C8.60355 2.42458 8.68513 2.35074 8.78551 2.33611L8.56915 0.851797ZM8.99966 0.833496C8.85814 0.833496 8.70808 0.831545 8.56915 0.851797L8.78551 2.33611C8.77989 2.33693 8.78573 2.33549 8.82207 2.33455C8.86091 2.33355 8.91234 2.3335 8.99966 2.3335V0.833496ZM10.0001 0.833496H8.99966V2.3335H10.0001V0.833496ZM10.4308 0.851818C10.2918 0.831543 10.1417 0.833496 10.0001 0.833496V2.3335C10.0874 2.3335 10.1389 2.33355 10.1778 2.33456C10.2141 2.33549 10.22 2.33693 10.2143 2.33611L10.4308 0.851818ZM11.8762 2.15987C11.7044 1.47103 11.1334 0.954282 10.4308 0.851818L10.2143 2.33611C10.3147 2.35075 10.3963 2.42457 10.4208 2.52298L11.8762 2.15987ZM11.9166 9.50016C11.9166 10.8349 10.8346 11.9168 9.49992 11.9168V13.4168C11.663 13.4168 13.4166 11.6633 13.4166 9.50016H11.9166ZM9.49992 7.0835C10.8346 7.0835 11.9166 8.16547 11.9166 9.50016H13.4166C13.4166 7.33705 11.663 5.5835 9.49992 5.5835V7.0835ZM7.08325 9.50016C7.08325 8.16547 8.16523 7.0835 9.49992 7.0835V5.5835C7.3368 5.5835 5.58325 7.33705 5.58325 9.50016H7.08325ZM9.49992 11.9168C8.16523 11.9168 7.08325 10.8349 7.08325 9.50016H5.58325C5.58325 11.6633 7.3368 13.4168 9.49992 13.4168V11.9168Z" fill="#777E91"/>
</svg>
