<svg width="21" height="21" viewBox="0 0 21 21" fill="none" xmlns="http://www.w3.org/2000/svg">
<path fill-rule="evenodd" clip-rule="evenodd" d="M8.65843 9.82625C8.27562 9.82625 7.97293 10.1238 7.97293 10.5C7.97293 10.8675 8.27562 11.1738 8.65843 11.1738H14V15.3563C14 17.5 12.2284 19.25 10.0383 19.25H5.70276C3.52162 19.25 1.75 17.5088 1.75 15.365V5.64375C1.75 3.49125 3.53052 1.75 5.71166 1.75H10.0561C12.2284 1.75 14 3.49125 14 5.635V9.82625H8.65843ZM17.1764 7.47268L19.7314 10.0189C19.8627 10.1502 19.9327 10.3164 19.9327 10.5002C19.9327 10.6752 19.8627 10.8502 19.7314 10.9727L17.1764 13.5189C17.0452 13.6502 16.8702 13.7202 16.7039 13.7202C16.5289 13.7202 16.3539 13.6502 16.2227 13.5189C15.9602 13.2564 15.9602 12.8277 16.2227 12.5652L17.6227 11.1739H14.0002V9.82643H17.6227L16.2227 8.43518C15.9602 8.17268 15.9602 7.74393 16.2227 7.48143C16.4852 7.21018 16.9139 7.21018 17.1764 7.47268Z" fill="#B1B5C4"/>
</svg>
