<svg width="21" height="15" viewBox="0 0 21 15" fill="none" xmlns="http://www.w3.org/2000/svg">
<path d="M6.80661 0C6.42982 -2.05453e-06 6.05744 0.0811131 5.71478 0.237833C5.37213 0.394553 5.06723 0.623205 4.8208 0.908248L0.475126 5.93642C0.168007 6.293 -0.00062983 6.74813 1.76773e-06 7.21873V11.1562C1.76773e-06 12.0265 0.345703 12.8611 0.961055 13.4764C1.57641 14.0918 2.411 14.4375 3.28124 14.4375H5.90624C6.77648 14.4375 7.61107 14.0918 8.22643 13.4764C8.84178 12.8611 9.18748 12.0265 9.18748 11.1562V9.18748H11.8125V11.1562C11.8125 12.0265 12.1582 12.8611 12.7735 13.4764C13.3889 14.0918 14.2235 14.4375 15.0937 14.4375H17.7187C18.5889 14.4375 19.4235 14.0918 20.0389 13.4764C20.6542 12.8611 21 12.0265 21 11.1562V7.21873C21 6.65567 20.7637 6.14905 20.3857 5.79074L16.1792 0.910873C15.9328 0.625183 15.6278 0.395939 15.2849 0.238754C14.942 0.0815685 14.5692 0.00013503 14.192 0H13.125C12.9509 0 12.784 0.0691404 12.6609 0.192211C12.5379 0.315281 12.4687 0.482201 12.4687 0.656248C12.4687 0.830296 12.5379 0.997216 12.6609 1.12029C12.784 1.24336 12.9509 1.3125 13.125 1.3125H14.192C14.3806 1.31256 14.567 1.35328 14.7385 1.43187C14.9099 1.51047 15.0624 1.62509 15.1856 1.76793L18.1873 5.24999H13.7812C13.2591 5.24999 12.7583 5.45741 12.3891 5.82662C12.0199 6.19583 11.8125 6.69659 11.8125 7.21873V7.87498H9.18748V7.21873C9.18748 6.69659 8.98006 6.19583 8.61085 5.82662C8.24164 5.45741 7.74088 5.24999 7.21873 5.24999H2.80218L5.81436 1.76662C5.9375 1.62418 6.08985 1.50991 6.26105 1.43155C6.43226 1.35319 6.61832 1.31259 6.80661 1.3125H7.87498C8.04903 1.3125 8.21595 1.24336 8.33902 1.12029C8.46209 0.997216 8.53123 0.830296 8.53123 0.656248C8.53123 0.482201 8.46209 0.315281 8.33902 0.192211C8.21595 0.0691404 8.04903 0 7.87498 0H6.80661ZM7.87498 7.21873V11.1562C7.87498 11.6784 7.66756 12.1791 7.29835 12.5483C6.92914 12.9175 6.42838 13.125 5.90624 13.125H3.28124C2.7591 13.125 2.25834 12.9175 1.88913 12.5483C1.51992 12.1791 1.3125 11.6784 1.3125 11.1562V7.21873C1.3125 7.04468 1.38164 6.87776 1.50471 6.75469C1.62778 6.63162 1.7947 6.56248 1.96875 6.56248H7.21873C7.39278 6.56248 7.5597 6.63162 7.68277 6.75469C7.80584 6.87776 7.87498 7.04468 7.87498 7.21873ZM13.125 11.1562V7.21873C13.125 7.04468 13.1941 6.87776 13.3172 6.75469C13.4403 6.63162 13.6072 6.56248 13.7812 6.56248H19.0312C19.1887 6.56248 19.3331 6.61761 19.446 6.7108L19.5181 6.79348L19.526 6.78823C19.6302 6.90745 19.6876 7.06042 19.6875 7.21873V11.1562C19.6875 11.6784 19.48 12.1791 19.1108 12.5483C18.7416 12.9175 18.2409 13.125 17.7187 13.125H15.0937C14.5716 13.125 14.0708 12.9175 13.7016 12.5483C13.3324 12.1791 13.125 11.6784 13.125 11.1562Z" fill="#9D9D9D"/>
</svg>
