<svg width="18" height="22" viewBox="0 0 18 22" fill="none" xmlns="http://www.w3.org/2000/svg">
<path fill-rule="evenodd" clip-rule="evenodd" d="M12.1908 3.51274C12.9608 2.58322 13.4778 1.28795 13.3366 0C12.2293 0.0449177 10.8891 0.737933 10.0962 1.66745C9.38389 2.49064 8.76054 3.80792 8.92921 5.0702C10.1631 5.16645 11.4244 4.44318 12.1926 3.51274H12.1908ZM14.961 11.6878C14.9922 15.0172 17.8816 16.1254 17.9127 16.1401C17.8898 16.218 17.4526 17.7186 16.391 19.2688C15.4744 20.609 14.5228 21.9446 13.0231 21.9721C11.55 21.9987 11.077 21.0985 9.39214 21.0985C7.7091 21.0985 7.18292 21.9446 5.78772 21.9987C4.34119 22.0537 3.23933 20.5494 2.31348 19.2147C0.425104 16.4829 -1.01868 11.4962 0.920115 8.1301C1.88172 6.45806 3.60326 5.39929 5.47147 5.3727C6.89233 5.3452 8.23344 6.32881 9.10155 6.32881C9.97057 6.32881 11.6004 5.14628 13.3137 5.31953C14.0315 5.34979 16.0445 5.60921 17.338 7.50217C17.2335 7.56633 14.9353 8.9047 14.9601 11.6878" fill="#FCFCFD"/>
<path fill-rule="evenodd" clip-rule="evenodd" d="M12.1908 3.51274C12.9608 2.58322 13.4778 1.28795 13.3366 0C12.2293 0.0449177 10.8891 0.737933 10.0962 1.66745C9.38389 2.49064 8.76054 3.80792 8.92921 5.0702C10.1631 5.16645 11.4244 4.44318 12.1926 3.51274H12.1908ZM14.961 11.6878C14.9922 15.0172 17.8816 16.1254 17.9127 16.1401C17.8898 16.218 17.4526 17.7186 16.391 19.2688C15.4744 20.609 14.5228 21.9446 13.0231 21.9721C11.55 21.9987 11.077 21.0985 9.39214 21.0985C7.7091 21.0985 7.18292 21.9446 5.78772 21.9987C4.34119 22.0537 3.23933 20.5494 2.31348 19.2147C0.425104 16.4829 -1.01868 11.4962 0.920115 8.1301C1.88172 6.45806 3.60326 5.39929 5.47147 5.3727C6.89233 5.3452 8.23344 6.32881 9.10155 6.32881C9.97057 6.32881 11.6004 5.14628 13.3137 5.31953C14.0315 5.34979 16.0445 5.60921 17.338 7.50217C17.2335 7.56633 14.9353 8.9047 14.9601 11.6878" fill="#FCFCFD"/>
</svg>
