<svg width="266" height="22" viewBox="0 0 266 22" fill="none" xmlns="http://www.w3.org/2000/svg">
<mask id="mask0_0_799" style="mask-type:luminance" maskUnits="userSpaceOnUse" x="120" y="3" width="22" height="16">
<path fill-rule="evenodd" clip-rule="evenodd" d="M138.615 3.38464H123.384C121.982 3.38464 120.846 4.52115 120.846 5.92311V7.61541H141.153V5.92311C141.153 4.52115 140.017 3.38464 138.615 3.38464ZM141.153 11H120.846V16.077C120.846 17.4789 121.982 18.6154 123.384 18.6154H138.615C140.017 18.6154 141.153 17.4789 141.153 16.077V11Z" fill="white"/>
</mask>
<g mask="url(#mask0_0_799)">
<rect x="120" width="22" height="22" fill="#FCFCFD"/>
</g>
<mask id="mask1_0_799" style="mask-type:luminance" maskUnits="userSpaceOnUse" x="2" y="0" width="18" height="22">
<path fill-rule="evenodd" clip-rule="evenodd" d="M12.7166 20.0838C13.6381 19.35 14.5594 18.5209 15.4216 17.6108C17.9361 14.9567 19.4612 12.1606 19.4612 9.30773C19.4612 4.63455 15.6728 0.846191 10.9996 0.846191C6.32645 0.846191 2.53809 4.63455 2.53809 9.30773C2.53809 12.1606 4.06319 14.9567 6.57766 17.6108C7.43985 18.5209 8.3611 19.35 9.28263 20.0838C9.60567 20.3411 9.90625 20.5684 10.177 20.764C10.342 20.8831 10.4622 20.9664 10.5303 21.0118C10.8145 21.2013 11.1848 21.2013 11.469 21.0118C11.5371 20.9664 11.6573 20.8831 11.8223 20.764C12.093 20.5684 12.3936 20.3411 12.7166 20.0838ZM7.61501 9.30773C7.61501 11.177 9.13035 12.6923 10.9996 12.6923C12.8689 12.6923 14.3842 11.177 14.3842 9.30773C14.3842 7.43846 12.8689 5.92311 10.9996 5.92311C9.13035 5.92311 7.61501 7.43846 7.61501 9.30773Z" fill="white"/>
</mask>
<g mask="url(#mask1_0_799)">
<rect width="22" height="22" fill="#FCFCFD"/>
</g>
<mask id="mask2_0_799" style="mask-type:luminance" maskUnits="userSpaceOnUse" x="245" y="1" width="20" height="20">
<path fill-rule="evenodd" clip-rule="evenodd" d="M245.692 11C245.692 16.1404 249.86 20.3076 255 20.3076C260.141 20.3076 264.308 16.1404 264.308 11C264.308 5.85946 260.141 1.69226 255 1.69226C249.86 1.69226 245.692 5.85946 245.692 11ZM259.346 7.54114C258.918 7.07597 258.208 7.07597 257.779 7.54114L253.664 12.0091L252.221 10.4422C251.792 9.97707 251.082 9.97707 250.654 10.4422C250.244 10.8874 250.244 11.596 250.654 12.0412L252.88 14.4588C253.309 14.9239 254.019 14.9239 254.448 14.4588L259.346 9.14008C259.756 8.69488 259.756 7.98635 259.346 7.54114Z" fill="white"/>
</mask>
<g mask="url(#mask2_0_799)">
<rect x="244" width="22" height="22" fill="#FCFCFD"/>
</g>
<path d="M42 11H103" stroke="#777E91" stroke-width="2" stroke-linecap="round" stroke-linejoin="round" stroke-dasharray="1 15"/>
<path d="M169 11.1667H233" stroke="#777E91" stroke-width="2" stroke-linecap="round" stroke-linejoin="round" stroke-dasharray="1 15"/>
</svg>
