<svg width="19" height="19" viewBox="0 0 19 19" fill="none" xmlns="http://www.w3.org/2000/svg">
<path d="M11.1913 2.66118L10.445 2.7358V2.73581L11.1913 2.66118ZM11.1488 2.3413L11.8765 2.15975L11.8765 2.15975L11.1488 2.3413ZM11.2711 3.23386L10.5573 3.46409V3.46409L11.2711 3.23386ZM12.6787 3.81692L13.0207 4.48444L13.0207 4.48444L12.6787 3.81692ZM13.1401 3.46844L13.6151 4.0489V4.0489L13.1401 3.46844ZM13.3964 3.27232L13.7826 3.91525L13.7826 3.91525L13.3964 3.27232ZM14.5089 3.32781L14.0607 3.92912L14.5089 3.32781ZM14.7444 3.54845L14.2141 4.07878L14.2141 4.07878L14.7444 3.54845ZM15.4517 4.25578L14.9214 4.78611L14.9214 4.78611L15.4517 4.25578ZM15.6724 4.49124L16.2737 4.043L16.2737 4.043L15.6724 4.49124ZM15.7279 5.60379L15.0849 5.21761L15.0849 5.21761L15.7279 5.60379ZM15.5317 5.86004L14.9512 5.38508L14.9461 5.39152L15.5317 5.86004ZM15.5317 5.86004L16.1122 6.335L16.1174 6.32857L15.5317 5.86004ZM15.1832 6.32146L14.5157 5.97953L14.5157 5.97953L15.1832 6.32146ZM15.7663 7.72908L15.9965 7.01529H15.9965L15.7663 7.72908ZM16.339 7.80892L16.4623 7.06913L16.4381 7.06509L16.4136 7.06265L16.339 7.80892ZM16.339 7.80893L16.2157 8.54872L16.2399 8.55276L16.2644 8.5552L16.339 7.80893ZM16.6589 7.85144L16.8405 7.12375L16.8405 7.12375L16.6589 7.85144ZM17.4064 8.67736L18.1485 8.56911V8.5691L17.4064 8.67736ZM17.4064 10.3226L18.1485 10.4308V10.4308L17.4064 10.3226ZM16.6588 11.1487L16.4773 10.421L16.4773 10.421L16.6588 11.1487ZM16.3391 11.1911L16.2645 10.4448L16.2563 10.4457L16.3391 11.1911ZM16.3391 11.1911L16.4137 11.9375L16.4219 11.9366L16.3391 11.1911ZM15.7667 11.2709L15.9968 11.9847H15.9969L15.7667 11.2709ZM15.1836 12.6787L14.5161 13.0208V13.0208L15.1836 12.6787ZM15.5319 13.1398L16.1123 12.6649L15.5319 13.1398ZM15.7278 13.3958L16.3707 13.0096L16.3707 13.0096L15.7278 13.3958ZM15.6723 14.5086L16.2736 14.9569L16.2736 14.9569L15.6723 14.5086ZM14.509 15.6719L14.0607 15.0706L14.0607 15.0706L14.509 15.6719ZM13.3964 15.7274L13.7826 15.0845V15.0845L13.3964 15.7274ZM13.1402 15.5313L13.6151 14.9508L13.6087 14.9456L13.1402 15.5313ZM13.1402 15.5313L12.6652 16.1118L12.6716 16.1169L13.1402 15.5313ZM12.6788 15.1828L12.3368 15.8503L12.3369 15.8503L12.6788 15.1828ZM11.2712 15.7659L11.9849 15.9961L11.9849 15.9961L11.2712 15.7659ZM11.1913 16.3387L11.9355 16.4317L11.9367 16.4225L11.9376 16.4133L11.1913 16.3387ZM11.1913 16.3387L10.4471 16.2457L10.4459 16.2549L10.445 16.2641L11.1913 16.3387ZM11.1487 16.6589L10.4211 16.4772V16.4772L11.1487 16.6589ZM10.3229 17.4062L10.4312 18.1484H10.4312L10.3229 17.4062ZM8.67748 17.4062L8.78573 16.6641H8.78573L8.67748 17.4062ZM7.85156 16.6588L8.57925 16.4772L7.85156 16.6588ZM7.80905 16.3389L8.55533 16.2643V16.2643L7.80905 16.3389ZM7.7292 15.7662L8.44299 15.5359L8.44299 15.5359L7.7292 15.7662ZM6.32159 15.1831L6.66351 15.8506L6.66351 15.8506L6.32159 15.1831ZM5.86014 15.5316L6.32869 16.1173L6.33507 16.1121L5.86014 15.5316ZM5.86013 15.5316L5.39158 14.946L5.3852 14.9512L5.86013 15.5316ZM5.60387 15.7278L5.99004 16.3707L5.99004 16.3707L5.60387 15.7278ZM4.49133 15.6723L4.93956 15.071L4.93956 15.071L4.49133 15.6723ZM4.25588 15.4516L3.72555 15.982L3.72555 15.982L4.25588 15.4516ZM4.25585 15.4516L3.72552 15.982L4.25585 15.4516ZM3.54855 14.7443L4.07888 14.214L4.06974 14.2048L4.06029 14.196L3.54855 14.7443ZM3.54853 14.7443L3.01819 15.2746L3.02733 15.2838L3.03679 15.2926L3.54853 14.7443ZM3.32789 14.5088L2.72656 14.9571L2.72657 14.9571L3.32789 14.5088ZM3.2724 13.3963L2.62946 13.0101L2.62946 13.0101L3.2724 13.3963ZM3.46854 13.14L4.049 13.615L4.04901 13.615L3.46854 13.14ZM3.81704 12.6786L4.48456 13.0206H4.48456L3.81704 12.6786ZM3.23399 11.271L3.00376 11.9848L3.00376 11.9848L3.23399 11.271ZM2.6613 11.1912L2.56682 11.9352L2.57673 11.9364L2.58667 11.9374L2.6613 11.1912ZM2.66127 11.1912L2.75575 10.4471L2.74584 10.4459L2.7359 10.4449L2.66127 11.1912ZM2.34143 11.1486L2.15988 11.8763H2.15988L2.34143 11.1486ZM1.59397 10.3227L0.851818 10.431V10.431L1.59397 10.3227ZM1.59398 8.67729L2.33612 8.78559L2.33612 8.78559L1.59398 8.67729ZM2.34135 7.85145L2.15974 7.12377H2.15974L2.34135 7.85145ZM2.66139 7.80892L2.73602 8.55519H2.73602L2.66139 7.80892ZM3.23439 7.72902L3.00408 7.01526H3.00408L3.23439 7.72902ZM3.81739 6.32153L4.48495 5.97968L3.81739 6.32153ZM3.46868 5.85983L2.88659 6.33277L2.88821 6.33475L3.46868 5.85983ZM3.46867 5.85981L4.05076 5.38687L4.02636 5.35684L3.999 5.32948L3.46867 5.85981ZM3.46867 5.85981L2.8882 6.33474L2.91189 6.36369L2.93834 6.39014L3.46867 5.85981ZM3.27238 5.60333L3.91536 5.21723L3.91536 5.21723L3.27238 5.60333ZM3.32786 4.49097L2.72649 4.0428L2.72648 4.0428L3.32786 4.49097ZM3.54868 4.25532L3.01835 3.72499L3.01835 3.72499L3.54868 4.25532ZM4.25589 3.54811L3.72556 3.01778L3.72556 3.01778L4.25589 3.54811ZM4.49137 3.32744L4.04314 2.72611L4.04314 2.72611L4.49137 3.32744ZM5.6039 3.27195L5.99007 2.62901L5.99007 2.62901L5.6039 3.27195ZM5.86023 3.46814L5.38531 4.04861L5.38531 4.04861L5.86023 3.46814ZM6.32151 3.81656L5.97949 4.48404L5.9795 4.48404L6.32151 3.81656ZM7.72928 3.23344L7.01546 3.0033V3.0033L7.72928 3.23344ZM7.80906 2.66107L7.06485 2.56805L7.0637 2.57723L7.06278 2.58645L7.80906 2.66107ZM7.80906 2.66106L8.55327 2.75409L8.55442 2.7449L8.55534 2.73569L7.80906 2.66106ZM7.85154 2.34138L8.57925 2.52288L8.57925 2.52288L7.85154 2.34138ZM8.67757 1.59383L8.78576 2.33599L8.78576 2.33599L8.67757 1.59383ZM10.3228 1.59384L10.4311 0.851696V0.851696L10.3228 1.59384ZM11.9376 2.58656C11.9235 2.44565 11.9105 2.29606 11.8765 2.15975L10.4211 2.52285C10.4197 2.51734 10.4217 2.52301 10.4263 2.5591C10.4311 2.59767 10.4363 2.64887 10.445 2.7358L11.9376 2.58656ZM11.9849 3.00364C11.9902 3.02006 11.9849 3.01062 11.9744 2.92994C11.9643 2.85277 11.9537 2.74843 11.9376 2.58655L10.445 2.73581C10.4715 3.00037 10.4933 3.26545 10.5573 3.46409L11.9849 3.00364ZM12.3368 3.14941C12.1997 3.21966 12.0322 3.15031 11.9849 3.00364L10.5573 3.46409C10.8885 4.49074 12.0606 4.97625 13.0207 4.48444L12.3368 3.14941ZM12.6652 2.88797C12.5393 2.99098 12.4581 3.05732 12.3964 3.10475C12.3319 3.15432 12.3215 3.15727 12.3368 3.14941L13.0207 4.48444C13.2064 4.38929 13.4093 4.21727 13.6151 4.0489L12.6652 2.88797ZM13.0102 2.62938C12.8898 2.70172 12.7748 2.7983 12.6652 2.88797L13.6151 4.0489C13.6827 3.99358 13.7226 3.96104 13.7533 3.93721C13.782 3.91491 13.7874 3.91232 13.7826 3.91525L13.0102 2.62938ZM14.9572 2.72649C14.388 2.30218 13.6188 2.26382 13.0102 2.62938L13.7826 3.91525C13.8695 3.86303 13.9794 3.86851 14.0607 3.92912L14.9572 2.72649ZM15.2747 3.01812C15.1746 2.91799 15.0698 2.81045 14.9572 2.72649L14.0607 3.92912C14.0561 3.92572 14.0613 3.92884 14.0877 3.95389C14.1159 3.98065 14.1523 4.017 14.2141 4.07878L15.2747 3.01812ZM15.982 3.72545L15.2747 3.01812L14.2141 4.07878L14.9214 4.78611L15.982 3.72545ZM16.2737 4.043C16.1897 3.93037 16.0822 3.82558 15.982 3.72545L14.9214 4.78611C14.9832 4.84789 15.0195 4.88432 15.0463 4.91251C15.0713 4.93888 15.0745 4.94404 15.0711 4.93948L16.2737 4.043ZM16.3708 5.98997C16.7364 5.38136 16.698 4.61221 16.2737 4.043L15.0711 4.93947C15.1317 5.02079 15.1371 5.13067 15.0849 5.21761L16.3708 5.98997ZM16.1122 6.33497C16.2019 6.22537 16.2985 6.1104 16.3708 5.98997L15.0849 5.21761C15.0879 5.21274 15.0853 5.21818 15.063 5.24691C15.0391 5.27762 15.0066 5.31749 14.9513 5.38511L16.1122 6.33497ZM16.1174 6.32857L16.1174 6.32856L14.9461 5.39152L14.9461 5.39152L16.1174 6.32857ZM15.8507 6.66339C15.8429 6.67874 15.8458 6.66833 15.8954 6.60382C15.9428 6.5421 16.0092 6.46089 16.1122 6.33497L14.9513 5.38512C14.7829 5.5909 14.6109 5.79376 14.5157 5.97953L15.8507 6.66339ZM15.9965 7.01529C15.8499 6.96799 15.7805 6.80054 15.8507 6.66339L14.5157 5.97953C14.0239 6.93963 14.5094 8.11173 15.5361 8.44287L15.9965 7.01529ZM16.4136 7.06265C16.2517 7.04646 16.1474 7.03594 16.0702 7.02584C15.9895 7.01527 15.9801 7.01 15.9965 7.01529L15.5361 8.44287C15.7347 8.50694 15.9998 8.52874 16.2644 8.5552L16.4136 7.06265ZM16.4623 7.06913L16.4623 7.06913L16.2157 8.54872L16.2157 8.54872L16.4623 7.06913ZM16.8405 7.12375C16.7042 7.08974 16.5546 7.07674 16.4136 7.06265L16.2644 8.5552C16.3513 8.5639 16.4025 8.56908 16.4411 8.57394C16.4772 8.57849 16.4829 8.58051 16.4774 8.57913L16.8405 7.12375ZM18.1485 8.5691C18.046 7.8666 17.5293 7.29561 16.8405 7.12375L16.4774 8.57913C16.5758 8.60368 16.6496 8.68525 16.6642 8.78561L18.1485 8.5691ZM18.1668 8.9999C18.1668 8.85828 18.1688 8.70813 18.1485 8.56911L16.6642 8.78561C16.6634 8.77998 16.6648 8.78583 16.6658 8.82219C16.6668 8.86106 16.6668 8.91252 16.6668 8.9999H18.1668ZM18.1668 10.0003V8.9999H16.6668V10.0003H18.1668ZM18.1485 10.4308C18.1688 10.2919 18.1668 10.1418 18.1668 10.0003H16.6668C16.6668 10.0876 16.6668 10.139 16.6658 10.1779C16.6648 10.2142 16.6634 10.2201 16.6642 10.2145L18.1485 10.4308ZM16.8403 11.8764C17.5293 11.7045 18.0461 11.1335 18.1485 10.4308L16.6642 10.2144C16.6496 10.3148 16.5757 10.3964 16.4773 10.421L16.8403 11.8764ZM16.4137 11.9374C16.5546 11.9233 16.7041 11.9103 16.8403 11.8764L16.4773 10.421C16.4828 10.4196 16.4772 10.4216 16.4411 10.4261C16.4026 10.431 16.3514 10.4362 16.2645 10.4449L16.4137 11.9374ZM16.4219 11.9366L16.4219 11.9366L16.2563 10.4457L16.2563 10.4457L16.4219 11.9366ZM15.9969 11.9847C15.9804 11.99 15.9899 11.9848 16.0705 11.9742C16.1476 11.9641 16.2519 11.9536 16.4137 11.9374L16.2644 10.4449C16 10.4713 15.7351 10.4931 15.5366 10.5571L15.9969 11.9847ZM15.8511 12.3367C15.7808 12.1995 15.8501 12.032 15.9968 11.9847L15.5366 10.5571C14.5097 10.8881 14.0241 12.0606 14.5161 13.0208L15.8511 12.3367ZM16.1123 12.6649C16.0094 12.5391 15.9431 12.4579 15.8957 12.3962C15.8462 12.3318 15.8432 12.3214 15.8511 12.3367L14.5161 13.0208C14.6112 13.2064 14.7831 13.4091 14.9514 13.6147L16.1123 12.6649ZM16.3707 13.0096C16.2984 12.8893 16.2019 12.7744 16.1123 12.6649L14.9514 13.6147C15.0067 13.6823 15.0392 13.7221 15.063 13.7528C15.0853 13.7815 15.0879 13.787 15.085 13.7821L16.3707 13.0096ZM16.2736 14.9569C16.6981 14.3876 16.7364 13.6183 16.3707 13.0096L15.0849 13.7821C15.1372 13.8691 15.1317 13.979 15.0711 14.0603L16.2736 14.9569ZM15.9822 15.2742C16.0822 15.1741 16.1897 15.0694 16.2736 14.9569L15.0711 14.0603C15.0745 14.0557 15.0714 14.0609 15.0463 14.0872C15.0196 14.1154 14.9833 14.1518 14.9215 14.2135L15.9822 15.2742ZM15.2748 15.9816L15.9822 15.2742L14.9215 14.2135L14.2141 14.921L15.2748 15.9816ZM14.9572 16.2732C15.0698 16.1893 15.1746 16.0817 15.2748 15.9816L14.2141 14.921C14.1523 14.9827 14.1159 15.0191 14.0877 15.0458C14.0613 15.0709 14.0562 15.074 14.0607 15.0706L14.9572 16.2732ZM13.0102 16.3703C13.6188 16.7359 14.388 16.6976 14.9572 16.2732L14.0607 15.0706C13.9794 15.1312 13.8695 15.1367 13.7826 15.0845L13.0102 16.3703ZM12.6653 16.1118C12.7748 16.2014 12.8898 16.298 13.0102 16.3703L13.7826 15.0845C13.7875 15.0874 13.782 15.0848 13.7533 15.0625C13.7226 15.0387 13.6827 15.0062 13.6151 14.9508L12.6653 16.1118ZM12.6716 16.1169L12.6717 16.1169L13.6087 14.9456L13.6087 14.9456L12.6716 16.1169ZM12.3369 15.8503C12.3215 15.8425 12.3319 15.8454 12.3964 15.895C12.4581 15.9424 12.5393 16.0087 12.6652 16.1118L13.6151 14.9508C13.4093 14.7825 13.2065 14.6104 13.0207 14.5153L12.3369 15.8503ZM11.9849 15.9961C12.0322 15.8494 12.1997 15.7801 12.3368 15.8503L13.0207 14.5153C12.0606 14.0235 10.8885 14.509 10.5574 15.5356L11.9849 15.9961ZM11.9376 16.4133C11.9538 16.2514 11.9643 16.147 11.9744 16.0698C11.985 15.9891 11.9902 15.9797 11.9849 15.9961L10.5574 15.5356C10.4933 15.7343 10.4715 15.9994 10.445 16.2641L11.9376 16.4133ZM11.9355 16.4317L11.9355 16.4317L10.4471 16.2457L10.4471 16.2457L11.9355 16.4317ZM11.8764 16.8405C11.9105 16.7041 11.9235 16.5544 11.9376 16.4133L10.445 16.2641C10.4363 16.3511 10.4311 16.4024 10.4263 16.441C10.4217 16.4771 10.4197 16.4828 10.4211 16.4772L11.8764 16.8405ZM10.4312 18.1484C11.1336 18.0458 11.7045 17.5292 11.8764 16.8405L10.4211 16.4772C10.3965 16.5756 10.315 16.6494 10.2146 16.6641L10.4312 18.1484ZM10.0002 18.1667C10.1419 18.1667 10.2921 18.1687 10.4312 18.1484L10.2146 16.6641C10.2202 16.6633 10.2144 16.6647 10.178 16.6656C10.1391 16.6666 10.0876 16.6667 10.0002 16.6667V18.1667ZM9.00002 18.1667H10.0002V16.6667H9.00002V18.1667ZM8.56923 18.1484C8.70825 18.1687 8.85841 18.1667 9.00002 18.1667V16.6667C8.91264 16.6667 8.86118 16.6666 8.82231 16.6656C8.78595 16.6647 8.78011 16.6633 8.78573 16.6641L8.56923 18.1484ZM7.12387 16.8403C7.29573 17.5292 7.86672 18.0459 8.56923 18.1484L8.78573 16.6641C8.68537 16.6494 8.6038 16.5756 8.57925 16.4772L7.12387 16.8403ZM7.06277 16.4135C7.07686 16.5544 7.08986 16.704 7.12387 16.8403L8.57925 16.4772C8.58063 16.4827 8.57861 16.4771 8.57406 16.441C8.5692 16.4024 8.56402 16.3512 8.55533 16.2643L7.06277 16.4135ZM7.01541 15.9964C7.01012 15.98 7.01539 15.9894 7.02596 16.0701C7.03606 16.1473 7.04658 16.2516 7.06277 16.4135L8.55533 16.2643C8.52887 15.9997 8.50706 15.7346 8.44299 15.5359L7.01541 15.9964ZM6.66351 15.8506C6.80067 15.7804 6.96811 15.8497 7.01541 15.9964L8.44299 15.5359C8.11184 14.5093 6.93976 14.0238 5.97967 14.5156L6.66351 15.8506ZM6.33507 16.1121C6.46099 16.0091 6.54222 15.9427 6.60394 15.8953C6.66846 15.8457 6.67887 15.8428 6.66351 15.8506L5.97968 14.5156C5.79389 14.6107 5.59101 14.7828 5.38521 14.9512L6.33507 16.1121ZM6.32865 16.1173L6.32866 16.1173L5.39162 14.946L5.3916 14.946L6.32865 16.1173ZM5.99004 16.3707C6.11048 16.2984 6.22545 16.2018 6.33505 16.1121L5.3852 14.9512C5.31757 15.0065 5.27771 15.0391 5.24699 15.0629C5.21826 15.0852 5.21282 15.0878 5.21769 15.0848L5.99004 16.3707ZM4.04311 16.2736C4.61231 16.6979 5.38144 16.7363 5.99004 16.3707L5.2177 15.0848C5.13075 15.1371 5.02088 15.1316 4.93956 15.071L4.04311 16.2736ZM3.72555 15.982C3.82567 16.0821 3.93047 16.1897 4.04311 16.2736L4.93956 15.071C4.94412 15.0744 4.93897 15.0713 4.9126 15.0462C4.88441 15.0194 4.84799 14.9831 4.78621 14.9213L3.72555 15.982ZM3.72552 15.982L3.72555 15.982L4.78621 14.9213L4.78618 14.9213L3.72552 15.982ZM3.01822 15.2746L3.72552 15.982L4.78618 14.9213L4.07888 14.214L3.01822 15.2746ZM3.03679 15.2926L3.03681 15.2926L4.06029 14.196L4.06026 14.196L3.03679 15.2926ZM2.72657 14.9571C2.81052 15.0697 2.91807 15.1745 3.01819 15.2746L4.07886 14.214C4.01708 14.1522 3.98074 14.1158 3.95397 14.0876C3.92892 14.0612 3.92581 14.0561 3.9292 14.0606L2.72657 14.9571ZM2.62946 13.0101C2.26391 13.6187 2.30227 14.3879 2.72656 14.9571L3.92921 14.0606C3.86859 13.9793 3.86311 13.8694 3.91533 13.7825L2.62946 13.0101ZM2.88807 12.6651C2.79839 12.7747 2.7018 12.8897 2.62946 13.0101L3.91533 13.7825C3.91241 13.7874 3.91499 13.7819 3.93729 13.7532C3.96113 13.7225 3.99367 13.6826 4.049 13.615L2.88807 12.6651ZM3.14952 12.3367C3.15739 12.3213 3.15444 12.3317 3.10486 12.3963C3.05744 12.458 2.99109 12.5392 2.88807 12.6651L4.04901 13.615C4.21738 13.4092 4.38941 13.2063 4.48456 13.0206L3.14952 12.3367ZM3.00376 11.9848C3.15042 12.0321 3.21978 12.1995 3.14952 12.3367L4.48456 13.0206C4.97637 12.0605 4.49086 10.8883 3.46421 10.5572L3.00376 11.9848ZM2.58667 11.9374C2.74855 11.9536 2.85289 11.9641 2.93006 11.9742C3.01073 11.9848 3.02018 11.9901 3.00376 11.9848L3.46421 10.5572C3.26557 10.4931 3.00049 10.4713 2.73592 10.4449L2.58667 11.9374ZM2.56679 11.9352L2.56682 11.9352L2.75578 10.4471L2.75575 10.4471L2.56679 11.9352ZM2.15988 11.8763C2.29617 11.9103 2.44575 11.9233 2.58665 11.9374L2.7359 10.4449C2.64897 10.4362 2.59778 10.431 2.55922 10.4261C2.52314 10.4216 2.51746 10.4196 2.52298 10.4209L2.15988 11.8763ZM0.851818 10.431C0.954281 11.1335 1.47103 11.7045 2.15988 11.8763L2.52298 10.4209C2.42457 10.3964 2.35075 10.3148 2.33611 10.2145L0.851818 10.431ZM0.833496 10.0002C0.833496 10.1418 0.831543 10.2919 0.851818 10.431L2.33611 10.2145C2.33693 10.2201 2.33549 10.2142 2.33456 10.1779C2.33355 10.139 2.3335 10.0876 2.3335 10.0002H0.833496ZM0.833496 8.99998V10.0002H2.3335V8.99998H0.833496ZM0.851838 8.56899C0.831541 8.70807 0.833496 8.8583 0.833496 8.99998H2.3335C2.3335 8.91256 2.33355 8.86108 2.33456 8.82219C2.3355 8.78581 2.33694 8.77996 2.33612 8.78559L0.851838 8.56899ZM2.15974 7.12377C1.47101 7.29566 0.954342 7.86657 0.851838 8.56899L2.33612 8.78559C2.35076 8.68525 2.42457 8.60369 2.52296 8.57913L2.15974 7.12377ZM2.58677 7.06264C2.44579 7.07674 2.29611 7.08974 2.15974 7.12377L2.52296 8.57913C2.51744 8.58051 2.52312 8.57849 2.55922 8.57394C2.59781 8.56907 2.64903 8.56389 2.73602 8.55519L2.58677 7.06264ZM3.00408 7.01526C3.02051 7.00996 3.01106 7.01524 2.93034 7.02581C2.85313 7.03592 2.74873 7.04644 2.58677 7.06264L2.73602 8.55519C3.00073 8.52872 3.26596 8.50691 3.4647 8.44278L3.00408 7.01526ZM3.14983 6.66339C3.22006 6.80053 3.15072 6.96794 3.00408 7.01526L3.4647 8.44278C4.49115 8.11158 4.97657 6.93969 4.48495 5.97968L3.14983 6.66339ZM2.88821 6.33475C2.9913 6.46075 3.05769 6.54202 3.10514 6.60378C3.15476 6.66834 3.1577 6.67875 3.14983 6.66339L4.48495 5.97968C4.38977 5.7938 4.21763 5.59081 4.04915 5.3849L2.88821 6.33475ZM2.88659 6.33276L2.8866 6.33277L4.05077 5.38688L4.05076 5.38687L2.88659 6.33276ZM2.93834 6.39014L2.93834 6.39014L3.999 5.32948L3.999 5.32948L2.93834 6.39014ZM2.6294 5.98944C2.70177 6.10997 2.79845 6.22504 2.8882 6.33474L4.04914 5.38488C3.99376 5.3172 3.96119 5.2773 3.93733 5.24655C3.91501 5.21779 3.91242 5.21235 3.91536 5.21723L2.6294 5.98944ZM2.72648 4.0428C2.30234 4.61195 2.26398 5.38092 2.6294 5.98944L3.91536 5.21723C3.86315 5.1303 3.86863 5.02044 3.92923 4.93914L2.72648 4.0428ZM3.01835 3.72499C2.91814 3.8252 2.8105 3.93007 2.72649 4.0428L3.92923 4.93914C3.92582 4.9437 3.92894 4.93854 3.95401 4.91215C3.9808 4.88394 4.01717 4.84748 4.07901 4.78565L3.01835 3.72499ZM3.01835 3.72499L3.01835 3.72499L4.07901 4.78565L4.07901 4.78565L3.01835 3.72499ZM3.72556 3.01778L3.01835 3.72499L4.07901 4.78565L4.78622 4.07844L3.72556 3.01778ZM3.72556 3.01778L3.72556 3.01778L4.78622 4.07844L4.78622 4.07844L3.72556 3.01778ZM4.04314 2.72611C3.9305 2.81008 3.8257 2.91764 3.72556 3.01778L4.78622 4.07844C4.84801 4.01665 4.88444 3.9803 4.91263 3.95353C4.939 3.92848 4.94416 3.92536 4.9396 3.92876L4.04314 2.72611ZM5.99007 2.62901C5.38148 2.26346 4.61234 2.30183 4.04314 2.72611L4.9396 3.92876C5.02091 3.86815 5.13079 3.86267 5.21773 3.91489L5.99007 2.62901ZM6.33516 2.88768C6.22552 2.79797 6.11051 2.70135 5.99007 2.62901L5.21773 3.91489C5.21285 3.91195 5.21829 3.91454 5.24704 3.93686C5.27777 3.9607 5.31766 3.99326 5.38531 4.04861L6.33516 2.88768ZM6.66352 3.14908C6.67887 3.15695 6.66847 3.154 6.60395 3.10442C6.54225 3.057 6.46105 2.99067 6.33516 2.88768L5.38531 4.04861C5.59105 4.21695 5.79384 4.38891 5.97949 4.48404L6.66352 3.14908ZM7.01546 3.0033C6.96816 3.15 6.80069 3.21937 6.66352 3.14908L5.9795 4.48404C6.93968 4.97603 8.11203 4.49043 8.44309 3.46359L7.01546 3.0033ZM7.06278 2.58645C7.0466 2.74823 7.03609 2.85251 7.02599 2.92964C7.01544 3.01027 7.01017 3.01971 7.01546 3.0033L8.44309 3.46359C8.5071 3.26505 8.5289 3.00012 8.55534 2.7357L7.06278 2.58645ZM7.06485 2.56804L7.06485 2.56805L8.55327 2.7541L8.55327 2.75409L7.06485 2.56804ZM7.12383 2.15989C7.08985 2.29612 7.07686 2.44562 7.06278 2.58644L8.55534 2.73569C8.56403 2.6488 8.5692 2.59764 8.57406 2.5591C8.57861 2.52304 8.58062 2.51736 8.57925 2.52288L7.12383 2.15989ZM8.56939 0.851675C7.86676 0.954096 7.29566 1.47093 7.12383 2.15989L8.57925 2.52288C8.60379 2.42445 8.68538 2.35062 8.78576 2.33599L8.56939 0.851675ZM8.9999 0.833374C8.85838 0.833374 8.70832 0.831423 8.56939 0.851675L8.78576 2.33599C8.78013 2.33681 8.78598 2.33537 8.82231 2.33443C8.86115 2.33343 8.91258 2.33337 8.9999 2.33337V0.833374ZM10.0003 0.833374H8.9999V2.33337H10.0003V0.833374ZM10.4311 0.851696C10.2921 0.831421 10.1419 0.833374 10.0003 0.833374V2.33337C10.0877 2.33337 10.1391 2.33343 10.178 2.33443C10.2144 2.33537 10.2202 2.33681 10.2146 2.33599L10.4311 0.851696ZM11.8765 2.15975C11.7046 1.47091 11.1336 0.95416 10.4311 0.851696L10.2146 2.33599C10.3149 2.35063 10.3965 2.42445 10.4211 2.52286L11.8765 2.15975ZM11.9168 9.50004C11.9168 10.8347 10.8349 11.9167 9.50016 11.9167V13.4167C11.6633 13.4167 13.4168 11.6632 13.4168 9.50004H11.9168ZM9.50016 7.08337C10.8349 7.08337 11.9168 8.16535 11.9168 9.50004H13.4168C13.4168 7.33693 11.6633 5.58337 9.50016 5.58337V7.08337ZM7.0835 9.50004C7.0835 8.16535 8.16547 7.08337 9.50016 7.08337V5.58337C7.33705 5.58337 5.5835 7.33693 5.5835 9.50004H7.0835ZM9.50016 11.9167C8.16547 11.9167 7.0835 10.8347 7.0835 9.50004H5.5835C5.5835 11.6632 7.33705 13.4167 9.50016 13.4167V11.9167Z" fill="#B1B5C4"/>
</svg>
