<svg width="17" height="15" viewBox="0 0 17 15" fill="none" xmlns="http://www.w3.org/2000/svg">
<path d="M8.44216 15.0001L7.21424 13.9204C2.86894 10.1042 0.00021771 7.58493 0.00021771 4.49601C-0.00572956 3.90401 0.110226 3.31681 0.341302 2.76875C0.572378 2.22069 0.913933 1.72278 1.34599 1.30416C1.77804 0.885531 2.29192 0.55459 2.85755 0.330696C3.42319 0.106801 4.02923 -0.00555151 4.64022 0.000210944C5.36307 0.0049074 6.07648 0.159736 6.73233 0.454254C7.38819 0.748773 7.97124 1.17613 8.44216 1.70752C8.91187 1.17704 9.4934 0.750192 10.1476 0.455697C10.8018 0.161202 11.5136 0.00588974 12.2349 0.000210944C12.8459 -0.00555151 13.4519 0.106801 14.0176 0.330696C14.5832 0.55459 15.0971 0.885531 15.5291 1.30416C15.9612 1.72278 16.3027 2.22069 16.5338 2.76875C16.7649 3.31681 16.8808 3.90401 16.8749 4.49601C16.8749 7.58493 14.0062 10.1042 9.66087 13.9293L8.44216 15.0001Z" fill="#FF6E6E"/>
</svg>
