<svg width="62" height="21" viewBox="0 0 62 21" fill="none" xmlns="http://www.w3.org/2000/svg">
<path fill-rule="evenodd" clip-rule="evenodd" d="M44.3902 5.10231L45.0732 0.840292C44.0826 0.440937 42.5114 0 40.5685 0C35.6087 0 32.1161 2.68748 32.0947 6.52977C32.0535 9.36461 34.5953 10.9391 36.4964 11.8844C38.4395 12.8502 39.1 13.4807 39.1 14.3416C39.0802 15.6639 37.5299 16.2734 36.0839 16.2734C34.0787 16.2734 33.0043 15.9591 31.3715 15.2235L30.7102 14.9081L30.0074 19.3387C31.1853 19.884 33.3555 20.3679 35.6087 20.3891C40.8786 20.3891 44.3095 17.7432 44.3501 13.6487C44.3702 11.4018 43.028 9.68024 40.1343 8.27343C38.3777 7.37035 37.3019 6.76141 37.3019 5.83739C37.3225 4.99738 38.2118 4.13699 40.1947 4.13699C41.8275 4.09485 43.0271 4.49365 43.9359 4.89273L44.3902 5.10231ZM5.27805 2.92416C3.73354 2.00662 1.97082 1.26867 0 0.75657L0.0826679 0.357773H8.16325C9.25853 0.399355 10.1473 0.756291 10.4365 2.01687L12.1926 11.0853L12.1931 11.0871L12.7306 13.8167L17.6492 0.357773H22.96L15.0656 20.0741H9.75454L5.27805 2.92416ZM26.8665 20.095H21.8441L24.9855 0.357773H30.0076L26.8665 20.095ZM57.948 0.357773L61.9998 20.0947H57.3496C57.3496 20.0947 56.8945 17.827 56.7503 17.134H50.3019C50.1154 17.6587 49.2478 20.0947 49.2478 20.0947H43.978L51.4381 1.99538C51.955 0.714429 52.8652 0.357773 54.0632 0.357773H57.948ZM55.9231 13.1028H51.7485C52.1621 11.9689 53.7537 7.58049 53.7537 7.58049C53.7452 7.59751 53.811 7.41228 53.9087 7.13698C54.0529 6.73088 54.2666 6.1288 54.4144 5.69088L54.7654 7.39155C54.7654 7.39155 55.7165 12.116 55.9231 13.1028Z" fill="white"/>
</svg>
