<svg width="22" height="22" viewBox="0 0 22 22" fill="none" xmlns="http://www.w3.org/2000/svg">
<path d="M20.0079 5.52919H19.0435H17.5423C18.4209 4.97739 18.9978 4.07013 18.9978 3.04428C18.9978 1.36558 17.4585 0 15.5669 0C13.9617 0 12.0609 2.75083 11 4.52875C9.93906 2.75113 8.03771 0 6.43283 0C4.54116 0 3.00193 1.36589 3.00193 3.04428C3.00193 4.07013 3.57853 4.97739 4.45736 5.52919H3.10388H1.99241C0.893952 5.52919 0 6.42284 0 7.521V10.679C0 11.4613 0.454388 12.1375 1.11207 12.463V19.6902C1.11207 20.789 2.00572 21.6827 3.10388 21.6827H19.0432C20.1419 21.6827 21.0356 20.789 21.0356 19.6902V12.3828C21.6125 12.0337 22 11.4021 22 10.6796V7.5213C22.0003 6.42315 21.1067 5.52919 20.0079 5.52919ZM1.99241 10.856C1.89469 10.856 1.81513 10.7767 1.81513 10.6793V7.521C1.81513 7.42359 1.89469 7.34433 1.99241 7.34433H10.0921V10.8557L1.99241 10.856ZM11.9076 7.34433H20.0079C20.1056 7.34433 20.1852 7.42359 20.1852 7.521V10.679C20.1852 10.7764 20.1056 10.8557 20.0079 10.8557H11.9076V7.34433ZM15.5666 1.81513C16.4424 1.81513 17.1823 2.37812 17.1823 3.04428C17.1823 3.71043 16.4424 4.27342 15.5666 4.27342H13.3249C14.243 2.94747 15.1863 1.89379 15.5666 1.81513ZM6.40772 1.81362C6.80705 1.89348 7.75515 2.94777 8.67451 4.27403H6.43283C5.55703 4.27403 4.81706 3.71104 4.81706 3.04488C4.81706 2.37873 5.55703 1.81513 6.40772 1.81362ZM2.9272 19.6908V12.6711H10.0924V19.8678H3.10388C3.00646 19.8681 2.9272 19.7886 2.9272 19.6908ZM19.0435 19.8681H11.9076V12.6711H19.2207V19.6905C19.2207 19.7886 19.1412 19.8681 19.0435 19.8681Z" fill="white"/>
</svg>
