<svg width="47" height="58" viewBox="0 0 47 58" fill="none" xmlns="http://www.w3.org/2000/svg">
<path d="M28.1527 52.1197C28.3755 51.8967 28.6847 51.7686 28.9998 51.7686C29.315 51.7686 29.6242 51.8967 29.8471 52.1197C30.07 52.3427 30.1982 52.6518 30.1982 52.9669C30.1982 53.2821 30.0701 53.5913 29.8471 53.814C29.6242 54.0369 29.315 54.1653 28.9998 54.1653C28.6847 54.1653 28.3755 54.0371 28.1527 53.814C27.9297 53.5913 27.8015 53.2821 27.8015 52.9669C27.8015 52.6518 27.9297 52.3426 28.1527 52.1197Z" fill="#23262F"/>
<path d="M13.084 3.35549H19.9908C20.5984 3.35549 21.0911 3.89199 21.0911 4.55384C21.0911 5.21569 20.5984 5.75219 19.9908 5.75219H13.084C12.4764 5.75219 11.9836 5.21569 11.9836 4.55384C11.9836 3.89199 12.4764 3.35549 13.084 3.35549Z" fill="#23262F"/>
<path fill-rule="evenodd" clip-rule="evenodd" d="M2.25858 33.8857V42.2539H19.1884L15.5972 37.1773C14.7405 35.9665 14.6303 34.3948 15.3097 33.0755C15.989 31.7563 17.3304 30.9367 18.8106 30.9367C19.6528 30.9367 20.4888 31.2147 21.1646 31.7196L28.2965 37.0497C28.556 37.2436 28.8773 37.3504 29.2009 37.3504C30.0357 37.3504 30.7147 36.6692 30.7147 35.8318V34.4375V8.61414H2.25858V33.8857ZM0.000151183 4.09557V33.8857V47.7873C0.000151183 50.0455 1.83162 51.8828 4.08271 51.8828H22.4227V56.8672C22.4227 57.4928 22.9284 58 23.5519 58C24.1755 58 24.6811 57.4928 24.6811 56.8672V48.5977H44.717V56.8672C44.717 57.4928 45.2226 58 45.8462 58C46.4697 58 46.9754 57.4928 46.9754 56.8672V48.5977C46.9754 47.3484 45.9623 46.3321 44.717 46.3321H43.7021V34.4862C43.7021 30.091 42.6854 25.6805 40.7618 21.7317C38.9198 17.9504 36.2326 14.5692 32.9732 11.9176V4.09557C32.9732 1.8372 31.1417 0 28.8906 0H4.08271C1.83162 0 0.000151183 1.8372 0.000151183 4.09557ZM2.25847 47.7872V44.5195H20.7775C20.7866 44.5195 20.7956 44.5189 20.8045 44.5183C20.8105 44.5179 20.8165 44.5175 20.8225 44.5172C21.5462 45.4044 22.3963 46.1653 23.3366 46.7815C22.7833 47.1948 22.4226 47.854 22.4226 48.5976V49.6172H4.08259C3.07681 49.6172 2.25847 48.7962 2.25847 47.7872ZM29.201 39.616C28.3944 39.616 27.5941 39.3498 26.9473 38.8666L19.8155 33.5364C19.527 33.321 19.1702 33.2023 18.8108 33.2023C18.1694 33.2023 17.6107 33.5436 17.3165 34.1153C17.0222 34.6869 17.068 35.3414 17.4392 35.8661L22.2044 42.6022C23.8565 44.9376 26.5472 46.332 29.4019 46.332H41.4438V34.4862C41.4438 26.9749 38.3836 19.9664 32.9732 14.9139V34.4375V35.8317C32.9732 37.9184 31.281 39.616 29.201 39.616ZM30.7148 4.09555V6.34849H2.25868V4.09555C2.25868 3.08655 3.07702 2.2656 4.08293 2.2656H28.8907C29.8965 2.2656 30.7148 3.08655 30.7148 4.09555Z" fill="#23262F"/>
<path d="M23.7984 19.0344C23.4405 19.0344 23.1504 19.3336 23.1504 19.7027V20.3757C23.1494 22.1313 22.4855 23.7815 21.2811 25.0221C20.0775 26.2619 18.4781 26.9445 16.777 26.9445H16.7733C13.2589 26.9425 10.4014 23.9923 10.4034 20.3681C10.4044 18.6125 11.0683 16.9624 12.2728 15.7217C13.4764 14.4819 15.0758 13.7993 16.7768 13.7993H16.7806C17.6789 13.7998 18.5504 13.9912 19.371 14.3683C19.6979 14.5185 20.0809 14.3669 20.2266 14.0299C20.3722 13.6928 20.2253 13.2978 19.8984 13.1475C18.911 12.6938 17.8623 12.4634 16.7813 12.4628H16.7768C14.73 12.4628 12.8052 13.2844 11.3569 14.7762C9.90753 16.2691 9.10867 18.2548 9.10748 20.3674C9.10632 22.48 9.90292 24.4666 11.3507 25.9613C12.7984 27.456 14.7239 28.2798 16.7725 28.281H16.777C18.8238 28.281 20.7486 27.4595 22.1969 25.9677C23.6463 24.4747 24.4451 22.489 24.4463 20.3761V19.7027C24.4463 19.3336 24.1562 19.0344 23.7984 19.0344Z" fill="#23262F" stroke="#23262F" stroke-width="1.6"/>
<path d="M25.6881 12.1751C25.4264 11.9196 25.0022 11.9196 24.7405 12.1751L17.2282 19.5113L15.5239 17.847C15.2623 17.5915 14.838 17.5915 14.5764 17.847C14.3147 18.1025 14.3147 18.5168 14.5764 18.7723L16.7544 20.8993C16.8853 21.0271 17.0568 21.0909 17.2282 21.0909C17.3997 21.0909 17.5712 21.0271 17.702 20.8993L25.6881 13.1004C25.9497 12.8449 25.9497 12.4306 25.6881 12.1751Z" fill="#23262F" stroke="#23262F" stroke-width="1.6"/>
<path d="M15.6904 46.3677C15.9132 46.1448 16.2223 46.0165 16.5375 46.0165C16.8527 46.0165 17.1618 46.1447 17.3847 46.3677C17.6076 46.5905 17.7358 46.8997 17.7358 47.2148C17.7358 47.5313 17.6077 47.8392 17.3847 48.0621C17.1618 48.2863 16.8527 48.4132 16.5375 48.4132C16.2223 48.4132 15.9132 48.2862 15.6904 48.0621C15.4675 47.8392 15.3392 47.5312 15.3392 47.2148C15.3392 46.8997 15.4674 46.5905 15.6904 46.3677Z" fill="#23262F"/>
</svg>
