<svg width="50" height="34" viewBox="0 0 50 34" fill="none" xmlns="http://www.w3.org/2000/svg">
<rect width="49.5833" height="34" rx="4.25" fill="white"/>
<rect x="0.5" y="0.5" width="48.5833" height="33" rx="3.75" stroke="#CCD2E3" stroke-opacity="0.31"/>
<path d="M13.2879 12.2207H6.54737C5.66956 12.2207 4.9585 12.9383 4.9585 13.8227V20.6204C4.9585 21.5048 5.66956 22.2224 6.54737 22.2224H13.2879C14.1657 22.2224 14.8759 21.5048 14.8759 20.6204V13.8227C14.8768 12.9374 14.1657 12.2207 13.2879 12.2207Z" fill="#1677FF"/>
<path d="M13.124 18.5008C12.7277 18.3669 12.1946 18.1617 11.6016 17.9453C11.9576 17.3204 12.2424 16.6094 12.4298 15.8365H10.4746V15.1263H12.8692V14.7301H10.4746V13.5459H9.49747C9.32603 13.5459 9.32603 13.7164 9.32603 13.7164V14.7291H6.9043V15.1254H9.32603V15.8355H7.32588V16.2318H11.2044C11.0629 16.7246 10.8718 17.1883 10.646 17.609C9.38786 17.1902 8.04443 16.8511 7.20128 17.06C6.66166 17.1939 6.31409 17.4328 6.10986 17.6839C5.17302 18.8334 5.84474 20.5797 7.82334 20.5797C8.99345 20.5797 10.1205 19.922 10.9936 18.8381C12.2967 19.4695 14.8759 20.5544 14.8759 20.5544V19.0086C14.8768 19.0086 14.5526 18.9824 13.124 18.5008ZM7.63878 19.9117C6.09581 19.9117 5.63957 18.6863 6.40216 18.0156C6.65698 17.7888 7.12165 17.6783 7.36897 17.6539C8.2852 17.5631 9.13398 17.9153 10.1355 18.4081C9.43189 19.3337 8.53534 19.9117 7.63878 19.9117Z" fill="white"/>
<path d="M26.4937 13.685C26.4937 14.2021 26.8721 14.5506 27.3996 14.5506C27.927 14.5506 28.3055 14.2021 28.3055 13.685C28.3055 13.1772 27.927 12.8193 27.3996 12.8193C26.8721 12.8193 26.4937 13.1772 26.4937 13.685Z" fill="#1677FF"/>
<path d="M25.5378 13.0381H23.9658V20.3023H25.5378V13.0381Z" fill="black"/>
<path d="M21.2095 13.2871H19.0997L16.7417 20.3031H18.1947L18.5929 18.9297H21.0905L21.469 20.3031H23.3295L21.2095 13.2871ZM18.9208 17.7849L19.8557 14.5509H19.8951L20.7804 17.7849H18.9208Z" fill="black"/>
<path d="M28.1853 14.9688H26.6133V20.3031H28.1853V14.9688Z" fill="black"/>
<path d="M44.6158 14.9791L44.6252 14.9688H43.1431L42.2072 18.213H42.1576L41.083 14.9688H39.3218L41.4409 20.3228L40.5556 21.9548V21.9941H41.9384L44.6158 14.9791Z" fill="black"/>
<path d="M32.0969 14.8584C31.5198 14.8584 31.072 15.0776 30.5642 15.4954V14.968H28.9922V21.9934H30.5642V20.2518C30.8631 20.3314 31.1413 20.3717 31.4795 20.3717C32.8829 20.3717 34.1467 19.3365 34.1467 17.4956C34.1467 15.844 33.2314 14.8584 32.0969 14.8584ZM31.101 19.3861C30.9221 19.3861 30.7525 19.3665 30.5633 19.3065V16.421C30.8921 16.1925 31.16 16.0828 31.4982 16.0828C32.0856 16.0828 32.5531 16.5503 32.5531 17.5462C32.554 18.8194 31.8673 19.3861 31.101 19.3861Z" fill="black"/>
<path d="M39.0124 18.9683V16.7396C39.0124 15.5254 38.2957 14.8584 37.0319 14.8584C36.2253 14.8584 35.6688 14.998 34.6533 15.3062L34.9315 16.5307C35.8571 16.1128 36.2647 15.9339 36.6928 15.9339C37.2099 15.9339 37.4394 16.3021 37.4394 16.8698V16.9091C35.6379 17.2473 35.0805 17.4366 34.7329 17.7851C34.4744 18.0436 34.3647 18.4118 34.3647 18.84C34.3647 19.8649 35.1611 20.412 35.9068 20.412C36.4642 20.412 36.912 20.2031 37.5191 19.7449L37.6287 20.3024H39.2007L39.0124 18.9683ZM37.4404 19.0086C37.0226 19.2372 36.7837 19.3271 36.5054 19.3271C36.1269 19.3271 35.888 19.0779 35.888 18.6807C35.888 18.5317 35.918 18.3818 36.037 18.2629C36.2262 18.0736 36.5944 17.934 37.4404 17.7354V19.0086Z" fill="black"/>
</svg>
