<svg width="37" height="8" viewBox="0 0 37 8" fill="none" xmlns="http://www.w3.org/2000/svg">
<path d="M6.93196 4C6.93196 5.82389 5.51969 7.25 3.84098 7.25C2.16226 7.25 0.75 5.82389 0.75 4C0.75 2.17611 2.16226 0.75 3.84098 0.75C5.51969 0.75 6.93196 2.17611 6.93196 4Z" stroke="#E6E8EC" stroke-width="1.5"/>
<path d="M21.3363 4C21.3363 5.82389 19.924 7.25 18.2453 7.25C16.5666 7.25 15.1543 5.82389 15.1543 4C15.1543 2.17611 16.5666 0.75 18.2453 0.75C19.924 0.75 21.3363 2.17611 21.3363 4Z" stroke="#E6E8EC" stroke-width="1.5"/>
<path d="M35.7396 4C35.7396 5.82389 34.3273 7.25 32.6486 7.25C30.9699 7.25 29.5576 5.82389 29.5576 4C29.5576 2.17611 30.9699 0.75 32.6486 0.75C34.3273 0.75 35.7396 2.17611 35.7396 4Z" stroke="#E6E8EC" stroke-width="1.5"/>
</svg>
