<svg width="18" height="18" viewBox="0 0 18 18" fill="none" xmlns="http://www.w3.org/2000/svg">
<path d="M17.5543 16.2977L14.3509 13.0912C16.8521 9.86211 16.589 5.26331 13.714 2.36596C12.2002 0.840459 10.1805 0 8.0309 0C5.8802 0 3.86151 0.840503 2.3478 2.36596C0.834009 3.89146 0 5.92673 0 8.093C0 10.2603 0.834053 12.2946 2.3478 13.82C3.8616 15.3455 5.88125 16.186 8.0309 16.186C9.80872 16.186 11.5643 15.5891 12.9683 14.4609L16.1502 17.7123C16.3474 17.911 16.5891 18 16.8523 18C17.1154 18 17.3572 17.8894 17.5543 17.7123C17.9495 17.3366 17.9495 16.6956 17.5543 16.2974L17.5543 16.2977ZM14.0878 8.093C14.0878 9.72907 13.4517 11.2555 12.3099 12.4052C11.169 13.5549 9.63297 14.1968 8.03083 14.1968C6.42869 14.1968 4.8926 13.5558 3.75172 12.4052C2.6108 11.2555 1.9739 9.70753 1.9739 8.093C1.9739 6.45693 2.60993 4.9305 3.75172 3.7808C4.89264 2.63106 6.42869 1.98923 8.03083 1.98923C9.65435 1.98923 11.1691 2.63018 12.3099 3.7808C13.4509 4.93141 14.0878 6.45702 14.0878 8.093Z" fill="#B1B5C4"/>
</svg>
