<svg width="21" height="21" viewBox="0 0 21 21" fill="none" xmlns="http://www.w3.org/2000/svg">
<path fill-rule="evenodd" clip-rule="evenodd" d="M10.5 17.5C14.366 17.5 17.5 14.366 17.5 10.5C17.5 6.63401 14.366 3.5 10.5 3.5C6.63401 3.5 3.5 6.63401 3.5 10.5C3.5 14.366 6.63401 17.5 10.5 17.5ZM10.5 19.25C15.3325 19.25 19.25 15.3325 19.25 10.5C19.25 5.66751 15.3325 1.75 10.5 1.75C5.66751 1.75 1.75 5.66751 1.75 10.5C1.75 15.3325 5.66751 19.25 10.5 19.25Z" fill="#777E91"/>
<path fill-rule="evenodd" clip-rule="evenodd" d="M10.5 6.125C10.0168 6.125 9.625 6.51675 9.625 7C9.625 7.48325 10.0168 7.875 10.5 7.875C10.9832 7.875 11.375 7.48325 11.375 7C11.375 6.51675 10.9832 6.125 10.5 6.125ZM10.5 9.625C10.0168 9.625 9.625 10.0168 9.625 10.5V14C9.625 14.4832 10.0168 14.875 10.5 14.875C10.9832 14.875 11.375 14.4832 11.375 14V10.5C11.375 10.0168 10.9832 9.625 10.5 9.625Z" fill="#777E91"/>
</svg>
