<svg width="17" height="17" viewBox="0 0 17 17" fill="none" xmlns="http://www.w3.org/2000/svg">
<path fill-rule="evenodd" clip-rule="evenodd" d="M10.3215 1.15034C10.1605 1.15034 10.006 1.08974 9.89218 0.981875C9.77832 0.87401 9.71435 0.727713 9.71435 0.575169C9.71435 0.422625 9.77832 0.276328 9.89218 0.168463C10.006 0.060598 10.1605 0 10.3215 0H16.3927C16.5537 0 16.7082 0.060598 16.822 0.168463C16.9359 0.276328 16.9998 0.422625 16.9998 0.575169V6.32686C16.9998 6.4794 16.9359 6.6257 16.822 6.73357C16.7082 6.84143 16.5537 6.90203 16.3927 6.90203C16.2317 6.90203 16.0773 6.84143 15.9634 6.73357C15.8495 6.6257 15.7856 6.4794 15.7856 6.32686V1.96363L10.772 6.71337C11.7577 7.85588 12.2422 9.3136 12.1253 10.785C12.0085 12.2565 11.2991 13.6291 10.144 14.6189C8.98885 15.6088 7.47633 16.1402 5.91924 16.1033C4.36214 16.0664 2.8796 15.4639 1.77822 14.4205C0.676849 13.3771 0.0408996 11.9725 0.00190493 10.4974C-0.0370898 9.02227 0.523853 7.58935 1.56872 6.49503C2.61358 5.4007 4.06244 4.72867 5.61563 4.61794C7.16881 4.5072 8.70751 4.96623 9.91349 5.90009L14.9271 1.15034H10.3215ZM6.07162 5.75169C4.78346 5.75169 3.54807 6.23648 2.63721 7.0994C1.72635 7.96232 1.21463 9.13269 1.21463 10.353C1.21463 11.5734 1.72635 12.7438 2.63721 13.6067C3.54807 14.4696 4.78346 14.9544 6.07162 14.9544C7.35977 14.9544 8.59516 14.4696 9.50602 13.6067C10.4169 12.7438 10.9286 11.5734 10.9286 10.353C10.9286 9.13269 10.4169 7.96232 9.50602 7.0994C8.59516 6.23648 7.35977 5.75169 6.07162 5.75169Z" fill="#B1B5C4"/>
</svg>
