<svg width="22" height="22" viewBox="0 0 22 22" fill="none" xmlns="http://www.w3.org/2000/svg">
<path fill-rule="evenodd" clip-rule="evenodd" d="M7.39353 5.52343C5.69542 6.67945 4.58333 8.62725 4.58333 10.8319C4.58333 14.3758 7.45618 17.2486 11 17.2486C13.2047 17.2486 15.1524 16.1365 16.3085 14.4384C11.6249 13.9264 7.90553 10.2069 7.39353 5.52343ZM17.4167 12.6653C18.2105 12.6653 18.8941 13.3649 18.58 14.094C17.3157 17.028 14.3977 19.0819 11 19.0819C6.44365 19.0819 2.75 15.3882 2.75 10.8319C2.75 7.43421 4.80395 4.51624 7.73795 3.25191C8.46701 2.93773 9.16667 3.62137 9.16667 4.41524C9.16667 8.9716 12.8603 12.6653 17.4167 12.6653Z" fill="#868B90"/>
</svg>
