<svg width="47" height="58" viewBox="0 0 47 58" fill="none" xmlns="http://www.w3.org/2000/svg">
<path d="M28.1533 52.1199C28.3761 51.8969 28.6853 51.7688 29.0004 51.7688C29.3156 51.7688 29.6248 51.8969 29.8477 52.1199C30.0706 52.3429 30.1988 52.652 30.1988 52.9672C30.1988 53.2823 30.0707 53.5915 29.8477 53.8143C29.6248 54.0372 29.3156 54.1655 29.0004 54.1655C28.6853 54.1655 28.3761 54.0373 28.1533 53.8143C27.9303 53.5915 27.8021 53.2823 27.8021 52.9672C27.8021 52.652 27.9303 52.3428 28.1533 52.1199Z" fill="black"/>
<path d="M13.084 3.35526H19.9908C20.5984 3.35526 21.0912 3.89176 21.0912 4.55361C21.0912 5.21546 20.5984 5.75196 19.9908 5.75196H13.084C12.4764 5.75196 11.9837 5.21546 11.9837 4.55361C11.9837 3.89176 12.4764 3.35526 13.084 3.35526Z" fill="black"/>
<path fill-rule="evenodd" clip-rule="evenodd" d="M2.25859 33.8859V42.2541H19.1885L15.5972 37.1775C14.7406 35.9666 14.6304 34.395 15.3097 33.0757C15.9891 31.7564 17.3305 30.9368 18.8106 30.9368C19.6529 30.9368 20.4889 31.2148 21.1647 31.7197L28.2966 37.0498C28.5561 37.2438 28.8774 37.3506 29.201 37.3506C30.0359 37.3506 30.7149 36.6693 30.7149 35.8319V34.4377V8.61417H2.25859V33.8859ZM0.000151184 4.09559V33.8859V47.7875C0.000151184 50.0457 1.83163 51.8831 4.08272 51.8831H22.4228V56.8675C22.4228 57.493 22.9285 58.0003 23.552 58.0003C24.1756 58.0003 24.6812 57.493 24.6812 56.8675V48.5979H44.7171V56.8675C44.7171 57.493 45.2228 58.0003 45.8464 58.0003C46.4699 58.0003 46.9756 57.493 46.9756 56.8675V48.5979C46.9756 47.3486 45.9625 46.3323 44.7171 46.3323H43.7023V34.4864C43.7023 30.0912 42.6856 25.6806 40.762 21.7318C38.92 17.9505 36.2328 14.5693 32.9733 11.9177V4.09559C32.9733 1.8372 31.1418 0 28.8907 0H4.08272C1.83163 0 0.000151184 1.8372 0.000151184 4.09559ZM2.25848 47.7874V44.5197H20.7776C20.7867 44.5197 20.7957 44.5191 20.8046 44.5185C20.8106 44.5181 20.8166 44.5177 20.8226 44.5174C21.5463 45.4046 22.3964 46.1655 23.3367 46.7817C22.7834 47.195 22.4227 47.8542 22.4227 48.5979V49.6174H4.08261C3.07682 49.6174 2.25848 48.7964 2.25848 47.7874ZM29.2011 39.6162C28.3945 39.6162 27.5942 39.35 26.9474 38.8667L19.8156 33.5366C19.5271 33.3211 19.1703 33.2024 18.8108 33.2024C18.1694 33.2024 17.6108 33.5437 17.3165 34.1155C17.0223 34.6871 17.0681 35.3415 17.4393 35.8662L22.2045 42.6024C23.8566 44.9378 26.5473 46.3322 29.402 46.3322H41.444V34.4863C41.444 26.975 38.3838 19.9664 32.9734 14.914V34.4376V35.8319C32.9734 37.9186 31.2811 39.6162 29.2011 39.6162ZM30.715 4.09556V6.34851H2.25869V4.09556C2.25869 3.08656 3.07704 2.26561 4.08294 2.26561H28.8908C29.8966 2.26561 30.715 3.08656 30.715 4.09556Z" fill="black"/>
<path d="M23.7985 19.034C23.4406 19.034 23.1505 19.3332 23.1505 19.7022V20.3753C23.1495 22.1309 22.4856 23.7811 21.2811 25.0217C20.0775 26.2615 18.4781 26.9441 16.7771 26.9441H16.7733C13.259 26.9421 10.4015 23.9919 10.4035 20.3677C10.4044 18.6121 11.0683 16.962 12.2728 15.7212C13.4765 14.4815 15.0759 13.7988 16.7769 13.7988H16.7807C17.679 13.7993 18.5505 13.9908 19.371 14.3678C19.698 14.5181 20.081 14.3665 20.2266 14.0294C20.3723 13.6923 20.2254 13.2973 19.8985 13.1471C18.9111 12.6934 17.8624 12.463 16.7814 12.4624H16.7769C14.7301 12.4624 12.8052 13.2839 11.357 14.7757C9.90757 16.2687 9.10871 18.2544 9.10752 20.367C9.10636 22.4796 9.90296 24.4662 11.3507 25.9609C12.7985 27.4556 14.724 28.2794 16.7726 28.2806H16.7771C18.8239 28.2806 20.7487 27.4591 22.197 25.9673C23.6464 24.4743 24.4452 22.4886 24.4464 20.3757V19.7023C24.4464 19.3332 24.1564 19.034 23.7985 19.034Z" fill="black" stroke="black" stroke-width="1.6"/>
<path d="M25.6882 12.1747C25.4265 11.9192 25.0023 11.9192 24.7406 12.1747L17.2282 19.5109L15.524 17.8466C15.2623 17.5911 14.8381 17.5911 14.5765 17.8466C14.3148 18.1021 14.3148 18.5164 14.5765 18.7719L16.7545 20.8989C16.8853 21.0267 17.0568 21.0905 17.2283 21.0905C17.3998 21.0905 17.5712 21.0267 17.7021 20.8989L25.6882 13.1C25.9498 12.8445 25.9498 12.4302 25.6882 12.1747Z" fill="black" stroke="black" stroke-width="1.6"/>
<path d="M15.6905 46.3682C15.9132 46.1453 16.2224 46.0169 16.5376 46.0169C16.8527 46.0169 17.1619 46.1452 17.3848 46.3682C17.6077 46.591 17.7359 46.9001 17.7359 47.2153C17.7359 47.5318 17.6078 47.8396 17.3848 48.0625C17.1619 48.2867 16.8527 48.4136 16.5376 48.4136C16.2224 48.4136 15.9132 48.2866 15.6905 48.0625C15.4676 47.8396 15.3392 47.5317 15.3392 47.2153C15.3392 46.9001 15.4674 46.591 15.6905 46.3682Z" fill="black"/>
</svg>
