<svg width="18" height="18" viewBox="0 0 18 18" fill="none" xmlns="http://www.w3.org/2000/svg">
<path d="M17.5539 16.2973L14.3506 13.0909C16.8517 9.8619 16.5886 5.2632 13.7137 2.36591C12.1999 0.840441 10.1803 0 8.03073 0C5.88007 0 3.86143 0.840485 2.34775 2.36591C0.833991 3.89138 0 5.9266 0 8.09283C0 10.2601 0.834035 12.2944 2.34775 13.8198C3.86152 15.3452 5.88113 16.1857 8.03073 16.1857C9.80852 16.1857 11.5641 15.5888 12.9681 14.4606L16.1499 17.712C16.347 17.9106 16.5888 17.9996 16.8519 17.9996C17.1151 17.9996 17.3568 17.8891 17.5539 17.712C17.9491 17.3362 17.9491 16.6953 17.5539 16.2971L17.5539 16.2973ZM14.0875 8.09283C14.0875 9.72887 13.4515 11.2553 12.3097 12.4049C11.1688 13.5547 9.63277 14.1965 8.03066 14.1965C6.42855 14.1965 4.8925 13.5555 3.75164 12.4049C2.61075 11.2552 1.97386 9.70733 1.97386 8.09283C1.97386 6.45679 2.60987 4.9304 3.75164 3.78072C4.89254 2.631 6.42855 1.98919 8.03066 1.98919C9.65414 1.98919 11.1688 2.63012 12.3097 3.78072C13.4506 4.9313 14.0875 6.45688 14.0875 8.09283Z" fill="#777E91"/>
</svg>
