<svg width="25" height="31" viewBox="0 0 25 31" fill="none" xmlns="http://www.w3.org/2000/svg">
<path d="M23.5621 30V4.22222C23.5621 3.36764 23.2226 2.54805 22.6183 1.94377C22.014 1.33948 21.1944 1 20.3399 1H4.22873C3.37414 1 2.55456 1.33948 1.95028 1.94377C1.34599 2.54805 1.00651 3.36764 1.00651 4.22222V30M23.5621 30H1.00651M23.5621 30H15.5065M1.00651 30H1M1.00651 30H9.06207M15.5065 30V21.9444C15.5065 21.5172 15.3368 21.1074 15.0346 20.8052C14.7325 20.5031 14.3227 20.3333 13.8954 20.3333H10.6732C10.2459 20.3333 9.83609 20.5031 9.53395 20.8052C9.23181 21.1074 9.06207 21.5172 9.06207 21.9444V30M15.5065 30H9.06207M7.45095 7.44444H9.06207M7.45095 13.8889H9.06207M15.5065 7.44444H17.1176M15.5065 13.8889H17.1176" stroke="#E6E8EC" stroke-width="2" stroke-linecap="round" stroke-linejoin="round"/>
</svg>
